AnnotationMono_Bold[slnt=-15].ufo
<glyph name="exclam" format="2">
  <advance width="500"/>
  <unicode hex="0021"/>
  <outline>
    <contour>
      <point x="363.9131089981226" y="608" type="curve" smooth="yes"/>
      <point x="421.9131089981226" y="608"/>
      <point x="419.9464299949134" y="582"/>
      <point x="411.7118017992731" y="555" type="curve" smooth="yes"/>
      <point x="396.7784437928547" y="503"/>
      <point x="367.0027624362093" y="418"/>
      <point x="354.3565915086889" y="382" type="curve" smooth="yes"/>
      <point x="330.13604642337253" y="314"/>
      <point x="314.8103835715409" y="268"/>
      <point x="309.5231964926429" y="252" type="curve" smooth="yes"/>
      <point x="292.58983848622455" y="200"/>
      <point x="283.8911086754465" y="175"/>
      <point x="246.89110867544647" y="175" type="curve" smooth="yes"/>
      <point x="208.89110867544647" y="175"/>
      <point x="213.58983848622455" y="200"/>
      <point x="223.79114568507404" y="253" type="curve" smooth="yes"/>
      <point x="224.934739224523" y="261"/>
      <point x="241.83477623415058" y="339"/>
      <point x="248.35659150868887" y="382" type="curve" smooth="yes"/>
      <point x="252.7155753573113" y="402"/>
      <point x="271.4386978306991" y="498"/>
      <point x="282.7118017992731" y="555" type="curve" smooth="yes"/>
      <point x="287.6066840327578" y="577"/>
      <point x="299.9131089981226" y="608"/>
    </contour>
    <component base="period"/>
  </outline>
</glyph>
<glyph name="numbersign" format="2">
  <advance width="500"/>
  <unicode hex="0023"/>
  <outline>
    <contour>
      <point x="356.1092614208292" y="605" type="curve" smooth="yes"/>
      <point x="399.1092614208292" y="605"/>
      <point x="399.14258241762" y="579"/>
      <point x="386.24770018413534" y="557" type="curve" smooth="yes"/>
      <point x="377.69256391280624" y="540"/>
      <point x="295.16043908598226" y="385"/>
      <point x="236.95397711098985" y="276" type="curve" smooth="yes"/>
      <point x="208.48472071970923" y="222"/>
      <point x="147.4744111674235" y="110"/>
      <point x="128.36413862476533" y="76" type="curve" smooth="yes"/>
      <point x="96.89488223348471" y="22"/>
      <point x="80.12435565298213" y="-7"/>
      <point x="27.12435565298214" y="-7" type="curve" smooth="yes"/>
      <point x="0.12435565298213902" y="-7"/>
      <point x="5.770526580502562" y="29"/>
      <point x="31.75644347017859" y="70" type="curve" smooth="yes"/>
      <point x="56.742360359854615" y="111"/>
      <point x="117.3603650667271" y="229"/>
      <point x="179.71042058116845" y="346" type="curve" smooth="yes"/>
      <point x="275.6733260263394" y="525"/>
      <point x="277.5489703733573" y="532"/>
      <point x="297.8553953387221" y="563" type="curve" smooth="yes"/>
      <point x="318.6977186889491" y="596"/>
      <point x="340.1092614208292" y="605"/>
    </contour>
    <contour>
      <point x="525.1092614208292" y="605" type="curve" smooth="yes"/>
      <point x="547.1092614208292" y="605"/>
      <point x="557.5541251495001" y="588"/>
      <point x="546.855395338722" y="563" type="curve" smooth="yes"/>
      <point x="533.5489703733573" y="532"/>
      <point x="526.6733260263394" y="525"/>
      <point x="430.7104205811685" y="346" type="curve" smooth="yes"/>
      <point x="368.3603650667271" y="229"/>
      <point x="306.4744111674235" y="110"/>
      <point x="284.75644347017857" y="70" type="curve" smooth="yes"/>
      <point x="260.69872981077805" y="25"/>
      <point x="235.12435565298213" y="-7"/>
      <point x="197.12435565298213" y="-7" type="curve" smooth="yes"/>
      <point x="157.12435565298213" y="-7"/>
      <point x="165.50257738807144" y="28"/>
      <point x="192.82824023990307" y="74" type="curve" smooth="yes"/>
      <point x="241.06802321168627" y="157"/>
      <point x="271.48472071970923" y="222"/>
      <point x="299.95397711098985" y="276" type="curve" smooth="yes"/>
      <point x="357.42838827841337" y="386"/>
      <point x="441.156665527944" y="538"/>
      <point x="448.7118017992731" y="555" type="curve" smooth="yes"/>
      <point x="459.6066840327578" y="577"/>
      <point x="486.1092614208292" y="605"/>
    </contour>
    <contour>
      <point x="109.4476261648802" y="401" type="curve" smooth="yes"/>
      <point x="113.73481324377816" y="417"/>
      <point x="133.96944143941846" y="444"/>
      <point x="162.96944143941846" y="444" type="curve" smooth="yes"/>
      <point x="214.96944143941846" y="444"/>
      <point x="312.43354305455625" y="442"/>
      <point x="324.43354305455625" y="442" type="curve" smooth="yes"/>
      <point x="357.43354305455625" y="442"/>
      <point x="478.2373906318496" y="445"/>
      <point x="509.70149224698736" y="443" type="curve" smooth="yes"/>
      <point x="532.4335430545563" y="442"/>
      <point x="540.2707116286404" y="419"/>
      <point x="535.1796769724491" y="400" type="curve" smooth="yes"/>
      <point x="529.5527439313955" y="379"/>
      <point x="509.33735362222205" y="367"/>
      <point x="474.0694044297909" y="366" type="curve" smooth="yes"/>
      <point x="426.8014552373598" y="365"/>
      <point x="392.9976076600664" y="362"/>
      <point x="315.8014552373598" y="365" type="curve" smooth="yes"/>
      <point x="285.0694044297909" y="366"/>
      <point x="155.53350604492866" y="364"/>
      <point x="138.33735362222203" y="367" type="curve" smooth="yes"/>
      <point x="111.40915039194653" y="371"/>
      <point x="105.16043908598223" y="385"/>
    </contour>
    <contour>
      <point x="35.85778767865566" y="201" type="curve" smooth="yes"/>
      <point x="40.144974757553626" y="217"/>
      <point x="57.70011102888271" y="234"/>
      <point x="86.7001110288827" y="234" type="curve" smooth="yes"/>
      <point x="138.7001110288827" y="234"/>
      <point x="236.16421264402047" y="232"/>
      <point x="248.16421264402047" y="232" type="curve" smooth="yes"/>
      <point x="281.1642126440205" y="232"/>
      <point x="391.96806022131386" y="235"/>
      <point x="423.4321618364516" y="233" type="curve" smooth="yes"/>
      <point x="446.1642126440205" y="232"/>
      <point x="456.68087314241586" y="219"/>
      <point x="451.58983848622455" y="200" type="curve" smooth="yes"/>
      <point x="445.962905445171" y="179"/>
      <point x="423.06802321168624" y="157"/>
      <point x="387.80007401925513" y="156" type="curve" smooth="yes"/>
      <point x="340.53212482682403" y="155"/>
      <point x="256.80007401925513" y="156"/>
      <point x="219.53212482682403" y="155" type="curve" smooth="yes"/>
      <point x="188.53212482682403" y="155"/>
      <point x="79.2641756343929" y="154"/>
      <point x="62.06802321168626" y="157" type="curve" smooth="yes"/>
      <point x="35.13981998141075" y="161"/>
      <point x="31.570600599757697" y="185"/>
    </contour>
  </outline>
</glyph>
<glyph name="dollar" format="2">
  <advance width="500"/>
  <unicode hex="0024"/>
  <outline>
    <contour>
      <point x="369.78875334514044" y="615" type="curve" smooth="yes"/>
      <point x="445.78875334514044" y="615"/>
      <point x="480.8413122283981" y="604"/>
      <point x="511.48232837977565" y="584" type="curve" smooth="yes"/>
      <point x="535.1951413008777" y="568"/>
      <point x="553.0323098749618" y="545"/>
      <point x="523.4579357171659" y="513" type="curve" smooth="yes"/>
      <point x="491.3476631745078" y="479"/>
      <point x="470.6348502534057" y="495"/>
      <point x="456.0463929852858" y="504" type="curve" smooth="yes"/>
      <point x="440.9938341020282" y="515"/>
      <point x="425.94127521877056" y="526"/>
      <point x="344.94127521877056" y="526" type="curve" smooth="yes"/>
      <point x="282.94127521877056" y="526"/>
      <point x="242.58229137014808" y="506"/>
      <point x="224.09379709240062" y="437" type="curve" smooth="yes"/>
      <point x="199.44247138873732" y="345"/>
      <point x="220.24631896603069" y="348"/>
      <point x="301.2463189660307" y="348" type="curve" smooth="yes"/>
      <point x="378.2463189660307" y="348"/>
      <point x="421.88733511740827" y="328"/>
      <point x="453.3847577293368" y="300" type="curve" smooth="yes"/>
      <point x="477.4898754958521" y="278"/>
      <point x="477.5757553759006" y="241"/>
      <point x="463.6423973694822" y="189" type="curve" smooth="yes"/>
      <point x="447.5654458236148" y="129"/>
      <point x="420.5077321642143" y="84"/>
      <point x="381.66540881398726" y="51" type="curve" smooth="yes"/>
      <point x="337.4833395016046" y="13"/>
      <point x="262.5884572681199" y="-9"/>
      <point x="185.5884572681199" y="-9" type="curve" smooth="yes"/>
      <point x="118.5884572681199" y="-9"/>
      <point x="63.23462819564031" y="27"/>
      <point x="39.14874831559185" y="64" type="curve" smooth="yes"/>
      <point x="25.77568135664543" y="85"/>
      <point x="8.206461974992372" y="109"/>
      <point x="50.316734517650545" y="143" type="curve" smooth="yes"/>
      <point x="89.89110867544647" y="175"/>
      <point x="108.1923788646684" y="150"/>
      <point x="119.97698855549493" y="138" type="curve" smooth="yes"/>
      <point x="153.25902085825004" y="98"/>
      <point x="186.84747812636994" y="89"/>
      <point x="214.84747812636994" y="89" type="curve" smooth="yes"/>
      <point x="272.84747812636994" y="89"/>
      <point x="308.38337651123214" y="91"/>
      <point x="337.2782587447169" y="113" type="curve" smooth="yes"/>
      <point x="353.49364905389035" y="125"/>
      <point x="370.1923788646684" y="150"/>
      <point x="378.2308546376021" y="180" type="curve" smooth="yes"/>
      <point x="384.661635255949" y="204"/>
      <point x="382.7526699121404" y="223"/>
      <point x="375.7001110288827" y="234" type="curve" smooth="yes"/>
      <point x="367.18345053048733" y="247"/>
      <point x="332.86294245479854" y="257"/>
      <point x="285.86294245479854" y="257" type="curve" smooth="yes"/>
      <point x="139.5949932623674" y="256"/>
      <point x="99.26040207635467" y="307"/>
      <point x="134.62969547726286" y="439" type="curve" smooth="yes"/>
      <point x="170.26693807060218" y="572"/>
      <point x="272.78875334514044" y="615"/>
    </contour>
    <contour>
      <point x="405.7413492380257" y="682" type="curve" smooth="yes"/>
      <point x="411.7413492380257" y="682"/>
      <point x="436.5977556985767" y="674"/>
      <point x="427.75543234834964" y="641" type="curve" smooth="yes"/>
      <point x="397.1374276414772" y="523"/>
      <point x="395.9220373323037" y="511"/>
      <point x="336.65270692176796" y="301" type="curve" smooth="yes"/>
      <point x="279.7231224733878" y="96"/>
      <point x="286.8141571295791" y="115"/>
      <point x="244.94228634059948" y="-45" type="curve" smooth="yes"/>
      <point x="234.7602170282168" y="-83"/>
      <point x="218.06148721743875" y="-108"/>
      <point x="189.06148721743875" y="-108" type="curve" smooth="yes"/>
      <point x="159.06148721743875" y="-108"/>
      <point x="153.63586137523467" y="-76"/>
      <point x="163.21023553303058" y="-44" type="curve" smooth="yes"/>
      <point x="164.81793068761732" y="-38"/>
      <point x="191.7564434701786" y="70"/>
      <point x="251.2937230731455" y="281" type="curve" smooth="yes"/>
      <point x="322.0848687582195" y="534"/>
      <point x="325.3194969538598" y="561"/>
      <point x="346.415686386194" y="636" type="curve" smooth="yes"/>
      <point x="352.0426194272476" y="657"/>
      <point x="377.0092984304568" y="683"/>
    </contour>
  </outline>
</glyph>
<glyph name="percent" format="2">
  <advance width="500"/>
  <unicode hex="0025"/>
  <outline>
    <contour>
      <point x="554.2528549602782" y="613" type="curve" smooth="yes"/>
      <point x="582.9131089981227" y="608"/>
      <point x="545.6733260263394" y="525"/>
      <point x="525.6348502534057" y="495" type="curve" smooth="yes"/>
      <point x="472.73481324377815" y="417"/>
      <point x="453.42838827841337" y="386"/>
      <point x="344.5283512687858" y="308" type="curve" smooth="yes"/>
      <point x="188.25009252406892" y="195"/>
      <point x="133.24493774792606" y="139"/>
      <point x="93.64617092752042" y="36" type="curve" smooth="yes"/>
      <point x="78.19615242270663" y="-3"/>
      <point x="63.17691453623979" y="-18"/>
      <point x="22.98076211353316" y="-15" type="curve" smooth="yes"/>
      <point x="-8.483339501604597" y="-13"/>
      <point x="3.234628195640312" y="27"/>
      <point x="16.61284993072961" y="62" type="curve" smooth="yes"/>
      <point x="36.54620793714798" y="114"/>
      <point x="82.25009252406892" y="195"/>
      <point x="230.26040207635467" y="307" type="curve" smooth="yes"/>
      <point x="390.9502035529516" y="429"/>
      <point x="427.52457771074756" y="461"/>
      <point x="475.8553953387221" y="563" type="curve" smooth="yes"/>
      <point x="496.1092614208292" y="605"/>
      <point x="504.39644849972717" y="621"/>
    </contour>
    <contour>
      <point x="314.4912567139568" y="487" type="curve" smooth="yes"/>
      <point x="303.1655938621251" y="441"/>
      <point x="284.98352454974247" y="403"/>
      <point x="259.82069312382663" y="380" type="curve" smooth="yes"/>
      <point x="235.38991250547969" y="356"/>
      <point x="207.1745221963062" y="344"/>
      <point x="178.1745221963062" y="344" type="curve" smooth="yes"/>
      <point x="150.44247138873732" y="345"/>
      <point x="131.31811573575519" y="352"/>
      <point x="120.80145523735979" y="365" type="curve" smooth="yes"/>
      <point x="106.89248989355112" y="384"/>
      <point x="105.3425083983649" y="423"/>
      <point x="122.22330752152564" y="486" type="curve" smooth="yes"/>
      <point x="131.86947844904606" y="522"/>
      <point x="145.5682082598241" y="547"/>
      <point x="172.33873484032668" y="576" type="curve" smooth="yes"/>
      <point x="193.5015662662425" y="599"/>
      <point x="220.78875334514046" y="615"/>
      <point x="253.52080415270933" y="614" type="curve" smooth="yes"/>
      <point x="281.2528549602782" y="613"/>
      <point x="302.8413122283981" y="604"/>
      <point x="312.0182267646379" y="586" type="curve" smooth="yes"/>
      <point x="321.51564937656644" y="558"/>
      <point x="326.5489703733573" y="532"/>
    </contour>
    <contour>
      <point x="250.6156123669389" y="480" type="curve" smooth="yes"/>
      <point x="256.24254540799245" y="501"/>
      <point x="254.11818975501032" y="508"/>
      <point x="249.60152925661492" y="521" type="curve" smooth="yes"/>
      <point x="246.94127521877053" y="526"/>
      <point x="243.8169195657884" y="533"/>
      <point x="230.8169195657884" y="533" type="curve" smooth="yes"/>
      <point x="222.8169195657884" y="533"/>
      <point x="213.94127521877053" y="526"/>
      <point x="203.52973248689042" y="517" type="curve" smooth="yes"/>
      <point x="197.65408813987258" y="510"/>
      <point x="191.51049460042358" y="502"/>
      <point x="185.6156123669389" y="480" type="curve" smooth="yes"/>
      <point x="179.18483174859193" y="456"/>
      <point x="180.04123820914296" y="448"/>
      <point x="181.70149224698736" y="443" type="curve" smooth="yes"/>
      <point x="184.55789870753836" y="435"/>
      <point x="190.21815274538275" y="430"/>
      <point x="202.21815274538275" y="430" type="curve" smooth="yes"/>
      <point x="216.21815274538275" y="430"/>
      <point x="226.09379709240062" y="437"/>
      <point x="233.2373906318496" y="445" type="curve" smooth="yes"/>
      <point x="240.38098417129856" y="453"/>
      <point x="244.7207301334542" y="458"/>
    </contour>
    <contour>
      <point x="436.08210632201025" y="116" type="curve" smooth="yes"/>
      <point x="424.75644347017857" y="70"/>
      <point x="409.25386608210715" y="42"/>
      <point x="384.0910346561913" y="19" type="curve" smooth="yes"/>
      <point x="359.66025403784437" y="-5"/>
      <point x="331.4448637286709" y="-17"/>
      <point x="302.4448637286709" y="-17" type="curve" smooth="yes"/>
      <point x="274.71281292110206" y="-16"/>
      <point x="255.5884572681199" y="-9"/>
      <point x="245.0717967697245" y="4" type="curve" smooth="yes"/>
      <point x="231.16283142591584" y="23"/>
      <point x="226.9333580064184" y="52"/>
      <point x="243.81415712957912" y="115" type="curve" smooth="yes"/>
      <point x="253.46032805709953" y="151"/>
      <point x="269.8385497921888" y="186"/>
      <point x="296.6090763726914" y="215" type="curve" smooth="yes"/>
      <point x="317.77190779860723" y="238"/>
      <point x="345.0590948775052" y="254"/>
      <point x="377.79114568507407" y="253" type="curve" smooth="yes"/>
      <point x="405.5231964926429" y="252"/>
      <point x="427.1116537607628" y="243"/>
      <point x="436.2885682970026" y="225" type="curve" smooth="yes"/>
      <point x="445.7859909089312" y="197"/>
      <point x="448.13981998141077" y="161"/>
    </contour>
    <contour>
      <point x="373.8859538993036" y="119" type="curve" smooth="yes"/>
      <point x="379.24493774792603" y="139"/>
      <point x="377.1205820949439" y="146"/>
      <point x="372.3359724041174" y="158" type="curve" smooth="yes"/>
      <point x="369.67571836627303" y="163"/>
      <point x="366.28341352085977" y="169"/>
      <point x="354.28341352085977" y="169" type="curve" smooth="yes"/>
      <point x="347.28341352085977" y="169"/>
      <point x="338.67571836627303" y="163"/>
      <point x="328.26417563439287" y="154" type="curve" smooth="yes"/>
      <point x="322.65648047980613" y="148"/>
      <point x="316.5128869403572" y="140"/>
      <point x="310.8859538993036" y="119" type="curve" smooth="yes"/>
      <point x="304.7231224733878" y="96"/>
      <point x="305.84747812636994" y="89"/>
      <point x="307.2397829717832" y="83" type="curve" smooth="yes"/>
      <point x="310.3641386247653" y="76"/>
      <point x="315.29234185504083" y="72"/>
      <point x="327.29234185504083" y="72" type="curve" smooth="yes"/>
      <point x="340.29234185504083" y="72"/>
      <point x="349.90003700962757" y="78"/>
      <point x="356.7756813566454" y="85" type="curve" smooth="yes"/>
      <point x="363.9192748960944" y="93"/>
      <point x="368.25902085825004" y="98"/>
    </contour>
  </outline>
</glyph>
<glyph name="ampersand" format="2">
  <advance width="500"/>
  <unicode hex="0026"/>
  <outline>
    <contour>
      <point x="165.35281795065063" y="535" type="curve" smooth="yes"/>
      <point x="191.89387111165576" y="593"/>
      <point x="237.9849057678471" y="612"/>
      <point x="291.98490576784707" y="612" type="curve" smooth="yes"/>
      <point x="394.98490576784707" y="612"/>
      <point x="462.65924291601544" y="566"/>
      <point x="443.9027994458369" y="496" type="curve" smooth="yes"/>
      <point x="425.14635597565825" y="426"/>
      <point x="314.69118269470164" y="331"/>
      <point x="246.6334690353011" y="286" type="curve" smooth="yes"/>
      <point x="156.82446668186486" y="227"/>
      <point x="106.42185228416585" y="121"/>
      <point x="118.72312247338778" y="96" type="curve" smooth="yes"/>
      <point x="131.48849427774746" y="69"/>
      <point x="195.84747812636994" y="89"/>
      <point x="227.81415712957912" y="115" type="curve" smooth="yes"/>
      <point x="272.72827724953066" y="152"/>
      <point x="320.49880383003324" y="181"/>
      <point x="351.7001110288827" y="234" type="curve" smooth="yes"/>
      <point x="383.1693674201633" y="288"/>
      <point x="383.1693674201633" y="288"/>
      <point x="403.1168085369057" y="299" type="curve" smooth="yes"/>
      <point x="420.7963004612169" y="309"/>
      <point x="439.33219884607917" y="311"/>
      <point x="447.4565544990613" y="304" type="curve" smooth="yes"/>
      <point x="455.58091015204343" y="297"/>
      <point x="453.1501295336965" y="273"/>
      <point x="439.96806022131386" y="235" type="curve" smooth="yes"/>
      <point x="421.4270070603087" y="177"/>
      <point x="370.8859538993036" y="119"/>
      <point x="293.14874831559183" y="64" type="curve" smooth="yes"/>
      <point x="230.35898384862247" y="20"/>
      <point x="148.5166604983954" y="-13"/>
      <point x="99.24871130596429" y="-14" type="curve" smooth="yes"/>
      <point x="26.712812921102035" y="-16"/>
      <point x="5.894882233484701" y="22"/>
      <point x="24.383376511232164" y="91" type="curve" smooth="yes"/>
      <point x="38.58468371008167" y="144"/>
      <point x="68.82446668186486" y="227"/>
      <point x="122.63346903530109" y="286" type="curve" smooth="yes"/>
      <point x="175.44247138873732" y="345"/>
      <point x="328.0745592059338" y="422"/>
      <point x="341.2040696350588" y="471" type="curve" smooth="yes"/>
      <point x="349.24254540799245" y="501"/>
      <point x="331.28102118092613" y="531"/>
      <point x="291.28102118092613" y="531" type="curve" smooth="yes"/>
      <point x="265.28102118092613" y="531"/>
      <point x="223.77844379285472" y="503"/>
      <point x="239.43354305455622" y="442" type="curve" smooth="yes"/>
      <point x="252.9642866632756" y="388"/>
      <point x="289.2937230731455" y="281"/>
      <point x="328.3411271802603" y="214" type="curve" smooth="yes"/>
      <point x="348.2308546376021" y="180"/>
      <point x="404.5795289339388" y="88"/>
      <point x="423.93335800641836" y="52" type="curve" smooth="yes"/>
      <point x="428.52181527453826" y="43"/>
      <point x="447.2346281956403" y="27"/>
      <point x="434.94744111674237" y="11" type="curve" smooth="yes"/>
      <point x="422.66025403784437" y="-5"/>
      <point x="365.5166604983954" y="-13"/>
      <point x="339.60769515458674" y="6" type="curve" smooth="yes"/>
      <point x="314.69872981077805" y="25"/>
      <point x="232.5706005997577" y="185"/>
      <point x="223.85778767865565" y="201" type="curve" smooth="yes"/>
      <point x="192.934739224523" y="261"/>
      <point x="160.480947161671" y="375"/>
      <point x="154.98352454974244" y="403" type="curve" smooth="yes"/>
      <point x="145.38098417129856" y="453"/>
      <point x="147.63485025340574" y="495"/>
    </contour>
  </outline>
</glyph>
<glyph name="quotesingle" format="2">
  <advance width="500"/>
  <unicode hex="0027"/>
  <outline>
    <contour>
      <point x="302.98352454974247" y="403" type="curve" smooth="yes"/>
      <point x="279.98352454974247" y="403"/>
      <point x="263.9309656664848" y="414"/>
      <point x="273.96944143941846" y="444" type="curve" smooth="yes"/>
      <point x="285.07971398207667" y="478"/>
      <point x="287.4386978306991" y="498"/>
      <point x="304.8553953387221" y="563" type="curve" smooth="yes"/>
      <point x="308.6066840327578" y="577"/>
      <point x="327.1092614208292" y="605"/>
      <point x="363.1092614208292" y="605" type="curve" smooth="yes"/>
      <point x="392.1092614208292" y="605"/>
      <point x="403.5541251495001" y="588"/>
      <point x="396.8553953387221" y="563" type="curve" smooth="yes"/>
      <point x="381.5822913701481" y="506"/>
      <point x="371.73996801992104" y="473"/>
      <point x="357.1655938621251" y="441" type="curve" smooth="yes"/>
      <point x="346.73481324377815" y="417"/>
      <point x="330.98352454974247" y="403"/>
    </contour>
  </outline>
</glyph>
<glyph name="parenleft" format="2">
  <advance width="500"/>
  <unicode hex="0028"/>
  <outline>
    <contour>
      <point x="123.97321499745671" y="291" type="curve" smooth="yes"/>
      <point x="214.00414365431394" y="627"/>
      <point x="441.3298065061456" y="673"/>
      <point x="505.5977556985767" y="674" type="curve" smooth="yes"/>
      <point x="542.8657048910078" y="675"/>
      <point x="563.4541621591277" y="666"/>
      <point x="549.3964484997272" y="621" type="curve" smooth="yes"/>
      <point x="540.8938711116557" y="593"/>
      <point x="519.0900235343624" y="590"/>
      <point x="486.8220743419313" y="589" type="curve" smooth="yes"/>
      <point x="459.5541251495001" y="588"/>
      <point x="292.92719210844655" y="567"/>
      <point x="219.77706257475006" y="294" type="curve" smooth="yes"/>
      <point x="146.35898384862247" y="20"/>
      <point x="271.05255888325763" y="-11"/>
      <point x="351.05255888325763" y="-11" type="curve" smooth="yes"/>
      <point x="373.05255888325763" y="-11"/>
      <point x="376.2294734194974" y="-29"/>
      <point x="367.2627944162882" y="-55" type="curve" smooth="yes"/>
      <point x="356.15252187363006" y="-89"/>
      <point x="330.6691823720255" y="-102"/>
      <point x="284.54482671904333" y="-95" type="curve" smooth="yes"/>
      <point x="213.4922678357857" y="-84"/>
      <point x="33.674337148168355" y="-46"/>
    </contour>
  </outline>
</glyph>
<glyph name="asterisk" format="2">
  <advance width="500"/>
  <unicode hex="002A"/>
  <outline>
    <contour>
      <point x="329.07971398207667" y="478" type="curve" smooth="yes"/>
      <point x="345.07971398207667" y="478"/>
      <point x="367.2758664047833" y="475"/>
      <point x="359.5053398242807" y="446" type="curve" smooth="yes"/>
      <point x="353.3425083983649" y="423"/>
      <point x="343.74889635410216" y="376"/>
      <point x="316.8347762341506" y="339" type="curve"/>
      <point x="350.01684554653326" y="377"/>
      <point x="412.78737212703584" y="406"/>
      <point x="425.1271180891914" y="411" type="curve" smooth="yes"/>
      <point x="455.0745592059338" y="422"/>
      <point x="465.05532131946694" y="407"/>
      <point x="469.3040326254312" y="393" type="curve" smooth="yes"/>
      <point x="473.5527439313955" y="379"/>
      <point x="469.5860649281863" y="353"/>
      <point x="441.2988778492884" y="337" type="curve" smooth="yes"/>
      <point x="417.81553834768374" y="324"/>
      <point x="365.2604020763547" y="307"/>
      <point x="323.3847577293368" y="300" type="curve"/>
      <point x="360.58091015204343" y="297"/>
      <point x="396.2937230731455" y="281"/>
      <point x="413.8103835715409" y="268" type="curve" smooth="yes"/>
      <point x="439.2552473002118" y="251"/>
      <point x="431.7526699121404" y="223"/>
      <point x="418.1975336408113" y="206" type="curve" smooth="yes"/>
      <point x="404.91034656191334" y="190"/>
      <point x="384.69495625273987" y="178"/>
      <point x="366.6423973694822" y="189" type="curve" smooth="yes"/>
      <point x="353.0539401013623" y="198"/>
      <point x="309.2885682970026" y="225"/>
      <point x="296.2026884169542" y="262" type="curve"/>
      <point x="300.48472071970923" y="222"/>
      <point x="287.08726109815314" y="172"/>
      <point x="280.26417563439287" y="154" type="curve" smooth="yes"/>
      <point x="270.8333950160459" y="130"/>
      <point x="251.68980147659698" y="122"/>
      <point x="232.68980147659698" y="122" type="curve" smooth="yes"/>
      <point x="215.68980147659698" y="122"/>
      <point x="199.3692934009082" y="132"/>
      <point x="204.06802321168627" y="157" type="curve" smooth="yes"/>
      <point x="207.4270070603087" y="177"/>
      <point x="218.75266991214036" y="223"/>
      <point x="244.20268841695415" y="262" type="curve"/>
      <point x="211.2885682970026" y="225"/>
      <point x="153.0539401013623" y="198"/>
      <point x="134.64239736948218" y="189" type="curve" smooth="yes"/>
      <point x="110.69495625273984" y="178"/>
      <point x="96.91034656191331" y="190"/>
      <point x="92.19753364081127" y="206" type="curve" smooth="yes"/>
      <point x="87.75266991214036" y="223"/>
      <point x="95.25524730021179" y="251"/>
      <point x="129.81038357154088" y="268" type="curve" smooth="yes"/>
      <point x="154.2937230731455" y="281"/>
      <point x="198.58091015204343" y="297"/>
      <point x="237.3847577293368" y="300" type="curve"/>
      <point x="199.26040207635467" y="307"/>
      <point x="155.81553834768374" y="324"/>
      <point x="139.29887784928835" y="337" type="curve" smooth="yes"/>
      <point x="119.58606492818632" y="353"/>
      <point x="129.5527439313955" y="379"/>
      <point x="141.3040326254312" y="393" type="curve" smooth="yes"/>
      <point x="153.05532131946694" y="407"/>
      <point x="171.07455920593378" y="422"/>
      <point x="195.1271180891914" y="411" type="curve" smooth="yes"/>
      <point x="204.7873721270358" y="406"/>
      <point x="250.01684554653326" y="377"/>
      <point x="264.8347762341506" y="339" type="curve"/>
      <point x="258.62454070112" y="383"/>
      <point x="277.6296954772629" y="439"/>
      <point x="282.5771365940052" y="450" type="curve" smooth="yes"/>
      <point x="294.07971398207667" y="478"/>
      <point x="314.07971398207667" y="478"/>
    </contour>
  </outline>
</glyph>
<glyph name="plus" format="2">
  <advance width="500"/>
  <unicode hex="002B"/>
  <outline>
    <contour>
      <point x="82.65270692176793" y="301" type="curve" smooth="yes"/>
      <point x="86.93989400066589" y="317"/>
      <point x="108.51426815846182" y="349"/>
      <point x="137.51426815846182" y="349" type="curve" smooth="yes"/>
      <point x="189.51426815846182" y="349"/>
      <point x="261.9783697735996" y="347"/>
      <point x="273.9783697735996" y="347" type="curve" smooth="yes"/>
      <point x="306.9783697735996" y="347"/>
      <point x="422.78221735089295" y="350"/>
      <point x="454.2463189660307" y="348" type="curve" smooth="yes"/>
      <point x="476.9783697735996" y="347"/>
      <point x="483.47579238552817" y="319"/>
      <point x="478.3847577293368" y="300" type="curve" smooth="yes"/>
      <point x="473.0257738807144" y="280"/>
      <point x="448.79114568507407" y="253"/>
      <point x="413.5231964926429" y="252" type="curve" smooth="yes"/>
      <point x="366.2552473002118" y="251"/>
      <point x="277.5231964926429" y="252"/>
      <point x="240.2552473002118" y="251" type="curve" smooth="yes"/>
      <point x="209.2552473002118" y="251"/>
      <point x="124.98729810778067" y="250"/>
      <point x="107.79114568507404" y="253" type="curve" smooth="yes"/>
      <point x="80.86294245479853" y="257"/>
      <point x="78.63346903530109" y="286"/>
    </contour>
    <contour>
      <point x="334.4386978306991" y="498" type="curve" smooth="yes"/>
      <point x="350.4386978306991" y="498"/>
      <point x="376.9553583290945" y="485"/>
      <point x="370.18483174859193" y="456" type="curve" smooth="yes"/>
      <point x="361.1271180891914" y="411"/>
      <point x="331.6719448082348" y="316"/>
      <point x="329.4565544990613" y="304" type="curve" smooth="yes"/>
      <point x="326.7052658050256" y="290"/>
      <point x="294.819311905722" y="171"/>
      <point x="284.24493774792603" y="139" type="curve" smooth="yes"/>
      <point x="277.08210632201025" y="116"/>
      <point x="246.3308176279745" y="102"/>
      <point x="227.3308176279745" y="102" type="curve" smooth="yes"/>
      <point x="207.3308176279745" y="102"/>
      <point x="184.88595389930362" y="119"/>
      <point x="193.2641756343929" y="154" type="curve" smooth="yes"/>
      <point x="204.85778767865565" y="201"/>
      <point x="225.68602791855875" y="275"/>
      <point x="234.60014803851027" y="312" type="curve" smooth="yes"/>
      <point x="242.90657300387508" y="343"/>
      <point x="268.43354305455625" y="442"/>
      <point x="276.25662851831646" y="460" type="curve" smooth="yes"/>
      <point x="287.7592059063879" y="488"/>
      <point x="319.4386978306991" y="498"/>
    </contour>
  </outline>
</glyph>
<glyph name="comma" format="2">
  <advance width="500"/>
  <unicode hex="002C"/>
  <anchor x="214.73720558371176" y="55" name="center"/>
  <outline>
    <contour>
      <point x="284.0051547761429" y="56" type="curve" smooth="yes"/>
      <point x="276.0717967697245" y="4"/>
      <point x="257.8179306876173" y="-38"/>
      <point x="229.1717597600969" y="-74" type="curve" smooth="yes"/>
      <point x="188.23840175367854" y="-126"/>
      <point x="134.27172275046934" y="-152"/>
      <point x="55.93197678831373" y="-157" type="curve" smooth="yes"/>
      <point x="32.664027595882615" y="-158"/>
      <point x="23.879417905056087" y="-146"/>
      <point x="25.362757406660677" y="-133" type="curve" smooth="yes"/>
      <point x="26.79353802500762" y="-109"/>
      <point x="37.276877526612225" y="-96"/>
      <point x="58.88457268119896" y="-90" type="curve" smooth="yes"/>
      <point x="99.56406460551018" y="-80"/>
      <point x="152.56406460551017" y="-80"/>
      <point x="171.5884572681199" y="-9" type="curve"/>
      <point x="140.5884572681199" y="-9"/>
      <point x="132.55513627132908" y="17"/>
      <point x="143.80900235343626" y="59" type="curve" smooth="yes"/>
      <point x="157.20646197499238" y="109"/>
      <point x="186.49364905389035" y="125"/>
      <point x="230.49364905389035" y="125" type="curve" smooth="yes"/>
      <point x="280.49364905389035" y="125"/>
      <point x="290.8667160128368" y="104"/>
    </contour>
  </outline>
</glyph>
<glyph name="hyphen" format="2">
  <advance width="500"/>
  <unicode hex="002D"/>
  <outline>
    <contour>
      <point x="82.38475772933681" y="300" type="curve" smooth="yes"/>
      <point x="89.351436732546" y="326"/>
      <point x="108.2463189660307" y="348"/>
      <point x="137.24631896603069" y="348" type="curve" smooth="yes"/>
      <point x="189.24631896603069" y="348"/>
      <point x="276.7104205811685" y="346"/>
      <point x="288.7104205811685" y="346" type="curve" smooth="yes"/>
      <point x="321.7104205811685" y="346"/>
      <point x="422.51426815846185" y="349"/>
      <point x="453.9783697735996" y="347" type="curve" smooth="yes"/>
      <point x="476.7104205811685" y="346"/>
      <point x="485.88733511740827" y="328"/>
      <point x="478.1168085369057" y="299" type="curve" smooth="yes"/>
      <point x="469.8103835715409" y="268"/>
      <point x="448.2552473002118" y="251"/>
      <point x="412.9872981077807" y="250" type="curve" smooth="yes"/>
      <point x="365.71934891534954" y="249"/>
      <point x="291.9872981077807" y="250"/>
      <point x="254.71934891534954" y="249" type="curve" smooth="yes"/>
      <point x="223.71934891534954" y="249"/>
      <point x="124.45139972291842" y="248"/>
      <point x="107.25524730021179" y="251" type="curve" smooth="yes"/>
      <point x="80.32704406993629" y="255"/>
      <point x="75.41807872612762" y="274"/>
    </contour>
  </outline>
</glyph>
<glyph name="period" format="2">
  <advance width="500"/>
  <unicode hex="002E"/>
  <anchor x="214.73720558371176" y="55" name="center"/>
  <outline>
    <contour>
      <point x="284.7372055837117" y="55" type="curve" smooth="yes"/>
      <point x="268.39230484541326" y="-6"/>
      <point x="245.98076211353316" y="-15"/>
      <point x="195.98076211353316" y="-15" type="curve" smooth="yes"/>
      <point x="144.98076211353316" y="-15"/>
      <point x="129.46410161513776" y="-2"/>
      <point x="144.73720558371176" y="55" type="curve" smooth="yes"/>
      <point x="159.4744111674235" y="110"/>
      <point x="182.49364905389035" y="125"/>
      <point x="233.49364905389035" y="125" type="curve" smooth="yes"/>
      <point x="282.49364905389035" y="125"/>
      <point x="299.7423603598546" y="111"/>
    </contour>
  </outline>
</glyph>
<glyph name="slash" format="2">
  <advance width="500"/>
  <unicode hex="002F"/>
  <outline>
    <contour>
      <point x="563.6310766953675" y="648" type="curve" smooth="yes"/>
      <point x="582.415686386194" y="636"/>
      <point x="584.3964484997272" y="621"/>
      <point x="568.7695154586736" y="600" type="curve" smooth="yes"/>
      <point x="487.3669010609746" y="494"/>
      <point x="478.6874091366634" y="484"/>
      <point x="329.1168085369057" y="299" type="curve" smooth="yes"/>
      <point x="182.88595389930362" y="119"/>
      <point x="198.17314097820156" y="135"/>
      <point x="86.12435565298213" y="-7" type="curve" smooth="yes"/>
      <point x="59.014083110323966" y="-41"/>
      <point x="38.779454914683654" y="-68"/>
      <point x="3.1384387633061124" y="-48" type="curve" smooth="yes"/>
      <point x="-29.03847577293368" y="-30"/>
      <point x="-16.803847577293368" y="-3"/>
      <point x="6.698729810778069" y="25" type="curve" smooth="yes"/>
      <point x="11.03847577293368" y="30"/>
      <point x="85.76159824632146" y="126"/>
      <point x="236.60014803851027" y="312" type="curve" smooth="yes"/>
      <point x="417.0848687582195" y="534"/>
      <point x="434.51564937656644" y="558"/>
      <point x="486.7361944618828" y="626" type="curve" smooth="yes"/>
      <point x="515.9182637742655" y="664"/>
      <point x="536.9182637742655" y="664"/>
    </contour>
  </outline>
</glyph>
<glyph name="zero" format="2">
  <advance width="500"/>
  <unicode hex="0030"/>
  <anchor x="200.0" y="0" name="bottom"/>
  <anchor x="360.7695154586736" y="600" name="top"/>
  <outline>
    <contour>
      <point x="364.78875334514044" y="615" type="curve" smooth="yes"/>
      <point x="454.78875334514044" y="615"/>
      <point x="485.21437918734455" y="583"/>
      <point x="497.9220373323037" y="511" type="curve" smooth="yes"/>
      <point x="507.32842528804093" y="464"/>
      <point x="506.1796769724491" y="400"/>
      <point x="479.65270692176796" y="301" type="curve" smooth="yes"/>
      <point x="454.4654828332424" y="207"/>
      <point x="428.9769885554949" y="138"/>
      <point x="393.11542731880104" y="90" type="curve" smooth="yes"/>
      <point x="336.75128869403574" y="14"/>
      <point x="279.71281292110206" y="-16"/>
      <point x="196.71281292110203" y="-16" type="curve" smooth="yes"/>
      <point x="119.71281292110203" y="-16"/>
      <point x="96.4115427318801" y="9"/>
      <point x="69.54105316100512" y="58" type="curve" smooth="yes"/>
      <point x="42.67056359013013" y="107"/>
      <point x="51.910346561913315" y="190"/>
      <point x="81.65270692176793" y="301" type="curve" smooth="yes"/>
      <point x="113.00276243620928" y="418"/>
      <point x="153.63485025340574" y="495"/>
      <point x="207.76436068253074" y="544" type="curve" smooth="yes"/>
      <point x="256.8220743419313" y="589"/>
      <point x="291.78875334514044" y="615"/>
    </contour>
    <contour>
      <point x="339.6015292566149" y="521" type="curve" smooth="yes"/>
      <point x="306.6015292566149" y="521"/>
      <point x="275.0989518685435" y="493"/>
      <point x="243.18483174859193" y="456" type="curve" smooth="yes"/>
      <point x="215.61045759079602" y="424"/>
      <point x="192.480947161671" y="375"/>
      <point x="172.92065611419906" y="302" type="curve" smooth="yes"/>
      <point x="154.4321618364516" y="233"/>
      <point x="147.96290544517097" y="179"/>
      <point x="157.65648047980616" y="148" type="curve" smooth="yes"/>
      <point x="167.68980147659698" y="122"/>
      <point x="180.04363054907657" y="86"/>
      <point x="224.04363054907657" y="86" type="curve" smooth="yes"/>
      <point x="272.04363054907657" y="86"/>
      <point x="301.08210632201025" y="116"/>
      <point x="333.40776917384187" y="162" type="curve" smooth="yes"/>
      <point x="358.58983848622455" y="200"/>
      <point x="372.03985699103833" y="239"/>
      <point x="388.92065611419906" y="302" type="curve" smooth="yes"/>
      <point x="407.9450487768088" y="373"/>
      <point x="409.5386608210715" y="420"/>
      <point x="404.11303497886746" y="452" type="curve" smooth="yes"/>
      <point x="396.6348502534057" y="495"/>
      <point x="381.6015292566149" y="521"/>
    </contour>
    <contour>
      <point x="128.6039215965485" y="159" type="line"/>
      <point x="417.11818975501035" y="508" type="line"/>
      <point x="435.754051130245" y="432" type="line"/>
      <point x="147.5077321642143" y="84" type="line"/>
    </contour>
  </outline>
</glyph>
<glyph name="one" format="2">
  <advance width="500"/>
  <unicode hex="0031"/>
  <anchor x="221.0" y="0" name="bottom"/>
  <anchor x="381.7695154586736" y="600" name="top"/>
  <outline>
    <contour>
      <point x="286.6489333637297" y="454" type="curve"/>
      <point x="255.02200032267612" y="433"/>
      <point x="252.48610193781388" y="431"/>
      <point x="229.46686405134705" y="416" type="curve" smooth="yes"/>
      <point x="199.3758293951557" y="397"/>
      <point x="195.0360834330001" y="392"/>
      <point x="179.8924898935511" y="384" type="curve" smooth="yes"/>
      <point x="148.0694044297909" y="366"/>
      <point x="137.9642866632756" y="388"/>
      <point x="132.10788020272457" y="396" type="curve" smooth="yes"/>
      <point x="112.3425083983649" y="423"/>
      <point x="121.62969547726286" y="439"/>
      <point x="163.4002220577654" y="468" type="curve" smooth="yes"/>
      <point x="212.24254540799248" y="501"/>
      <point x="216.04639298528585" y="504"/>
      <point x="227.18998652473482" y="512" type="curve" smooth="yes"/>
      <point x="258.0848687582195" y="534"/>
      <point x="321.33873484032665" y="576"/>
      <point x="346.2336170738114" y="598" type="curve" smooth="yes"/>
      <point x="366.78875334514044" y="615"/>
      <point x="403.2528549602782" y="613"/>
      <point x="410.9656678813802" y="597" type="curve" smooth="yes"/>
      <point x="416.75027757220676" y="585"/>
      <point x="405.7065366504849" y="554.980350197213"/>
      <point x="401.156665527944" y="538" type="curve" smooth="yes"/>
      <point x="381.66817125019656" y="469"/>
      <point x="389.9027994458369" y="496"/>
      <point x="344.0834875401149" y="325" type="curve" smooth="yes"/>
      <point x="322.64755214562507" y="245"/>
      <point x="308.91034656191334" y="190"/>
      <point x="280.7756813566454" y="85" type="curve"/>
      <point x="187.04363054907657" y="86" type="line"/>
      <point x="195.35005551444135" y="117"/>
      <point x="235" y="265"/>
      <point x="246.4565544990613" y="304" type="curve" smooth="yes"/>
      <point x="261" y="354"/>
      <point x="273.2514737421736" y="404"/>
    </contour>
    <contour>
      <point x="21.182069312382666" y="38" type="curve" smooth="yes"/>
      <point x="31.90003700962757" y="78"/>
      <point x="54.45517328095666" y="95"/>
      <point x="83.25902085825003" y="98" type="curve" smooth="yes"/>
      <point x="105.79491924311228" y="100"/>
      <point x="164.25902085825004" y="98"/>
      <point x="204.79491924311228" y="100" type="curve" smooth="yes"/>
      <point x="242.3308176279745" y="102"/>
      <point x="328.79491924311225" y="100"/>
      <point x="376.52697005068114" y="99" type="curve" smooth="yes"/>
      <point x="408.25902085825004" y="98"/>
      <point x="419.3641386247653" y="76"/>
      <point x="409.98591688967605" y="41" type="curve" smooth="yes"/>
      <point x="404.8948822334847" y="22"/>
      <point x="387.2679491924311" y="1"/>
      <point x="360.0" y="0" type="curve" smooth="yes"/>
      <point x="305.46410161513774" y="-2"/>
      <point x="244.26794919243113" y="1"/>
      <point x="190.0" y="0" type="curve" smooth="yes"/>
      <point x="167.0" y="0"/>
      <point x="102.46410161513776" y="-2"/>
      <point x="51.0" y="0" type="curve" smooth="yes"/>
      <point x="19.267949192431125" y="1"/>
      <point x="16.091034656191333" y="19"/>
    </contour>
  </outline>
</glyph>
<glyph name="two" format="2">
  <advance width="500"/>
  <unicode hex="0032"/>
  <anchor x="200.0" y="0" name="bottom"/>
  <anchor x="360.7695154586736" y="600" name="top"/>
  <outline>
    <contour>
      <point x="12.182069312382666" y="38" type="curve" smooth="yes"/>
      <point x="37" y="132"/>
      <point x="201.7001110288827" y="234"/>
      <point x="261.0257738807144" y="280" type="curve" smooth="yes"/>
      <point x="345.7104205811685" y="346"/>
      <point x="411.3040326254312" y="393"/>
      <point x="414.7207301334542" y="458" type="curve" smooth="yes"/>
      <point x="416.56305348368124" y="491"/>
      <point x="405.9938341020282" y="515"/>
      <point x="332.9938341020282" y="515" type="curve" smooth="yes"/>
      <point x="292.9938341020282" y="515"/>
      <point x="225.49125671395674" y="487"/>
      <point x="192.52457771074756" y="461" type="curve" smooth="yes"/>
      <point x="172.2373906318496" y="445"/>
      <point x="148.5771365940052" y="450"/>
      <point x="140.52457771074756" y="461" type="curve" smooth="yes"/>
      <point x="117.83100267611238" y="492"/>
      <point x="137.26178329445932" y="516"/>
      <point x="163.8887163355129" y="537" type="curve" smooth="yes"/>
      <point x="203.19514130087768" y="568"/>
      <point x="277.71695657541596" y="611"/>
      <point x="355.71695657541596" y="611" type="curve" smooth="yes"/>
      <point x="444.71695657541596" y="611"/>
      <point x="537.1951413008777" y="568"/>
      <point x="513.7207301334543" y="458" type="curve" smooth="yes"/>
      <point x="489.7104205811685" y="346"/>
      <point x="407.82962145800775" y="283"/>
      <point x="348.50395860617607" y="237" type="curve" smooth="yes"/>
      <point x="253.21161675113524" y="165"/>
      <point x="201.70903936306382" y="137"/>
      <point x="169.52697005068114" y="99" type="curve"/>
      <point x="183.18642226162072" y="99"/>
      <point x="196.86582067002516" y="98.86459437069719"/>
      <point x="210.79491924311228" y="100" type="curve" smooth="yes"/>
      <point x="248.3308176279745" y="102"/>
      <point x="329.79491924311225" y="100"/>
      <point x="377.52697005068114" y="99" type="curve" smooth="yes"/>
      <point x="409.25902085825004" y="98"/>
      <point x="420.3641386247653" y="76"/>
      <point x="410.98591688967605" y="41" type="curve" smooth="yes"/>
      <point x="403.2153903091735" y="12"/>
      <point x="388.2679491924311" y="1"/>
      <point x="361.0" y="0" type="curve" smooth="yes"/>
      <point x="306.46410161513774" y="-2"/>
      <point x="235.26794919243113" y="1"/>
      <point x="181.0" y="0" type="curve" smooth="yes"/>
      <point x="158.0" y="0"/>
      <point x="93.46410161513776" y="-2"/>
      <point x="42.0" y="0" type="curve" smooth="yes"/>
      <point x="17.567016425981322" y="0.7699780805907072"/>
      <point x="5" y="13"/>
    </contour>
  </outline>
</glyph>
<glyph name="three" format="2">
  <advance width="500"/>
  <unicode hex="0033"/>
  <anchor x="200.0" y="0" name="bottom"/>
  <anchor x="360.7695154586736" y="600" name="top"/>
  <outline>
    <contour>
      <point x="338.6142311488343" y="271" type="curve"/>
      <point x="416.13604642337253" y="314" type="line"/>
      <point x="438.8488593444746" y="298"/>
      <point x="468.1642126440205" y="232"/>
      <point x="434.9244296722373" y="149" type="curve" smooth="yes"/>
      <point x="377.87564434701784" y="7"/>
      <point x="267.98076211353316" y="-15"/>
      <point x="159.85640646055103" y="-8" type="curve" smooth="yes"/>
      <point x="88.19615242270663" y="-3"/>
      <point x="63.607695154586736" y="6"/>
      <point x="21.541053161005117" y="58" type="curve" smooth="yes"/>
      <point x="12.02439266260971" y="71"/>
      <point x="-18.08072510390559" y="93"/>
      <point x="29.90519178577044" y="134" type="curve" smooth="yes"/>
      <point x="66.21161675113524" y="165"/>
      <point x="85.99622644196177" y="153"/>
      <point x="97.90519178577044" y="134" type="curve" smooth="yes"/>
      <point x="117.40261439769901" y="106"/>
      <point x="156.5077321642143" y="84"/>
      <point x="208.5077321642143" y="84" type="curve" smooth="yes"/>
      <point x="286.7756813566454" y="85"/>
      <point x="318.3308176279745" y="102"/>
      <point x="348.13981998141077" y="161" type="curve" smooth="yes"/>
      <point x="379.48472071970923" y="222"/>
      <point x="345.0590948775052" y="254"/>
    </contour>
    <contour>
      <point x="295.9872981077807" y="250" type="curve" smooth="yes"/>
      <point x="273.37960295319397" y="244"/>
      <point x="240.37960295319394" y="244"/>
      <point x="238.90141822773222" y="287" type="curve" smooth="yes"/>
      <point x="237.67194480823477" y="316"/>
      <point x="269.7629794644261" y="335"/>
      <point x="284.8347762341506" y="339" type="curve" smooth="yes"/>
      <point x="391.60530281465316" y="368"/>
      <point x="423.8591688967603" y="410"/>
      <point x="426.7207301334542" y="458" type="curve" smooth="yes"/>
      <point x="431.24254540799245" y="501"/>
      <point x="397.2617832944593" y="516"/>
      <point x="334.2617832944593" y="516" type="curve" smooth="yes"/>
      <point x="294.2617832944593" y="516"/>
      <point x="227.83100267611238" y="492"/>
      <point x="194.8643236729032" y="466" type="curve" smooth="yes"/>
      <point x="174.5771365940052" y="450"/>
      <point x="158.2373906318496" y="445"/>
      <point x="142.8643236729032" y="466" type="curve" smooth="yes"/>
      <point x="120.17074863826798" y="497"/>
      <point x="150.94127521877053" y="526"/>
      <point x="164.8887163355129" y="537" type="curve" smooth="yes"/>
      <point x="204.19514130087768" y="568"/>
      <point x="278.71695657541596" y="611"/>
      <point x="356.71695657541596" y="611" type="curve" smooth="yes"/>
      <point x="445.71695657541596" y="611"/>
      <point x="538.7310396857399" y="570"/>
      <point x="515.2566285183165" y="460" type="curve" smooth="yes"/>
      <point x="496.1219633130486" y="355"/>
      <point x="432.5616722655766" y="282"/>
    </contour>
  </outline>
</glyph>
<glyph name="four" format="2">
  <advance width="500"/>
  <unicode hex="0034"/>
  <anchor x="221.0" y="0" name="bottom"/>
  <anchor x="381.7695154586736" y="600" name="top"/>
  <outline>
    <contour>
      <point x="478.44900738298486" y="610" type="line"/>
      <point x="484.44900738298486" y="610"/>
      <point x="507.30541384353586" y="602"/>
      <point x="498.4630904933088" y="569" type="curve" smooth="yes"/>
      <point x="470.66817125019656" y="469"/>
      <point x="478.9027994458369" y="496"/>
      <point x="433.0834875401149" y="325" type="curve" smooth="yes"/>
      <point x="411.64755214562507" y="245"/>
      <point x="382.90519178577046" y="134"/>
      <point x="361.4692563912806" y="54" type="curve" smooth="yes"/>
      <point x="351.28718707889794" y="16"/>
      <point x="347.5884572681199" y="-9"/>
      <point x="303.5884572681199" y="-9" type="curve" smooth="yes"/>
      <point x="246.5884572681199" y="-9"/>
      <point x="261.16283142591584" y="23"/>
      <point x="270.7372055837117" y="55" type="curve" smooth="yes"/>
      <point x="272.34490073829846" y="61"/>
      <point x="324.3270440699363" y="255"/>
      <point x="335.77706257475006" y="294" type="curve" smooth="yes"/>
      <point x="329.6142311488343" y="271"/>
      <point x="399.013071988495" y="530"/>
      <point x="408.1233445311532" y="564" type="curve"/>
    </contour>
    <contour>
      <point x="52.451399722918424" y="248" type="curve" smooth="yes"/>
      <point x="57.81038357154088" y="268"/>
      <point x="81.70526580502558" y="290"/>
      <point x="110.50911338231894" y="293" type="curve" smooth="yes"/>
      <point x="133.0450117671812" y="295"/>
      <point x="206.50911338231896" y="293"/>
      <point x="247.0450117671812" y="295" type="curve" smooth="yes"/>
      <point x="284.58091015204343" y="297"/>
      <point x="396.0450117671812" y="295"/>
      <point x="443.77706257475006" y="294" type="curve" smooth="yes"/>
      <point x="475.50911338231896" y="293"/>
      <point x="487.95397711098985" y="276"/>
      <point x="481.2552473002118" y="251" type="curve" smooth="yes"/>
      <point x="473.48472071970923" y="222"/>
      <point x="455.85778767865565" y="201"/>
      <point x="428.58983848622455" y="200" type="curve" smooth="yes"/>
      <point x="374.0539401013623" y="198"/>
      <point x="272.85778767865565" y="201"/>
      <point x="218.58983848622455" y="200" type="curve" smooth="yes"/>
      <point x="195.58983848622455" y="200"/>
      <point x="131.0539401013623" y="198"/>
      <point x="79.58983848622454" y="200" type="curve" smooth="yes"/>
      <point x="47.85778767865566" y="201"/>
      <point x="47.3603650667271" y="229"/>
    </contour>
    <contour>
      <point x="143.1834505304873" y="247" type="curve"/>
      <point x="52.451399722918424" y="248" type="line"/>
      <point x="67.4565544990613" y="304"/>
      <point x="128.63862381144395" y="342"/>
      <point x="252.64893336372972" y="454" type="curve" smooth="yes"/>
      <point x="339.8169195657884" y="533"/>
      <point x="430.44900738298486" y="610"/>
      <point x="478.44900738298486" y="610" type="curve"/>
      <point x="453.7258849095971" y="514" type="line"/>
      <point x="377.4002220577654" y="468"/>
      <point x="338.4861019378139" y="431"/>
      <point x="292.50018504813784" y="390" type="curve" smooth="yes"/>
      <point x="238.90657300387508" y="343"/>
      <point x="177.65270692176793" y="301"/>
    </contour>
  </outline>
</glyph>
<glyph name="five" format="2">
  <advance width="500"/>
  <unicode hex="0035"/>
  <anchor x="200.0" y="0" name="bottom"/>
  <anchor x="360.7695154586736" y="600" name="top"/>
  <outline>
    <contour>
      <point x="166.80283645546442" y="574" type="curve" smooth="yes"/>
      <point x="171.89387111165576" y="593"/>
      <point x="192.03746465110473" y="601"/>
      <point x="224.30541384353586" y="602" type="curve" smooth="yes"/>
      <point x="276.8413122283981" y="604"/>
      <point x="330.30541384353586" y="602"/>
      <point x="353.30541384353586" y="602" type="curve" smooth="yes"/>
      <point x="407.03746465110476" y="601"/>
      <point x="445.8413122283981" y="604"/>
      <point x="499.30541384353586" y="602" type="curve" smooth="yes"/>
      <point x="526.0374646511048" y="601"/>
      <point x="536.429769496518" y="595"/>
      <point x="525.9797509917042" y="556" type="curve" smooth="yes"/>
      <point x="519.2810211809261" y="531"/>
      <point x="497.7258849095971" y="514"/>
      <point x="465.4579357171659" y="513" type="curve" smooth="yes"/>
      <point x="417.1899865247348" y="512"/>
      <point x="368.65408813987256" y="510"/>
      <point x="332.1899865247348" y="512" type="curve" smooth="yes"/>
      <point x="292.7258849095971" y="514"/>
      <point x="243.18998652473482" y="512"/>
      <point x="221.72588490959706" y="514" type="curve" smooth="yes"/>
      <point x="194.52973248689042" y="517"/>
      <point x="161.44385260684197" y="554"/>
    </contour>
    <contour>
      <point x="364.6423973694822" y="189" type="curve" smooth="yes"/>
      <point x="385.2029063476042" y="265.7328641358274"/>
      <point x="362.7531750257855" y="316"/>
      <point x="281.6719448082348" y="316" type="curve" smooth="yes"/>
      <point x="237.67194480823477" y="316"/>
      <point x="179.36551984286996" y="285"/>
      <point x="134.09757065043885" y="284" type="curve"/>
      <point x="157.0694044297909" y="366" type="line"/>
      <point x="199.35659150868887" y="382"/>
      <point x="265.5194229346047" y="405"/>
      <point x="304.5194229346047" y="405" type="curve" smooth="yes"/>
      <point x="447.01512242949957" y="405"/>
      <point x="492.80458375060607" y="320.2270660795607"/>
      <point x="456.3026514073266" y="184" type="curve" smooth="yes"/>
      <point x="417.1820693123827" y="38"/>
      <point x="279.856406460551" y="-8"/>
      <point x="169.85640646055103" y="-8" type="curve" smooth="yes"/>
      <point x="97.85640646055103" y="-8"/>
      <point x="45.306424965364805" y="31"/>
      <point x="12.723122473387779" y="96" type="curve" smooth="yes"/>
      <point x="5.742360359854619" y="111"/>
      <point x="7.709039363063809" y="137"/>
      <point x="35.80007401925514" y="156" type="curve" smooth="yes"/>
      <point x="71.23085463760208" y="180"/>
      <point x="87.13981998141075" y="161"/>
      <point x="100.31673451765054" y="143" type="curve" smooth="yes"/>
      <point x="120.81415712957912" y="115"/>
      <point x="168.6513257036633" y="92"/>
      <point x="204.6513257036633" y="92" type="curve" smooth="yes"/>
      <point x="291.6513257036633" y="92"/>
      <point x="352.31673451765056" y="143"/>
    </contour>
    <contour>
      <point x="166.80283645546442" y="574" type="curve"/>
      <point x="239.94127521877053" y="526" type="line"/>
      <point x="238.9220373323037" y="511"/>
      <point x="235.58229137014808" y="506"/>
      <point x="230.2758664047833" y="475" type="curve" smooth="yes"/>
      <point x="222.36174628483172" y="438"/>
      <point x="210.66301647405368" y="413"/>
      <point x="201.0694044297909" y="366" type="curve" smooth="yes"/>
      <point x="193.22708107956385" y="333"/>
      <point x="150.36551984286996" y="285"/>
      <point x="134.09757065043885" y="284" type="curve" smooth="yes"/>
      <point x="114.82962145800772" y="283"/>
      <point x="91.58091015204344" y="297"/>
      <point x="100.01169077039039" y="321" type="curve" smooth="yes"/>
      <point x="110.78221735089295" y="350"/>
      <point x="136.18483174859193" y="456"/>
      <point x="145.2951042912501" y="490" type="curve" smooth="yes"/>
      <point x="148.51049460042358" y="502"/>
      <point x="154.86947844904606" y="522"/>
    </contour>
  </outline>
</glyph>
<glyph name="six" format="2">
  <advance width="500"/>
  <unicode hex="0036"/>
  <anchor x="200.0" y="0" name="bottom"/>
  <anchor x="380.7695154586736" y="600" name="top"/>
  <outline>
    <contour>
      <point x="165.05909487750517" y="254" type="curve" smooth="yes"/>
      <point x="188.3758293951557" y="397"/>
      <point x="219.3091874015741" y="449"/>
      <point x="294.7592059063879" y="488" type="curve" smooth="yes"/>
      <point x="343.4579357171659" y="513"/>
      <point x="401.06563087175266" y="519"/>
      <point x="437.8117647896455" y="477" type="curve" smooth="yes"/>
      <point x="454.4527809410231" y="457"/>
      <point x="475.2373906318496" y="445"/>
      <point x="515.0797139820767" y="478" type="curve" smooth="yes"/>
      <point x="544.5104946004236" y="502"/>
      <point x="541.0848687582195" y="534"/>
      <point x="515.855395338722" y="563" type="curve" smooth="yes"/>
      <point x="471.1810581905537" y="609"/>
      <point x="403.12849930729607" y="620"/>
      <point x="327.6977186889491" y="596" type="curve" smooth="yes"/>
      <point x="209.7118017992731" y="555"/>
      <point x="91.77328901671184" y="447"/>
      <point x="64.39884083966078" y="259" type="curve" smooth="yes"/>
      <point x="49.06802321168626" y="157"/>
      <point x="43.45517328095666" y="95"/>
      <point x="82.91412011995155" y="37" type="curve" smooth="yes"/>
      <point x="117.5166604983954" y="-13"/>
      <point x="164.5166604983954" y="-13"/>
      <point x="197.5166604983954" y="-13" type="curve" smooth="yes"/>
      <point x="324.5166604983954" y="-13"/>
      <point x="435.1346652052679" y="105"/>
      <point x="461.661635255949" y="204" type="curve" smooth="yes"/>
      <point x="481.221926303421" y="277"/>
      <point x="498.4476261648802" y="401"/>
      <point x="358.4476261648802" y="401" type="curve" smooth="yes"/>
      <point x="295.4476261648802" y="401"/>
      <point x="206.480947161671" y="375"/>
      <point x="135.48987549585212" y="278" type="curve"/>
      <point x="136.6039215965485" y="159" type="line"/>
      <point x="198.43731661259446" y="289"/>
      <point x="268.2604020763547" y="307"/>
      <point x="308.2604020763547" y="307" type="curve" smooth="yes"/>
      <point x="386.2604020763547" y="307"/>
      <point x="387.0257738807144" y="280"/>
      <point x="367.4654828332424" y="207" type="curve" smooth="yes"/>
      <point x="348.44109017063266" y="136"/>
      <point x="279.7756813566454" y="85"/>
      <point x="223.77568135664544" y="85" type="curve" smooth="yes"/>
      <point x="123.77568135664544" y="85"/>
      <point x="152.96290544517097" y="179"/>
    </contour>
  </outline>
</glyph>
<glyph name="seven" format="2">
  <advance width="500"/>
  <unicode hex="0037"/>
  <anchor x="193.0" y="0" name="bottom"/>
  <anchor x="353.7695154586736" y="600" name="top"/>
  <outline>
    <contour>
      <point x="440.42461472037513" y="539" type="curve"/>
      <point x="551.6592429160155" y="566" type="line"/>
      <point x="528.4386978306991" y="498"/>
      <point x="434.480947161671" y="375"/>
      <point x="360.36551984286996" y="285" type="curve" smooth="yes"/>
      <point x="287.7859909089312" y="197"/>
      <point x="241.15390309173472" y="120"/>
      <point x="210.91412011995155" y="37" type="curve" smooth="yes"/>
      <point x="200.21539030917347" y="12"/>
      <point x="175.32050807568876" y="-10"/>
      <point x="140.32050807568876" y="-10" type="curve" smooth="yes"/>
      <point x="82.32050807568876" y="-10"/>
      <point x="95.82308546376021" y="18"/>
      <point x="102.11027254265818" y="34" type="curve" smooth="yes"/>
      <point x="155.96290544517097" y="179"/>
      <point x="245.34628195640312" y="270"/>
      <point x="314.3899125054797" y="356" type="curve" smooth="yes"/>
      <point x="372.9502035529516" y="429"/>
      <point x="399.59637448047204" y="465"/>
    </contour>
    <contour>
      <point x="551.6592429160155" y="566" type="curve" smooth="yes"/>
      <point x="544.300259067393" y="546"/>
      <point x="494.5822913701481" y="506"/>
      <point x="466.314342177717" y="505" type="curve" smooth="yes"/>
      <point x="444.0463929852858" y="504"/>
      <point x="372.5104946004236" y="502"/>
      <point x="331.70664702313024" y="499" type="curve" smooth="yes"/>
      <point x="293.9027994458369" y="496"/>
      <point x="263.4386978306991" y="498"/>
      <point x="216.31434217771695" y="505" type="curve" smooth="yes"/>
      <point x="185.65408813987258" y="510"/>
      <point x="150.17590341441084" y="553"/>
      <point x="154.19514130087768" y="568" type="curve" smooth="yes"/>
      <point x="159.28617595706902" y="587"/>
      <point x="175.30541384353586" y="602"/>
      <point x="201.5015662662425" y="599" type="curve" smooth="yes"/>
      <point x="252.1618203040869" y="594"/>
      <point x="325.3579727267935" y="591"/>
      <point x="380.16182030408686" y="594" type="curve" smooth="yes"/>
      <point x="430.9656678813802" y="597"/>
      <point x="471.30541384353586" y="602"/>
      <point x="521.9656678813802" y="597" type="curve" smooth="yes"/>
      <point x="556.1618203040869" y="594"/>
      <point x="557.7502775722068" y="585"/>
    </contour>
    <contour>
      <point x="156.59121970432918" y="409" type="curve" smooth="yes"/>
      <point x="123.59121970432918" y="409"/>
      <point x="110.53866082107153" y="420"/>
      <point x="120.57713659400521" y="450" type="curve" smooth="yes"/>
      <point x="131.68740913666338" y="484"/>
      <point x="144.45793571716595" y="513"/>
      <point x="154.19514130087768" y="568" type="curve"/>
      <point x="231.86947844904606" y="522" type="line"/>
      <point x="216.2758664047833" y="475"/>
      <point x="222.34766317450777" y="479"/>
      <point x="207.77328901671183" y="447" type="curve" smooth="yes"/>
      <point x="197.34250839836488" y="423"/>
      <point x="174.59121970432918" y="409"/>
    </contour>
  </outline>
</glyph>
<glyph name="eight" format="2">
  <advance width="500"/>
  <unicode hex="0038"/>
  <anchor x="200.0" y="0" name="bottom"/>
  <anchor x="360.7695154586736" y="600" name="top"/>
  <outline>
    <contour>
      <point x="367.98490576784707" y="612" type="curve" smooth="yes"/>
      <point x="400.98490576784707" y="612"/>
      <point x="454.6451598056915" y="607"/>
      <point x="488.33873484032665" y="576" type="curve" smooth="yes"/>
      <point x="509.97975099170424" y="556"/>
      <point x="519.6733260263394" y="525"/>
      <point x="503.8643236729032" y="466" type="curve" smooth="yes"/>
      <point x="490.73481324377815" y="417"/>
      <point x="453.37067461901285" y="341"/>
      <point x="339.4565544990613" y="304" type="curve"/>
      <point x="315.480947161671" y="375" type="line"/>
      <point x="382.480947161671" y="375"/>
      <point x="410.14635597565825" y="426"/>
      <point x="419.52457771074756" y="461" type="curve" smooth="yes"/>
      <point x="431.5822913701481" y="506"/>
      <point x="399.7451227960639" y="529"/>
      <point x="352.7451227960639" y="529" type="curve" smooth="yes"/>
      <point x="287.7451227960639" y="529"/>
      <point x="251.90279944583685" y="496"/>
      <point x="240.11303497886746" y="452" type="curve" smooth="yes"/>
      <point x="227.7873721270358" y="406"/>
      <point x="242.480947161671" y="375"/>
      <point x="315.480947161671" y="375" type="curve" smooth="yes"/>
      <point x="382.480947161671" y="375"/>
      <point x="414.1219633130486" y="355"/>
      <point x="444.351436732546" y="326" type="curve" smooth="yes"/>
      <point x="480.24116418988785" y="292"/>
      <point x="474.5757553759006" y="241"/>
      <point x="460.6423973694822" y="189" type="curve" smooth="yes"/>
      <point x="444.5654458236148" y="129"/>
      <point x="417.5077321642143" y="84"/>
      <point x="378.66540881398726" y="51" type="curve" smooth="yes"/>
      <point x="334.4833395016046" y="13"/>
      <point x="269.5884572681199" y="-9"/>
      <point x="192.5884572681199" y="-9" type="curve" smooth="yes"/>
      <point x="109.5884572681199" y="-9"/>
      <point x="7.59361204426277" y="47"/>
      <point x="41.62315948301535" y="174" type="curve" smooth="yes"/>
      <point x="59.30780618346945" y="240"/>
      <point x="140.12196331304855" y="355"/>
      <point x="239.7296584676353" y="361" type="curve"/>
      <point x="300.36551984286996" y="285" type="line"/>
      <point x="177.36551984286996" y="285"/>
      <point x="140.41292394998476" y="218"/>
      <point x="127.28341352085974" y="169" type="curve" smooth="yes"/>
      <point x="121.38853128737503" y="147"/>
      <point x="128.56544582361482" y="129"/>
      <point x="143.08210632201025" y="116" type="curve" smooth="yes"/>
      <point x="162.72312247338778" y="96"/>
      <point x="196.31157974150767" y="87"/>
      <point x="220.31157974150767" y="87" type="curve" smooth="yes"/>
      <point x="278.31157974150767" y="87"/>
      <point x="311.79491924311225" y="100"/>
      <point x="327.2782587447169" y="113" type="curve" smooth="yes"/>
      <point x="353.17314097820156" y="135"/>
      <point x="367.53212482682403" y="155"/>
      <point x="375.5706005997577" y="185" type="curve" smooth="yes"/>
      <point x="391.1116537607628" y="243"/>
      <point x="354.36551984286996" y="285"/>
      <point x="300.36551984286996" y="285" type="curve" smooth="yes"/>
      <point x="198.36551984286996" y="285"/>
      <point x="127.51426815846182" y="349"/>
      <point x="155.64893336372972" y="454" type="curve" smooth="yes"/>
      <point x="184.85539533872208" y="563"/>
      <point x="280.98490576784707" y="612"/>
    </contour>
  </outline>
</glyph>
<glyph name="nine" format="2">
  <advance width="500"/>
  <unicode hex="0039"/>
  <anchor x="200.0" y="0" name="bottom"/>
  <anchor x="372.7695154586736" y="600" name="top"/>
  <outline>
    <contour>
      <point x="387.81553834768374" y="324" type="curve" smooth="yes"/>
      <point x="370.0590948775052" y="254"/>
      <point x="346.26933041053576" y="210"/>
      <point x="169.14874831559186" y="64" type="curve" smooth="yes"/>
      <point x="142.25386608210715" y="42"/>
      <point x="140.4833395016046" y="13"/>
      <point x="162.9282032302755" y="-4" type="curve" smooth="yes"/>
      <point x="189.83716857408416" y="-23"/>
      <point x="213.05255888325766" y="-11"/>
      <point x="252.35898384862247" y="20" type="curve" smooth="yes"/>
      <point x="379.9577506690281" y="123"/>
      <point x="449.68087314241586" y="219"/>
      <point x="479.1552843098394" y="329" type="curve" smooth="yes"/>
      <point x="506.754051130245" y="432"/>
      <point x="509.170748638268" y="497"/>
      <point x="489.7118017992731" y="555" type="curve" smooth="yes"/>
      <point x="482.6066840327578" y="577"/>
      <point x="465.03746465110476" y="601"/>
      <point x="403.1810581905537" y="609" type="curve" smooth="yes"/>
      <point x="300.93234688458944" y="623"/>
      <point x="187.4630904933088" y="569"/>
      <point x="116.14635597565827" y="426" type="curve" smooth="yes"/>
      <point x="81.12196331304855" y="355"/>
      <point x="75.02061910457148" y="224"/>
      <point x="213.6090763726914" y="215" type="curve" smooth="yes"/>
      <point x="248.07317798782913" y="213"/>
      <point x="381.0731779878291" y="213"/>
      <point x="443.7104205811685" y="346" type="curve"/>
      <point x="410.32327051189804" y="408" type="line"/>
      <point x="382.8488593444746" y="298"/>
      <point x="288.4565544990613" y="304"/>
      <point x="249.4565544990613" y="304" type="curve" smooth="yes"/>
      <point x="169.18860530663017" y="303"/>
      <point x="176.87325200708426" y="369"/>
      <point x="200.1271180891914" y="411" type="curve" smooth="yes"/>
      <point x="239.15151075180114" y="482"/>
      <point x="290.28102118092613" y="531"/>
      <point x="363.94127521877056" y="526" type="curve" smooth="yes"/>
      <point x="442.6015292566149" y="521"/>
      <point x="406.4476261648802" y="401"/>
    </contour>
  </outline>
</glyph>
<glyph name="less" format="2">
  <advance width="500"/>
  <unicode hex="003C"/>
  <outline>
    <contour>
      <point x="166.3847577293368" y="300" type="curve"/>
      <point x="193.77706257475006" y="294"/>
      <point x="208.02577388071435" y="280"/>
      <point x="219.81038357154088" y="268" type="curve" smooth="yes"/>
      <point x="250.8437045683317" y="242"/>
      <point x="283.805228795398" y="212"/>
      <point x="294.1257368710868" y="202" type="curve" smooth="yes"/>
      <point x="315.2308546376021" y="180"/>
      <point x="398.67056359013014" y="107"/>
      <point x="428.90003700962757" y="78" type="curve" smooth="yes"/>
      <point x="449.273103968574" y="57"/>
      <point x="421.9141201199515" y="37"/>
      <point x="403.0910346561913" y="19" type="curve" smooth="yes"/>
      <point x="389.60769515458674" y="6"/>
      <point x="365.12435565298216" y="-7"/>
      <point x="350.60769515458674" y="6" type="curve" smooth="yes"/>
      <point x="329.16283142591584" y="23"/>
      <point x="232.54620793714798" y="114"/>
      <point x="212.17314097820156" y="135" type="curve" smooth="yes"/>
      <point x="205.7808361327883" y="141"/>
      <point x="111.21677152727811" y="221"/>
      <point x="78.25524730021179" y="251" type="curve" smooth="yes"/>
      <point x="64.7385868018164" y="264"/>
      <point x="66.16936742016334" y="288"/>
      <point x="69.38475772933681" y="300" type="curve" smooth="yes"/>
      <point x="72.60014803851028" y="312"/>
      <point x="84.03092865685723" y="336"/>
      <point x="104.51426815846182" y="349" type="curve" smooth="yes"/>
      <point x="153.5527439313955" y="379"/>
      <point x="290.9886793258853" y="459"/>
      <point x="300.59637448047204" y="465" type="curve" smooth="yes"/>
      <point x="332.2233075215256" y="486"/>
      <point x="477.6066840327578" y="577"/>
      <point x="508.16182030408686" y="594" type="curve" smooth="yes"/>
      <point x="529.6451598056915" y="607"/>
      <point x="547.1618203040869" y="594"/>
      <point x="553.6784808024822" y="581" type="curve" smooth="yes"/>
      <point x="562.855395338722" y="563"/>
      <point x="579.4964114900996" y="543"/>
      <point x="547.869478449046" y="522" type="curve" smooth="yes"/>
      <point x="502.0989518685435" y="493"/>
      <point x="379.8066100135027" y="421"/>
      <point x="346.91172778001794" y="399" type="curve" smooth="yes"/>
      <point x="331.23223585570673" y="389"/>
      <point x="282.46170927520416" y="360"/>
      <point x="238.22708107956385" y="333" type="curve" smooth="yes"/>
      <point x="219.2796399628215" y="322"/>
      <point x="196.99245288392353" y="306"/>
    </contour>
  </outline>
</glyph>
<glyph name="equal" format="2">
  <advance width="500"/>
  <unicode hex="003D"/>
  <outline>
    <contour>
      <point x="89.17967697244907" y="400" type="curve" smooth="yes"/>
      <point x="98.82584789996949" y="436"/>
      <point x="115.30918740157409" y="449"/>
      <point x="144.3091874015741" y="449" type="curve" smooth="yes"/>
      <point x="196.3091874015741" y="449"/>
      <point x="303.77328901671183" y="447"/>
      <point x="315.77328901671183" y="447" type="curve" smooth="yes"/>
      <point x="348.77328901671183" y="447"/>
      <point x="469.5771365940052" y="450"/>
      <point x="501.041238209143" y="448" type="curve" smooth="yes"/>
      <point x="523.7732890167118" y="447"/>
      <point x="535.6296954772629" y="439"/>
      <point x="525.1796769724491" y="400" type="curve" smooth="yes"/>
      <point x="514.193760082773" y="359"/>
      <point x="495.3181157357552" y="352"/>
      <point x="460.05016654332405" y="351" type="curve" smooth="yes"/>
      <point x="412.78221735089295" y="350"/>
      <point x="319.05016654332405" y="351"/>
      <point x="281.78221735089295" y="350" type="curve" smooth="yes"/>
      <point x="250.78221735089295" y="350"/>
      <point x="131.51426815846182" y="349"/>
      <point x="114.31811573575519" y="352" type="curve" smooth="yes"/>
      <point x="87.38991250547969" y="356"/>
      <point x="79.53350604492866" y="364"/>
    </contour>
    <contour>
      <point x="35.58983848622454" y="200" type="curve" smooth="yes"/>
      <point x="45.23600941374496" y="236"/>
      <point x="61.987298107780674" y="250"/>
      <point x="90.98729810778067" y="250" type="curve" smooth="yes"/>
      <point x="142.98729810778067" y="250"/>
      <point x="250.45139972291844" y="248"/>
      <point x="262.45139972291844" y="248" type="curve" smooth="yes"/>
      <point x="295.45139972291844" y="248"/>
      <point x="416.2552473002118" y="251"/>
      <point x="447.71934891534954" y="249" type="curve" smooth="yes"/>
      <point x="470.45139972291844" y="248"/>
      <point x="482.03985699103833" y="239"/>
      <point x="471.58983848622455" y="200" type="curve" smooth="yes"/>
      <point x="460.6039215965485" y="159"/>
      <point x="441.99622644196177" y="153"/>
      <point x="406.72827724953066" y="152" type="curve" smooth="yes"/>
      <point x="359.4603280570995" y="151"/>
      <point x="265.72827724953066" y="152"/>
      <point x="228.46032805709953" y="151" type="curve" smooth="yes"/>
      <point x="197.46032805709953" y="151"/>
      <point x="78.1923788646684" y="150"/>
      <point x="60.996226441961774" y="153" type="curve" smooth="yes"/>
      <point x="34.06802321168626" y="157"/>
      <point x="25.94366755870412" y="164"/>
    </contour>
  </outline>
</glyph>
<glyph name="question" format="2">
  <advance width="500"/>
  <unicode hex="003F"/>
  <outline>
    <contour>
      <point x="237.37067461901285" y="341" type="curve" smooth="yes"/>
      <point x="258.5860649281863" y="353"/>
      <point x="302.5860649281863" y="353"/>
      <point x="319.3899125054797" y="356" type="curve" smooth="yes"/>
      <point x="362.2655568524975" y="363"/>
      <point x="405.08864231625773" y="381"/>
      <point x="425.70149224698736" y="443" type="curve" smooth="yes"/>
      <point x="449.4579357171659" y="513"/>
      <point x="411.869478449046" y="522"/>
      <point x="352.6733260263394" y="525" type="curve" smooth="yes"/>
      <point x="283.7451227960639" y="529"/>
      <point x="252.45793571716595" y="513"/>
      <point x="236.31434217771695" y="505" type="curve" smooth="yes"/>
      <point x="220.17074863826798" y="497"/>
      <point x="208.41945994423227" y="483"/>
      <point x="188.07971398207664" y="478" type="curve" smooth="yes"/>
      <point x="175.2758664047833" y="475"/>
      <point x="158.41945994423227" y="483"/>
      <point x="151.97459621556135" y="500" type="curve" smooth="yes"/>
      <point x="140.7451227960639" y="529"/>
      <point x="170.17590341441084" y="553"/>
      <point x="209.60668403275778" y="577" type="curve" smooth="yes"/>
      <point x="237.429769496518" y="595"/>
      <point x="297.0567025375716" y="616"/>
      <point x="380.98490576784707" y="612" type="curve" smooth="yes"/>
      <point x="514.1092614208292" y="605"/>
      <point x="546.5489703733573" y="532"/>
      <point x="517.3617462848317" y="438" type="curve" smooth="yes"/>
      <point x="493.46170927520416" y="360"/>
      <point x="429.2604020763547" y="307"/>
      <point x="390.7052658050256" y="290" type="curve" smooth="yes"/>
      <point x="354.41807872612765" y="274"/>
      <point x="332.6142311488343" y="271"/>
      <point x="307.8103835715409" y="268" type="curve"/>
      <point x="304.45139972291844" y="248"/>
      <point x="303.9155013380562" y="246"/>
      <point x="299.89626345158933" y="231" type="curve" smooth="yes"/>
      <point x="285.03470221489545" y="183"/>
      <point x="276.62315948301534" y="174"/>
      <point x="239.35521029058424" y="173" type="curve" smooth="yes"/>
      <point x="196.0872610981531" y="172"/>
      <point x="204.92958444838015" y="205"/>
      <point x="207.3603650667271" y="229" type="curve" smooth="yes"/>
      <point x="208.91550133805617" y="246"/>
      <point x="213.9732149974567" y="291"/>
      <point x="213.9732149974567" y="291" type="curve" smooth="yes"/>
      <point x="220.08348754011487" y="325"/>
      <point x="226.49503027199498" y="334"/>
    </contour>
    <component base="period"/>
  </outline>
</glyph>
<glyph name="at" format="2">
  <advance width="500"/>
  <unicode hex="0040"/>
  <outline>
    <contour>
      <point x="316.31673451765056" y="143" type="curve" smooth="yes"/>
      <point x="291.28341352085977" y="169"/>
      <point x="317.99245288392353" y="306"/>
      <point x="337.82069312382663" y="380" type="curve"/>
      <point x="265.08864231625773" y="381"/>
      <point x="249.13604642337253" y="314"/>
      <point x="238.078332763972" y="269" type="curve" smooth="yes"/>
      <point x="228.16421264402047" y="232"/>
      <point x="235.73343202567352" y="208"/>
      <point x="262.73343202567355" y="208" type="curve" smooth="yes"/>
      <point x="288.73343202567355" y="208"/>
      <point x="305.8437045683317" y="242"/>
      <point x="320.3129609596123" y="296" type="curve"/>
      <point x="354.6090763726914" y="215" type="line"/>
      <point x="318.90519178577046" y="134"/>
      <point x="250.35005551444135" y="117"/>
      <point x="218.15390309173472" y="120" type="curve" smooth="yes"/>
      <point x="184.9577506690281" y="123"/>
      <point x="136.46032805709953" y="151"/>
      <point x="173.16936742016333" y="288" type="curve" smooth="yes"/>
      <point x="194.87325200708426" y="369"/>
      <point x="229.46686405134705" y="416"/>
      <point x="293.897644669694" y="440" type="curve" smooth="yes"/>
      <point x="339.4527809410231" y="457"/>
      <point x="372.84508578643636" y="451"/>
      <point x="387.3091874015741" y="449" type="curve" smooth="yes"/>
      <point x="406.77328901671183" y="447"/>
      <point x="423.0937970924006" y="437"/>
      <point x="419.5386608210715" y="420" type="curve" smooth="yes"/>
      <point x="410.82069312382663" y="380"/>
      <point x="404.78221735089295" y="350"/>
      <point x="393.5283512687858" y="308" type="curve" smooth="yes"/>
      <point x="374.50395860617607" y="237"/>
      <point x="362.805228795398" y="212"/>
      <point x="375.805228795398" y="212" type="curve" smooth="yes"/>
      <point x="388.805228795398" y="212"/>
      <point x="386.48472071970923" y="222"/>
      <point x="402.4898754958521" y="278" type="curve" smooth="yes"/>
      <point x="434.3040326254312" y="393"/>
      <point x="484.7451227960639" y="529"/>
      <point x="365.013071988495" y="530" type="curve" smooth="yes"/>
      <point x="255.28102118092616" y="531"/>
      <point x="183.95020355295162" y="429"/>
      <point x="143.58091015204343" y="297" type="curve" smooth="yes"/>
      <point x="117.53727960296689" y="211"/>
      <point x="110.6039215965485" y="159"/>
      <point x="124.42185228416585" y="121" type="curve" smooth="yes"/>
      <point x="152.05771365940052" y="45"/>
      <point x="277.84747812636994" y="89"/>
      <point x="281.84747812636994" y="89" type="curve" smooth="yes"/>
      <point x="299.6513257036633" y="92"/>
      <point x="313.48849427774746" y="69"/>
      <point x="303.3064249653648" y="31" type="curve" smooth="yes"/>
      <point x="293.12435565298216" y="-7"/>
      <point x="274.5884572681199" y="-9"/>
      <point x="263.05255888325763" y="-11" type="curve" smooth="yes"/>
      <point x="203.90896534380866" y="-19"/>
      <point x="78.83716857408417" y="-23"/>
      <point x="44.14874831559185" y="64" type="curve" smooth="yes"/>
      <point x="23.350055514441355" y="117"/>
      <point x="38.230854637602086" y="180"/>
      <point x="67.97321499745671" y="291" type="curve" smooth="yes"/>
      <point x="110.38098417129858" y="453"/>
      <point x="164.79768167932156" y="518"/>
      <point x="221.1233445311532" y="564" type="curve" smooth="yes"/>
      <point x="272.37721061326033" y="606"/>
      <point x="321.86055011486496" y="619"/>
      <point x="394.0567025375716" y="616" type="curve" smooth="yes"/>
      <point x="482.98490576784707" y="612"/>
      <point x="508.4630904933088" y="569"/>
      <point x="516.9027994458369" y="496" type="curve" smooth="yes"/>
      <point x="521.7732890167118" y="447"/>
      <point x="506.87325200708426" y="369"/>
      <point x="475.6142311488343" y="271" type="curve" smooth="yes"/>
      <point x="453.3936860635179" y="203"/>
      <point x="435.17314097820156" y="135"/>
      <point x="386.49364905389035" y="125" type="curve" smooth="yes"/>
      <point x="365.4218522841658" y="121"/>
      <point x="335.4218522841658" y="121"/>
    </contour>
  </outline>
</glyph>
<glyph name="A" format="2">
  <advance width="500"/>
  <unicode hex="0041"/>
  <anchor x="379.7695154586736" y="600" name="top"/>
  <anchor x="44.85640646055102" y="-8" name="cedilla"/>
  <anchor x="349.856406460551" y="-8" name="ogonek"/>
  <anchor x="200.0" y="0" name="bottom"/>
  <outline>
    <contour>
      <point x="44.85640646055102" y="-8" type="curve" smooth="yes"/>
      <point x="21.85640646055102" y="-8"/>
      <point x="-1.392304845413264" y="6"/>
      <point x="10.129510429125013" y="49" type="curve" smooth="yes"/>
      <point x="79.92065611419905" y="302"/>
      <point x="159.8258478999695" y="436"/>
      <point x="228.9938341020282" y="515" type="curve" smooth="yes"/>
      <point x="285.9464299949134" y="582"/>
      <point x="334.1810581905537" y="609"/>
      <point x="380.1810581905537" y="609" type="curve" smooth="yes"/>
      <point x="431.9131089981226" y="608"/>
      <point x="462.5541251495001" y="588"/>
      <point x="475.2284622976685" y="542" type="curve" smooth="yes"/>
      <point x="492.6156123669389" y="480"/>
      <point x="484.42838827841337" y="386"/>
      <point x="451.661635255949" y="204" type="curve" smooth="yes"/>
      <point x="440.3692934009082" y="132"/>
      <point x="425.75644347017857" y="70"/>
      <point x="418.25386608210715" y="42" type="curve" smooth="yes"/>
      <point x="411.01923788646684" y="15"/>
      <point x="376.856406460551" y="-8"/>
      <point x="349.856406460551" y="-8" type="curve" smooth="yes"/>
      <point x="332.856406460551" y="-8"/>
      <point x="306.8230854637602" y="18"/>
      <point x="314.52181527453826" y="43" type="curve" smooth="yes"/>
      <point x="329.7231224733878" y="96"/>
      <point x="359.0539401013623" y="198"/>
      <point x="380.69118269470164" y="331" type="curve" smooth="yes"/>
      <point x="394.6630164740537" y="413"/>
      <point x="424" y="508"/>
      <point x="362" y="508" type="curve" smooth="yes"/>
      <point x="303" y="508"/>
      <point x="242.66301647405368" y="413"/>
      <point x="206.6911826947016" y="331" type="curve" smooth="yes"/>
      <point x="171.98729810778067" y="250"/>
      <point x="141.47956594356637" y="166"/>
      <point x="108.84232335022705" y="33" type="curve" smooth="yes"/>
      <point x="103.4833395016046" y="13"/>
      <point x="58.85640646055102" y="-8"/>
    </contour>
    <contour>
      <point x="427.0116907703904" y="321" type="curve"/>
      <point x="403.89626345158933" y="231" type="line"/>
      <point x="310.89626345158933" y="231"/>
      <point x="178.48472071970923" y="222"/>
      <point x="119.89626345158933" y="231" type="curve"/>
      <point x="153.2796399628215" y="322" type="line"/>
      <point x="237.13604642337253" y="314"/>
      <point x="345.0116907703904" y="321"/>
    </contour>
  </outline>
</glyph>
<glyph name="B" format="2">
  <advance width="500"/>
  <unicode hex="0042"/>
  <anchor x="331.7695154586736" y="600" name="top"/>
  <anchor x="147.78460969082653" y="-12" name="cedilla"/>
  <anchor x="147.78460969082653" y="-12" name="ogonek"/>
  <anchor x="171.0" y="0" name="bottom"/>
  <outline>
    <contour>
      <point x="45.469256391280624" y="54" type="curve" smooth="yes"/>
      <point x="29.70903936306381" y="137"/>
      <point x="135.754051130245" y="432"/>
      <point x="157.17074863826798" y="497" type="curve" smooth="yes"/>
      <point x="191.23361707381136" y="598"/>
      <point x="250.23313981276027" y="608"/>
      <point x="334.9131089981226" y="608" type="curve" smooth="yes"/>
      <point x="483.9131089981226" y="608"/>
      <point x="531.5489703733573" y="532"/>
      <point x="514.4002220577654" y="468" type="curve" smooth="yes"/>
      <point x="495.91172778001794" y="399"/>
      <point x="430.92581089034195" y="358"/>
      <point x="373.95913188713274" y="332" type="curve" smooth="yes"/>
      <point x="342.47579238552817" y="319"/>
      <point x="274.078332763972" y="269"/>
      <point x="221.078332763972" y="269" type="curve" smooth="yes"/>
      <point x="205.078332763972" y="269"/>
      <point x="169.078332763972" y="269"/>
      <point x="166.078332763972" y="269" type="curve"/>
      <point x="190.19376008277305" y="359" type="line"/>
      <point x="318.3181157357552" y="352"/>
      <point x="406.87840678322715" y="425"/>
      <point x="416.79252690317867" y="462" type="curve" smooth="yes"/>
      <point x="427.24254540799245" y="501"/>
      <point x="377.52973248689045" y="517"/>
      <point x="315.52973248689045" y="517" type="curve" smooth="yes"/>
      <point x="278.52973248689045" y="517"/>
      <point x="253.58229137014808" y="506"/>
      <point x="243.22330752152564" y="486" type="curve" smooth="yes"/>
      <point x="225.5771365940052" y="450"/>
      <point x="141.0154643284286" y="168"/>
      <point x="142.76159824632146" y="126" type="curve" smooth="yes"/>
      <point x="144.18722408852554" y="94"/>
      <point x="160.3315806856902" y="93"/>
      <point x="194.9192748960944" y="93" type="curve" smooth="yes"/>
      <point x="269.9192748960944" y="93"/>
      <point x="342.35005551444135" y="117"/>
      <point x="360.5706005997577" y="185" type="curve" smooth="yes"/>
      <point x="376.1116537607628" y="243"/>
      <point x="341.078332763972" y="269"/>
      <point x="221.078332763972" y="269" type="curve"/>
      <point x="374.7104205811685" y="346" type="line"/>
      <point x="464.88733511740827" y="328"/>
      <point x="480.45139972291844" y="248"/>
      <point x="462.49880383003324" y="181" type="curve" smooth="yes"/>
      <point x="419.8948822334847" y="22"/>
      <point x="253.98076211353316" y="-15"/>
      <point x="147.78460969082653" y="-12" type="curve" smooth="yes"/>
      <point x="86.32050807568876" y="-10"/>
      <point x="56.0350069917769" y="0.18550588198073825"/>
    </contour>
  </outline>
</glyph>
<glyph name="C" format="2">
  <advance width="500"/>
  <unicode hex="0043"/>
  <anchor x="376.7695154586736" y="600" name="top"/>
  <anchor x="213.05255888325766" y="-11" name="cedilla"/>
  <anchor x="213.05255888325766" y="-11" name="ogonek"/>
  <anchor x="200.0" y="0" name="bottom"/>
  <outline>
    <contour>
      <point x="472.57198181786237" y="394" type="curve" smooth="yes"/>
      <point x="439.57198181786237" y="394"/>
      <point x="426.05532131946694" y="407"/>
      <point x="429.14635597565825" y="426" type="curve" smooth="yes"/>
      <point x="437.2040696350588" y="471"/>
      <point x="410.79768167932156" y="518"/>
      <point x="354.79768167932156" y="518" type="curve" smooth="yes"/>
      <point x="291.79768167932156" y="518"/>
      <point x="219.7207301334542" y="458"/>
      <point x="174.7052658050256" y="290" type="curve" smooth="yes"/>
      <point x="131.56544582361482" y="129"/>
      <point x="201.72312247338778" y="96"/>
      <point x="233.72312247338778" y="96" type="curve" smooth="yes"/>
      <point x="297.7231224733878" y="96"/>
      <point x="341.44109017063266" y="136"/>
      <point x="355.28341352085977" y="169" type="curve" smooth="yes"/>
      <point x="365.44624494677555" y="192"/>
      <point x="384.1257368710868" y="202"/>
      <point x="427.1257368710868" y="202" type="curve" smooth="yes"/>
      <point x="470.1257368710868" y="202"/>
      <point x="454.3359724041174" y="158"/>
      <point x="442.49364905389035" y="125" type="curve" smooth="yes"/>
      <point x="426.0961894323342" y="75"/>
      <point x="332.05255888325763" y="-11"/>
      <point x="213.05255888325766" y="-11" type="curve" smooth="yes"/>
      <point x="76.05255888325766" y="-11"/>
      <point x="17.90003700962757" y="78"/>
      <point x="72.5616722655766" y="282" type="curve" smooth="yes"/>
      <point x="113.82584789996949" y="436"/>
      <point x="195.71695657541596" y="611"/>
      <point x="378.71695657541596" y="611" type="curve" smooth="yes"/>
      <point x="561.7169565754159" y="611"/>
      <point x="542.0797139820767" y="478"/>
      <point x="536.9886793258853" y="459" type="curve" smooth="yes"/>
      <point x="531.0937970924006" y="437"/>
      <point x="516.5719818178624" y="394"/>
    </contour>
  </outline>
</glyph>
<glyph name="D" format="2">
  <advance width="500"/>
  <unicode hex="0044"/>
  <anchor x="294.7695154586736" y="600" name="top"/>
  <anchor x="111.85640646055103" y="-8" name="cedilla"/>
  <anchor x="111.85640646055103" y="-8" name="ogonek"/>
  <anchor x="130.0" y="0" name="bottom"/>
  <outline>
    <contour>
      <point x="31.535898384862243" y="2" type="curve" smooth="yes"/>
      <point x="10.679491924311229" y="10"/>
      <point x="9.306424965364805" y="31"/>
      <point x="21.02439266260971" y="71" type="curve" smooth="yes"/>
      <point x="32.742360359854615" y="111"/>
      <point x="66.55651748943373" y="226"/>
      <point x="94.63862381144396" y="342" type="curve" smooth="yes"/>
      <point x="108.57198181786234" y="394"/>
      <point x="130.68740913666338" y="484"/>
      <point x="141.01307198849503" y="530" type="curve" smooth="yes"/>
      <point x="149.07078564789555" y="575"/>
      <point x="164.55412514950015" y="588"/>
      <point x="179.1618203040869" y="594" type="curve" smooth="yes"/>
      <point x="196.03746465110473" y="601"/>
      <point x="232.18105819055373" y="609"/>
      <point x="292.1810581905537" y="609" type="curve" smooth="yes"/>
      <point x="485.1810581905537" y="609"/>
      <point x="527.7732890167118" y="447"/>
      <point x="491.86809723094143" y="313" type="curve" smooth="yes"/>
      <point x="444.6372425933393" y="133"/>
      <point x="292.5884572681199" y="-9"/>
      <point x="111.85640646055103" y="-8" type="curve" smooth="yes"/>
      <point x="83.85640646055103" y="-8"/>
      <point x="55.12435565298214" y="-7"/>
    </contour>
    <contour>
      <point x="134.93851278256125" y="108" type="curve" smooth="yes"/>
      <point x="135.0628684355434" y="101"/>
      <point x="156.52697005068114" y="99"/>
      <point x="164.52697005068114" y="99" type="curve" smooth="yes"/>
      <point x="273.9910716658189" y="97"/>
      <point x="365.6090763726914" y="215"/>
      <point x="391.86809723094143" y="313" type="curve" smooth="yes"/>
      <point x="418" y="410"/>
      <point x="375" y="510"/>
      <point x="302" y="510" type="curve" smooth="yes"/>
      <point x="279" y="510"/>
      <point x="263" y="507"/>
      <point x="240.77844379285472" y="503" type="curve" smooth="yes"/>
      <point x="233.51049460042358" y="502"/>
      <point x="230.63485025340574" y="495"/>
      <point x="227.6156123669389" y="480" type="curve" smooth="yes"/>
      <point x="217.28994951510725" y="434"/>
      <point x="212.4476261648802" y="401"/>
      <point x="179.75782468828322" y="279" type="curve" smooth="yes"/>
      <point x="174.63950149920572" y="259.89815780880474"/>
      <point x="133.88595389930362" y="119"/>
    </contour>
  </outline>
</glyph>
<glyph name="E" format="2">
  <advance width="500"/>
  <unicode hex="0045"/>
  <anchor x="360.7695154586736" y="600" name="top"/>
  <anchor x="200.80384757729337" y="3" name="cedilla"/>
  <anchor x="348.53589838486226" y="2" name="ogonek"/>
  <anchor x="200.0" y="0" name="bottom"/>
  <outline>
    <contour>
      <point x="187.76951545867362" y="600" type="curve" smooth="yes"/>
      <point x="213.37721061326036" y="606"/>
      <point x="309.5015662662425" y="599"/>
      <point x="391.2336170738114" y="598" type="curve" smooth="yes"/>
      <point x="516.9656678813802" y="597"/>
      <point x="523.7695154586736" y="600"/>
      <point x="544.9656678813802" y="597" type="curve" smooth="yes"/>
      <point x="567.8938711116557" y="593"/>
      <point x="562.7835985689976" y="559"/>
      <point x="562.9079542219797" y="552" type="curve" smooth="yes"/>
      <point x="562.5489703733573" y="532"/>
      <point x="535.1707486382679" y="497"/>
      <point x="506.9027994458369" y="496" type="curve" smooth="yes"/>
      <point x="396.027155098819" y="489"/>
      <point x="338.70664702313024" y="499"/>
      <point x="231.70664702313022" y="499" type="curve"/>
      <point x="195.53350604492866" y="364"/>
      <point x="162.2184897859924" y="239.6666666666667"/>
      <point x="126.13466520526788" y="105" type="curve"/>
      <point x="222.57693504398986" y="105"/>
      <point x="320.86862380972207" y="113.08125999454386"/>
      <point x="415.67056359013014" y="107" type="curve" smooth="yes"/>
      <point x="443.402614397699" y="106"/>
      <point x="452.56029104747194" y="73"/>
      <point x="440.8615612366939" y="48" type="curve" smooth="yes"/>
      <point x="436.98591688967605" y="41"/>
      <point x="423.60769515458674" y="6"/>
      <point x="398.80384757729337" y="3" type="curve" smooth="yes"/>
      <point x="376.7320508075689" y="-1"/>
      <point x="364.80384757729337" y="3"/>
      <point x="238.80384757729337" y="3" type="curve" smooth="yes"/>
      <point x="170.80384757729337" y="3"/>
      <point x="100.46410161513776" y="-2"/>
      <point x="32.46410161513776" y="-2" type="curve" smooth="yes"/>
      <point x="6.464101615137757" y="-2"/>
      <point x="8.842323350227048" y="33"/>
      <point x="19.02439266260971" y="71" type="curve" smooth="yes"/>
      <point x="30.278258744716865" y="113"/>
      <point x="62.09241587429597" y="228"/>
      <point x="93.44247138873733" y="345" type="curve" smooth="yes"/>
      <point x="141.4053768339083" y="524"/>
      <point x="140.20922441120166" y="527"/>
      <point x="151.51564937656647" y="558" type="curve" smooth="yes"/>
      <point x="158.02148164128639" y="574.2125979752697"/>
      <point x="168.429769496518" y="595"/>
    </contour>
    <contour>
      <point x="374.8347762341506" y="339" type="curve" smooth="yes"/>
      <point x="370.40399561580364" y="315"/>
      <point x="347.2937230731455" y="281"/>
      <point x="322.0257738807144" y="280" type="curve" smooth="yes"/>
      <point x="254.1501295336965" y="273"/>
      <point x="211.5616722655766" y="282"/>
      <point x="141.2937230731455" y="281" type="curve"/>
      <point x="167.5527439313955" y="379" type="line"/>
      <point x="174.16043908598223" y="385"/>
      <point x="195.28479473896437" y="378"/>
      <point x="243.28479473896437" y="378" type="curve" smooth="yes"/>
      <point x="321.28479473896437" y="378"/>
      <point x="343.01684554653326" y="377"/>
      <point x="354.74889635410216" y="376" type="curve" smooth="yes"/>
      <point x="377.67709958437763" y="372"/>
      <point x="375.4424713887373" y="345"/>
    </contour>
  </outline>
</glyph>
<glyph name="F" format="2">
  <advance width="500"/>
  <unicode hex="0046"/>
  <anchor x="360.7695154586736" y="600" name="top"/>
  <anchor x="51.85640646055102" y="-8" name="cedilla"/>
  <anchor x="51.85640646055102" y="-8" name="ogonek"/>
  <anchor x="200.0" y="0" name="bottom"/>
  <outline>
    <contour>
      <point x="189.5015662662425" y="599" type="curve" smooth="yes"/>
      <point x="228.8413122283981" y="604"/>
      <point x="311.2336170738114" y="598"/>
      <point x="394.5015662662425" y="599" type="curve" smooth="yes"/>
      <point x="521.0374646511048" y="601"/>
      <point x="523.0374646511048" y="601"/>
      <point x="543.9656678813802" y="597" type="curve" smooth="yes"/>
      <point x="567.1618203040869" y="594"/>
      <point x="561.7835985689976" y="559"/>
      <point x="561.9079542219797" y="552" type="curve" smooth="yes"/>
      <point x="561.5489703733573" y="532"/>
      <point x="534.1707486382679" y="497"/>
      <point x="505.9027994458369" y="496" type="curve" smooth="yes"/>
      <point x="395.027155098819" y="489"/>
      <point x="341.0989518685435" y="493"/>
      <point x="233.09895186854348" y="493" type="curve"/>
      <point x="191.90657300387508" y="343"/>
      <point x="150.82819682014113" y="215.7174450552741"/>
      <point x="118.6846467004541" y="66" type="curve" smooth="yes"/>
      <point x="110.23462819564031" y="27"/>
      <point x="93.85640646055103" y="-8"/>
      <point x="51.85640646055102" y="-8" type="curve" smooth="yes"/>
      <point x="5.856406460551021" y="-8"/>
      <point x="8.234628195640312" y="27"/>
      <point x="18.416697508022978" y="65" type="curve" smooth="yes"/>
      <point x="29.67056359013013" y="107"/>
      <point x="63.09241587429597" y="228"/>
      <point x="94.71042058116845" y="346" type="curve" smooth="yes"/>
      <point x="142.4053768339083" y="524"/>
      <point x="140.94127521877053" y="526"/>
      <point x="152.24770018413534" y="557" type="curve" smooth="yes"/>
      <point x="158.64818282062322" y="573.5989233963297"/>
      <point x="169.69771868894912" y="596"/>
    </contour>
    <contour>
      <point x="419.18860530663017" y="303" type="curve" smooth="yes"/>
      <point x="415.1693674201633" y="288"/>
      <point x="388.2552473002118" y="251"/>
      <point x="358.9872981077807" y="250" type="curve" smooth="yes"/>
      <point x="292.37960295319397" y="244"/>
      <point x="215.1834505304873" y="247"/>
      <point x="144.91550133805617" y="246" type="curve"/>
      <point x="173.05016654332405" y="351" type="line"/>
      <point x="179.38991250547969" y="356"/>
      <point x="196.24631896603069" y="348"/>
      <point x="244.78221735089295" y="350" type="curve" smooth="yes"/>
      <point x="344.1219633130486" y="355"/>
      <point x="385.3181157357552" y="352"/>
      <point x="397.05016654332405" y="351" type="curve" smooth="yes"/>
      <point x="422.9783697735996" y="347"/>
      <point x="421.06424965364806" y="310"/>
    </contour>
  </outline>
</glyph>
<glyph name="G" format="2">
  <advance width="500"/>
  <unicode hex="0047"/>
  <anchor x="394.7695154586736" y="600" name="top"/>
  <anchor x="221.39230484541326" y="-6" name="cedilla"/>
  <anchor x="221.39230484541326" y="-6" name="ogonek"/>
  <anchor x="223.0" y="0" name="bottom"/>
  <outline>
    <contour>
      <point x="502.897644669694" y="440" type="curve" smooth="yes"/>
      <point x="478.02200032267615" y="433"/>
      <point x="457.754051130245" y="432"/>
      <point x="452.4527809410231" y="457" type="curve" smooth="yes"/>
      <point x="435.9027994458369" y="496"/>
      <point x="433.5822913701481" y="506"/>
      <point x="371.5822913701481" y="506" type="curve" smooth="yes"/>
      <point x="283.5822913701481" y="506"/>
      <point x="210.48610193781388" y="431"/>
      <point x="182.08348754011487" y="325" type="curve" smooth="yes"/>
      <point x="128.22569986145922" y="124"/>
      <point x="162.45517328095667" y="95"/>
      <point x="230.45517328095667" y="95" type="curve" smooth="yes"/>
      <point x="307.45517328095667" y="95"/>
      <point x="338.35005551444135" y="117"/>
      <point x="370.23600941374497" y="236" type="curve"/>
      <point x="334.03985699103833" y="239"/>
      <point x="300.50395860617607" y="237"/>
      <point x="290.50395860617607" y="237" type="curve" smooth="yes"/>
      <point x="264.77190779860723" y="238"/>
      <point x="264.8103835715409" y="268"/>
      <point x="269.36551984286996" y="285" type="curve" smooth="yes"/>
      <point x="279.27963996282153" y="322"/>
      <point x="297.0309286568572" y="336"/>
      <point x="322.5668270417195" y="338" type="curve" smooth="yes"/>
      <point x="349.10272542658174" y="340"/>
      <point x="401.7629794644261" y="335"/>
      <point x="464.0309286568572" y="336" type="curve" smooth="yes"/>
      <point x="492.0309286568572" y="336"/>
      <point x="491.6719448082348" y="316"/>
      <point x="480.41807872612765" y="274" type="curve" smooth="yes"/>
      <point x="433.79491924311225" y="100"/>
      <point x="372.39230484541326" y="-6"/>
      <point x="221.39230484541326" y="-6" type="curve" smooth="yes"/>
      <point x="67.39230484541326" y="-6"/>
      <point x="12.560291047471956" y="73"/>
      <point x="77.67194480823477" y="316" type="curve" smooth="yes"/>
      <point x="128.04639298528585" y="504"/>
      <point x="285.9131089981226" y="608"/>
      <point x="398.9131089981226" y="608" type="curve" smooth="yes"/>
      <point x="528.9131089981227" y="608"/>
      <point x="535.4053768339083" y="524"/>
      <point x="538.1181897550103" y="508" type="curve" smooth="yes"/>
      <point x="540.1515107518012" y="482"/>
      <point x="530.7732890167118" y="447"/>
    </contour>
  </outline>
</glyph>
<glyph name="H" format="2">
  <advance width="500"/>
  <unicode hex="0048"/>
  <anchor x="360.7695154586736" y="600" name="top"/>
  <anchor x="43.12435565298214" y="-7" name="cedilla"/>
  <anchor x="353.12435565298216" y="-7" name="ogonek"/>
  <anchor x="200.0" y="0" name="bottom"/>
  <outline>
    <contour>
      <point x="140.71934891534954" y="249" type="curve"/>
      <point x="164.63862381144395" y="342" type="line"/>
      <point x="259.37067461901285" y="341"/>
      <point x="340.3181157357552" y="352"/>
      <point x="423.63862381144395" y="342" type="curve"/>
      <point x="393.2552473002118" y="251" type="line"/>
      <point x="313.2026884169542" y="262"/>
      <point x="236.71934891534954" y="249"/>
    </contour>
    <contour>
      <point x="207.10926142082923" y="605" type="curve" smooth="yes"/>
      <point x="247.37721061326036" y="606"/>
      <point x="256.4105316100512" y="580"/>
      <point x="249.51564937656647" y="558" type="curve" smooth="yes"/>
      <point x="244.96051310523737" y="541"/>
      <point x="211.32327051189804" y="408"/>
      <point x="174.95397711098985" y="276" type="curve" smooth="yes"/>
      <point x="160.48472071970923" y="222"/>
      <point x="133.83339501604596" y="130"/>
      <point x="119.36413862476533" y="76" type="curve" smooth="yes"/>
      <point x="106.77052658050256" y="29"/>
      <point x="96.12435565298213" y="-7"/>
      <point x="43.12435565298214" y="-7" type="curve" smooth="yes"/>
      <point x="9.124355652982139" y="-7"/>
      <point x="1.7705265805025618" y="29"/>
      <point x="16.75644347017859" y="70" type="curve" smooth="yes"/>
      <point x="30.74236035985462" y="111"/>
      <point x="58.3603650667271" y="229"/>
      <point x="91.71042058116845" y="346" type="curve" smooth="yes"/>
      <point x="140.72588490959706" y="514"/>
      <point x="139.54897037335726" y="532"/>
      <point x="150.85539533872208" y="563" type="curve" smooth="yes"/>
      <point x="163.69771868894912" y="596"/>
      <point x="183.8413122283981" y="604"/>
    </contour>
    <contour>
      <point x="517.1092614208292" y="605" type="curve" smooth="yes"/>
      <point x="542.1092614208292" y="605"/>
      <point x="555.6977186889492" y="596"/>
      <point x="550.855395338722" y="563" type="curve" smooth="yes"/>
      <point x="545.5489703733573" y="532"/>
      <point x="544.6733260263394" y="525"/>
      <point x="493.7104205811685" y="346" type="curve" smooth="yes"/>
      <point x="458.2167715272781" y="221"/>
      <point x="428.7423603598546" y="111"/>
      <point x="420.75644347017857" y="70" type="curve" smooth="yes"/>
      <point x="413.7705265805026" y="29"/>
      <point x="392.12435565298216" y="-7"/>
      <point x="353.12435565298216" y="-7" type="curve" smooth="yes"/>
      <point x="296.12435565298216" y="-7"/>
      <point x="307.7705265805026" y="29"/>
      <point x="321.3641386247653" y="76" type="curve" smooth="yes"/>
      <point x="322.97183377935204" y="82"/>
      <point x="357.48472071970923" y="222"/>
      <point x="372.95397711098985" y="276" type="curve" smooth="yes"/>
      <point x="407.83993101029347" y="395"/>
      <point x="444.9605131052374" y="541"/>
      <point x="449.51564937656644" y="558" type="curve" smooth="yes"/>
      <point x="454.4105316100512" y="580"/>
      <point x="481.1092614208292" y="605"/>
    </contour>
  </outline>
</glyph>
<glyph name="I" format="2">
  <advance width="500"/>
  <unicode hex="0049"/>
  <anchor x="360.7695154586736" y="600" name="top"/>
  <anchor x="200.0" y="0" name="cedilla"/>
  <anchor x="200.0" y="0" name="ogonek"/>
  <anchor x="200.0" y="0" name="bottom"/>
  <outline>
    <contour>
      <point x="389.94127521877056" y="526" type="line"/>
      <point x="369.18483174859193" y="456"/>
      <point x="378.41945994423224" y="483"/>
      <point x="332.60014803851027" y="312" type="curve" smooth="yes"/>
      <point x="311.1642126440205" y="232"/>
      <point x="290.72827724953066" y="152"/>
      <point x="271.97183377935204" y="82" type="curve"/>
      <point x="170.2397829717832" y="83" type="line"/>
      <point x="169.1679862020587" y="79"/>
      <point x="215.5231964926429" y="252"/>
      <point x="226.9732149974567" y="291" type="curve" smooth="yes"/>
      <point x="220.81038357154088" y="268"/>
      <point x="287.52973248689045" y="517"/>
      <point x="288.6015292566149" y="521" type="curve"/>
    </contour>
    <contour>
      <point x="174.7118017992731" y="555" type="curve" smooth="yes"/>
      <point x="180.33873484032668" y="576"/>
      <point x="196.23361707381136" y="598"/>
      <point x="226.76951545867362" y="600" type="curve" smooth="yes"/>
      <point x="279.03746465110476" y="601"/>
      <point x="322.7695154586736" y="600"/>
      <point x="345.7695154586736" y="600" type="curve" smooth="yes"/>
      <point x="399.2336170738114" y="598"/>
      <point x="442.57336303596696" y="603"/>
      <point x="495.7695154586736" y="600" type="curve" smooth="yes"/>
      <point x="519.2336170738114" y="598"/>
      <point x="529.6784808024822" y="581"/>
      <point x="521.9079542219797" y="552" type="curve" smooth="yes"/>
      <point x="515.4771736036328" y="528"/>
      <point x="491.5104946004236" y="502"/>
      <point x="459.5104946004236" y="502" type="curve" smooth="yes"/>
      <point x="411.5104946004236" y="502"/>
      <point x="360.314342177717" y="505"/>
      <point x="322.5104946004236" y="502" type="curve" smooth="yes"/>
      <point x="281.70664702313024" y="499"/>
      <point x="217.97459621556135" y="500"/>
      <point x="201.31434217771695" y="505" type="curve" smooth="yes"/>
      <point x="169.11818975501032" y="508"/>
      <point x="167.4771736036328" y="528"/>
    </contour>
    <contour>
      <point x="37.7897644669694" y="44" type="curve" smooth="yes"/>
      <point x="46.0961894323342" y="75"/>
      <point x="68.91927489609441" y="93"/>
      <point x="98.25902085825003" y="98" type="curve" smooth="yes"/>
      <point x="121.0628684355434" y="101"/>
      <point x="174.25902085825004" y="98"/>
      <point x="215.0628684355434" y="101" type="curve" smooth="yes"/>
      <point x="253.13466520526788" y="105"/>
      <point x="304.0628684355434" y="101"/>
      <point x="351.79491924311225" y="100" type="curve" smooth="yes"/>
      <point x="383.25902085825004" y="98"/>
      <point x="393.0243926626097" y="71"/>
      <point x="387.129510429125" y="49" type="curve" smooth="yes"/>
      <point x="379.0910346561913" y="19"/>
      <point x="362.53589838486226" y="2"/>
      <point x="335.2679491924311" y="1" type="curve" smooth="yes"/>
      <point x="280.19615242270663" y="-3"/>
      <point x="239.53589838486224" y="2"/>
      <point x="185.26794919243113" y="1" type="curve" smooth="yes"/>
      <point x="162.26794919243113" y="1"/>
      <point x="117.19615242270663" y="-3"/>
      <point x="66.26794919243113" y="1" type="curve" smooth="yes"/>
      <point x="34.53589838486224" y="2"/>
      <point x="30.01923788646684" y="15"/>
    </contour>
  </outline>
</glyph>
<glyph name="J" format="2">
  <advance width="500"/>
  <unicode hex="004A"/>
  <anchor x="427.7695154586736" y="600" name="top"/>
  <anchor x="190.05255888325766" y="-11" name="cedilla"/>
  <anchor x="190.05255888325766" y="-11" name="ogonek"/>
  <anchor x="195.0" y="0" name="bottom"/>
  <outline>
    <contour>
      <point x="294.24770018413534" y="557" type="curve" smooth="yes"/>
      <point x="300.8746332251889" y="578"/>
      <point x="316.5015662662425" y="599"/>
      <point x="346.5015662662425" y="599" type="curve" smooth="yes"/>
      <point x="355.5015662662425" y="599"/>
      <point x="399.5015662662425" y="599"/>
      <point x="411.2336170738114" y="598" type="curve" smooth="yes"/>
      <point x="442.429769496518" y="595"/>
      <point x="467.30541384353586" y="602"/>
      <point x="495.5015662662425" y="599" type="curve" smooth="yes"/>
      <point x="542.429769496518" y="595"/>
      <point x="556.6784808024822" y="581"/>
      <point x="546.1041066446863" y="549" type="curve" smooth="yes"/>
      <point x="514.5771365940052" y="450"/>
      <point x="495.96428666327563" y="388"/>
      <point x="465.0590948775052" y="254" type="curve" smooth="yes"/>
      <point x="440.1205820949439" y="146"/>
      <point x="331.05255888325763" y="-11"/>
      <point x="190.05255888325766" y="-11" type="curve" smooth="yes"/>
      <point x="100.05255888325766" y="-11"/>
      <point x="44.09103465619133" y="19"/>
      <point x="31.91927489609441" y="93" type="curve" smooth="yes"/>
      <point x="21.92442967223728" y="149"/>
      <point x="30.106498984619947" y="187"/>
      <point x="71.85778767865565" y="201" type="curve" smooth="yes"/>
      <point x="106" y="212"/>
      <point x="113" y="199"/>
      <point x="127" y="129" type="curve" smooth="yes"/>
      <point x="133" y="95"/>
      <point x="158" y="85"/>
      <point x="215" y="85" type="curve" smooth="yes"/>
      <point x="270" y="85"/>
      <point x="313" y="129"/>
      <point x="344.17829575434445" y="191" type="curve" smooth="yes"/>
      <point x="369.5757553759006" y="241"/>
      <point x="386.13604642337253" y="314"/>
      <point x="393.78221735089295" y="350" type="curve" smooth="yes"/>
      <point x="399.74889635410216" y="376"/>
      <point x="412.4861019378139" y="431"/>
      <point x="435.70664702313024" y="499" type="curve"/>
      <point x="413.4386978306991" y="498"/>
      <point x="370.4386978306991" y="498"/>
      <point x="319.5104946004236" y="502" type="curve" smooth="yes"/>
      <point x="287.314342177717" y="505"/>
      <point x="286.20922441120166" y="527"/>
    </contour>
  </outline>
</glyph>
<glyph name="K" format="2">
  <advance width="500"/>
  <unicode hex="004B"/>
  <anchor x="360.7695154586736" y="600" name="top"/>
  <anchor x="48.12435565298214" y="-7" name="cedilla"/>
  <anchor x="380.46410161513774" y="-2" name="ogonek"/>
  <anchor x="183.0" y="0" name="bottom"/>
  <outline>
    <contour>
      <point x="225.64515980569146" y="607" type="curve" smooth="yes"/>
      <point x="264.98490576784707" y="612"/>
      <point x="270.48232837977565" y="584"/>
      <point x="264.1233445311532" y="564" type="curve" smooth="yes"/>
      <point x="208.4476261648802" y="401"/>
      <point x="170.1116537607628" y="243"/>
      <point x="118.95259589288523" y="67" type="curve" smooth="yes"/>
      <point x="106.9666790032092" y="26"/>
      <point x="97.5884572681199" y="-9"/>
      <point x="48.12435565298214" y="-7" type="curve" smooth="yes"/>
      <point x="6.660254037844389" y="-5"/>
      <point x="8.03847577293368" y="30"/>
      <point x="22.220545085316342" y="68" type="curve" smooth="yes"/>
      <point x="44.10134420847707" y="131"/>
      <point x="72.7719077986072" y="238"/>
      <point x="101.44247138873733" y="345" type="curve" smooth="yes"/>
      <point x="124.21815274538275" y="430"/>
      <point x="147.26178329445932" y="516"/>
      <point x="170.65924291601544" y="566" type="curve" smooth="yes"/>
      <point x="184.69771868894912" y="596"/>
      <point x="203.8413122283981" y="604"/>
    </contour>
    <contour>
      <point x="546.8938711116557" y="593" type="curve" smooth="yes"/>
      <point x="568.4630904933088" y="569"/>
      <point x="562.9605131052374" y="541"/>
      <point x="538.869478449046" y="522" type="curve" smooth="yes"/>
      <point x="402.8591688967603" y="410"/>
      <point x="378.83993101029347" y="395"/>
      <point x="322.8540141206174" y="354" type="curve" smooth="yes"/>
      <point x="294.495030271995" y="334"/>
      <point x="266.6719448082348" y="316"/>
      <point x="131.948822334847" y="220" type="curve"/>
      <point x="155.29887784928835" y="337" type="line"/>
      <point x="183.12196331304855" y="355"/>
      <point x="207.1412011995154" y="370"/>
      <point x="313.84508578643636" y="451" type="curve" smooth="yes"/>
      <point x="412.94127521877056" y="526"/>
      <point x="445.17590341441087" y="553"/>
      <point x="482.6784808024823" y="581" type="curve" smooth="yes"/>
      <point x="504.9656678813802" y="597"/>
      <point x="530.7169565754159" y="611"/>
    </contour>
    <contour>
      <point x="432.84232335022705" y="33" type="curve" smooth="yes"/>
      <point x="428.43078061834694" y="24"/>
      <point x="412.46410161513774" y="-2"/>
      <point x="380.46410161513774" y="-2" type="curve" smooth="yes"/>
      <point x="333.46410161513774" y="-2"/>
      <point x="322.87564434701784" y="7"/>
      <point x="303.3782217350893" y="35" type="curve" smooth="yes"/>
      <point x="291.39745962155615" y="50"/>
      <point x="276.31157974150767" y="87"/>
      <point x="253.9244296722373" y="149" type="curve" smooth="yes"/>
      <point x="245.35521029058424" y="173"/>
      <point x="239.71419413920668" y="193"/>
      <point x="198.18860530663017" y="303" type="curve"/>
      <point x="296.7296584676353" y="361" type="line"/>
      <point x="322.7052658050256" y="290"/>
      <point x="353.3936860635179" y="203"/>
      <point x="383.4218522841658" y="121" type="curve" smooth="yes"/>
      <point x="396.11542731880104" y="90"/>
      <point x="400.11542731880104" y="90"/>
      <point x="423.5077321642143" y="84" type="curve" smooth="yes"/>
      <point x="441.16798620205867" y="79"/>
      <point x="441.93335800641836" y="52"/>
    </contour>
  </outline>
</glyph>
<glyph name="L" format="2">
  <advance width="500"/>
  <unicode hex="004C"/>
  <anchor x="310.7695154586736" y="600" name="top"/>
  <anchor x="200.0717967697245" y="4" name="cedilla"/>
  <anchor x="265.0717967697245" y="4" name="ogonek"/>
  <anchor x="200.0" y="0" name="bottom"/>
  <outline>
    <contour>
      <point x="207.5015662662425" y="599" type="curve" smooth="yes"/>
      <point x="246.573363035967" y="603"/>
      <point x="255.87463322518892" y="578"/>
      <point x="252.51564937656647" y="558" type="curve" smooth="yes"/>
      <point x="244.85024056257922" y="507"/>
      <point x="226.70149224698736" y="443"/>
      <point x="206.480947161671" y="375" type="curve" smooth="yes"/>
      <point x="176.73858680181638" y="264"/>
      <point x="134.6039215965485" y="159"/>
      <point x="129.52697005068114" y="99" type="curve"/>
      <point x="181.13466520526788" y="105"/>
      <point x="195.86671601283678" y="104"/>
      <point x="225.86671601283678" y="104" type="curve" smooth="yes"/>
      <point x="280.8667160128368" y="104"/>
      <point x="324.8667160128368" y="104"/>
      <point x="396.25902085825004" y="98" type="curve" smooth="yes"/>
      <point x="423.7231224733878" y="96"/>
      <point x="436.0961894323342" y="75"/>
      <point x="421.4500185048138" y="39" type="curve" smooth="yes"/>
      <point x="416.5025773880714" y="28"/>
      <point x="406.60769515458674" y="6"/>
      <point x="381.2679491924311" y="1" type="curve" smooth="yes"/>
      <point x="369.7320508075689" y="-1"/>
      <point x="361.46410161513774" y="-2"/>
      <point x="339.7320508075689" y="-1" type="curve" smooth="yes"/>
      <point x="327.7320508075689" y="-1"/>
      <point x="323.0717967697245" y="4"/>
      <point x="200.0717967697245" y="4" type="curve" smooth="yes"/>
      <point x="118.0717967697245" y="4"/>
      <point x="96.9282032302755" y="-4"/>
      <point x="47.92820323027551" y="-4" type="curve" smooth="yes"/>
      <point x="6.928203230275507" y="-4"/>
      <point x="10.129510429125013" y="49"/>
      <point x="25.67056359013013" y="107" type="curve" smooth="yes"/>
      <point x="42.81931190572198" y="171"/>
      <point x="63.948822334846994" y="220"/>
      <point x="95.29887784928835" y="337" type="curve" smooth="yes"/>
      <point x="113.51942293460469" y="405"/>
      <point x="132.47201882748993" y="472"/>
      <point x="151.24770018413534" y="557" type="curve" smooth="yes"/>
      <point x="157.28617595706902" y="587"/>
      <point x="179.69771868894912" y="596"/>
    </contour>
  </outline>
</glyph>
<glyph name="M" format="2">
  <advance width="500"/>
  <unicode hex="004D"/>
  <anchor x="360.7695154586736" y="600" name="top"/>
  <anchor x="40.392304845413264" y="-6" name="cedilla"/>
  <anchor x="357.39230484541326" y="-6" name="ogonek"/>
  <anchor x="200.0" y="0" name="bottom"/>
  <outline>
    <contour>
      <point x="525.3772106132603" y="606" type="curve" smooth="yes"/>
      <point x="554.1092614208292" y="605"/>
      <point x="557.6259219192247" y="592"/>
      <point x="550.855395338722" y="563" type="curve" smooth="yes"/>
      <point x="546.7643606825308" y="544"/>
      <point x="544.5489703733573" y="532"/>
      <point x="531.2233075215256" y="486" type="curve" smooth="yes"/>
      <point x="523.4527809410231" y="457"/>
      <point x="511.9309656664848" y="414"/>
      <point x="493.7104205811685" y="346" type="curve" smooth="yes"/>
      <point x="484.33219884607917" y="311"/>
      <point x="474.68602791855875" y="275"/>
      <point x="465.8437045683317" y="242" type="curve" smooth="yes"/>
      <point x="445.819311905722" y="171"/>
      <point x="427.0628684355434" y="101"/>
      <point x="418.07695154586736" y="60" type="curve" smooth="yes"/>
      <point x="410.0910346561913" y="19"/>
      <point x="380.19615242270663" y="-3"/>
      <point x="357.39230484541326" y="-6" type="curve" smooth="yes"/>
      <point x="320.05255888325763" y="-11"/>
      <point x="308.6269330410536" y="21"/>
      <point x="323.22054508531636" y="68" type="curve" smooth="yes"/>
      <point x="325.90003700962757" y="78"/>
      <point x="352.1590578678776" y="176"/>
      <point x="370.9872981077807" y="250" type="curve" smooth="yes"/>
      <point x="384.18860530663017" y="303"/>
      <point x="387.81553834768374" y="324"/>
      <point x="408.74889635410216" y="376" type="curve"/>
      <point x="395.1219633130486" y="355"/>
      <point x="390.3181157357552" y="352"/>
      <point x="376.2988778492884" y="337" type="curve" smooth="yes"/>
      <point x="354.13604642337253" y="314"/>
      <point x="355.60014803851027" y="312"/>
      <point x="337.0450117671812" y="295" type="curve" smooth="yes"/>
      <point x="305.27448518667865" y="266"/>
      <point x="292.5231964926429" y="252"/>
      <point x="267.5231964926429" y="252" type="curve" smooth="yes"/>
      <point x="242.5231964926429" y="252"/>
      <point x="234.27448518667865" y="266"/>
      <point x="220.50911338231896" y="293" type="curve" smooth="yes"/>
      <point x="211.8680972309414" y="313"/>
      <point x="213.33219884607917" y="311"/>
      <point x="206.49503027199498" y="334" type="curve" smooth="yes"/>
      <point x="202.71042058116845" y="346"/>
      <point x="197.97836977359958" y="347"/>
      <point x="192.74889635410213" y="376" type="curve"/>
      <point x="183.40399561580364" y="315"/>
      <point x="186.95913188713274" y="332"/>
      <point x="170.95397711098985" y="276" type="curve" smooth="yes"/>
      <point x="155.48472071970923" y="222"/>
      <point x="126.68980147659697" y="122"/>
      <point x="113.95259589288523" y="67" type="curve" smooth="yes"/>
      <point x="102.35898384862246" y="20"/>
      <point x="73.78460969082653" y="-12"/>
      <point x="40.392304845413264" y="-6" type="curve" smooth="yes"/>
      <point x="17.196152422706632" y="-3"/>
      <point x="0.09103465619133289" y="19"/>
      <point x="14.07695154586736" y="60" type="curve" smooth="yes"/>
      <point x="23.579528933938796" y="88"/>
      <point x="43.94366755870412" y="164"/>
      <point x="63.84370456833169" y="242" type="curve" smooth="yes"/>
      <point x="72.68602791855874" y="275"/>
      <point x="82.33219884607915" y="311"/>
      <point x="91.71042058116845" y="346" type="curve" smooth="yes"/>
      <point x="109.9309656664848" y="414"/>
      <point x="121.45278094102308" y="457"/>
      <point x="129.22330752152564" y="486" type="curve" smooth="yes"/>
      <point x="141.08486875821953" y="534"/>
      <point x="143.76436068253074" y="544"/>
      <point x="150.85539533872208" y="563" type="curve" smooth="yes"/>
      <point x="159.28617595706902" y="587"/>
      <point x="174.64515980569146" y="607"/>
      <point x="199.64515980569146" y="607" type="curve" smooth="yes"/>
      <point x="223.64515980569146" y="607"/>
      <point x="232.8413122283981" y="604"/>
      <point x="241.33873484032668" y="576" type="curve" smooth="yes"/>
      <point x="246.9797509917042" y="556"/>
      <point x="246.83615745225524" y="548"/>
      <point x="262.2233075215256" y="486" type="curve" smooth="yes"/>
      <point x="271.3091874015741" y="449"/>
      <point x="287.32327051189804" y="408"/>
      <point x="299.67709958437763" y="372" type="curve"/>
      <point x="319.1078802027246" y="396"/>
      <point x="363.0937970924006" y="437"/>
      <point x="400.2233075215256" y="486" type="curve" smooth="yes"/>
      <point x="446.83615745225524" y="548"/>
      <point x="456.1233445311532" y="564"/>
      <point x="474.21437918734455" y="583" type="curve" smooth="yes"/>
      <point x="489.5015662662425" y="599"/>
      <point x="503.37721061326033" y="606"/>
    </contour>
  </outline>
</glyph>
<glyph name="N" format="2">
  <advance width="500"/>
  <unicode hex="004E"/>
  <anchor x="360.7695154586736" y="600" name="top"/>
  <anchor x="38.85640646055102" y="-8" name="cedilla"/>
  <anchor x="346.46410161513774" y="-2" name="ogonek"/>
  <anchor x="200.0" y="0" name="bottom"/>
  <outline>
    <contour>
      <point x="518.6451598056915" y="607" type="curve" smooth="yes"/>
      <point x="529.6451598056915" y="607"/>
      <point x="560.7695154586736" y="600"/>
      <point x="549.7835985689976" y="559" type="curve" smooth="yes"/>
      <point x="506.32327051189804" y="408"/>
      <point x="534.5104946004236" y="502"/>
      <point x="479.58091015204343" y="297" type="curve" smooth="yes"/>
      <point x="468.59499326236744" y="256"/>
      <point x="442.0154643284286" y="168"/>
      <point x="412.4500185048138" y="39" type="curve" smooth="yes"/>
      <point x="405.94744111674237" y="11"/>
      <point x="383.46410161513774" y="-2"/>
      <point x="346.46410161513774" y="-2" type="curve" smooth="yes"/>
      <point x="299.46410161513774" y="-2"/>
      <point x="294.8230854637602" y="18"/>
      <point x="287.25386608210715" y="42" type="curve" smooth="yes"/>
      <point x="267.1346652052679" y="105"/>
      <point x="262.44109017063266" y="136"/>
      <point x="250.2552473002118" y="251" type="curve" smooth="yes"/>
      <point x="244.06424965364803" y="310"/>
      <point x="230.66301647405368" y="413"/>
      <point x="215.34766317450777" y="479" type="curve"/>
      <point x="219.754051130245" y="432"/>
      <point x="159.92958444838015" y="205"/>
      <point x="116.02439266260971" y="71" type="curve" smooth="yes"/>
      <point x="102.50257738807144" y="28"/>
      <point x="89.85640646055103" y="-8"/>
      <point x="38.85640646055102" y="-8" type="curve" smooth="yes"/>
      <point x="4.856406460551021" y="-8"/>
      <point x="3.502577388071437" y="28"/>
      <point x="16.416697508022978" y="65" type="curve" smooth="yes"/>
      <point x="65.73343202567352" y="208"/>
      <point x="95.51426815846182" y="349"/>
      <point x="130.41945994423227" y="483" type="curve" smooth="yes"/>
      <point x="137.26178329445932" y="516"/>
      <point x="148.573363035967" y="603"/>
      <point x="227.573363035967" y="603" type="curve" smooth="yes"/>
      <point x="267.57336303596696" y="603"/>
      <point x="276.429769496518" y="595"/>
      <point x="283.21437918734455" y="583" type="curve" smooth="yes"/>
      <point x="319.1374276414772" y="523"/>
      <point x="346.2167715272781" y="221"/>
      <point x="357.13981998141077" y="161" type="curve"/>
      <point x="355.10649898462" y="187"/>
      <point x="382.86809723094143" y="313"/>
      <point x="389.0309286568572" y="336" type="curve" smooth="yes"/>
      <point x="405.4476261648802" y="401"/>
      <point x="422.3091874015741" y="449"/>
      <point x="450.443852606842" y="554" type="curve" smooth="yes"/>
      <point x="458.48232837977565" y="584"/>
      <point x="473.6451598056915" y="607"/>
    </contour>
  </outline>
</glyph>
<glyph name="O" format="2">
  <advance width="500"/>
  <unicode hex="004F"/>
  <anchor x="360.7695154586736" y="600" name="top"/>
  <anchor x="196.5166604983954" y="-13" name="cedilla"/>
  <anchor x="196.5166604983954" y="-13" name="ogonek"/>
  <anchor x="200.0" y="0" name="bottom"/>
  <anchor x="460" y="535" name="horn"/>
  <outline>
    <contour>
      <point x="364.2528549602782" y="613" type="curve" smooth="yes"/>
      <point x="454.2528549602782" y="613"/>
      <point x="489.6784808024823" y="581"/>
      <point x="503.4579357171659" y="513" type="curve" smooth="yes"/>
      <point x="512.8643236729032" y="466"/>
      <point x="511.1796769724491" y="400"/>
      <point x="484.65270692176796" y="301" type="curve" smooth="yes"/>
      <point x="459.4654828332424" y="207"/>
      <point x="433.9769885554949" y="138"/>
      <point x="398.11542731880104" y="90" type="curve" smooth="yes"/>
      <point x="341.75128869403574" y="14"/>
      <point x="288.5166604983954" y="-13"/>
      <point x="196.5166604983954" y="-13" type="curve" smooth="yes"/>
      <point x="119.5166604983954" y="-13"/>
      <point x="91.4115427318801" y="9"/>
      <point x="64.54105316100512" y="58" type="curve" smooth="yes"/>
      <point x="37.67056359013013" y="107"/>
      <point x="46.910346561913315" y="190"/>
      <point x="76.65270692176793" y="301" type="curve" smooth="yes"/>
      <point x="108.00276243620928" y="418"/>
      <point x="154.83100267611238" y="492"/>
      <point x="203.300259067393" y="546" type="curve" smooth="yes"/>
      <point x="243.35797272679352" y="591"/>
      <point x="291.2528549602782" y="613"/>
    </contour>
    <contour>
      <point x="338.79768167932156" y="518" type="curve" smooth="yes"/>
      <point x="298.79768167932156" y="518"/>
      <point x="274.24254540799245" y="501"/>
      <point x="251.59637448047204" y="465" type="curve" smooth="yes"/>
      <point x="230.21815274538275" y="430"/>
      <point x="203.82069312382663" y="380"/>
      <point x="182.92065611419906" y="302" type="curve" smooth="yes"/>
      <point x="160" y="217"/>
      <point x="150" y="159"/>
      <point x="156" y="132" type="curve" smooth="yes"/>
      <point x="162" y="109"/>
      <point x="171" y="90"/>
      <point x="224.11542731880104" y="90" type="curve" smooth="yes"/>
      <point x="273.11542731880104" y="90"/>
      <point x="293.67056359013014" y="107"/>
      <point x="324.80007401925513" y="156" type="curve" smooth="yes"/>
      <point x="347.9821433316378" y="194"/>
      <point x="361.23600941374497" y="236"/>
      <point x="378.92065611419906" y="302" type="curve" smooth="yes"/>
      <point x="404" y="395"/>
      <point x="409" y="441"/>
      <point x="407" y="466" type="curve" smooth="yes"/>
      <point x="404" y="502"/>
      <point x="389" y="518"/>
    </contour>
  </outline>
</glyph>
<glyph name="P" format="2">
  <advance width="500"/>
  <unicode hex="0050"/>
  <anchor x="330.7695154586736" y="600" name="top"/>
  <anchor x="38.85640646055102" y="-8" name="cedilla"/>
  <anchor x="38.85640646055102" y="-8" name="ogonek"/>
  <anchor x="160.0" y="0" name="bottom"/>
  <outline>
    <contour>
      <point x="150.31949695385984" y="561" type="curve" smooth="yes"/>
      <point x="157.14258241762005" y="579"/>
      <point x="184.9131089981226" y="608"/>
      <point x="311.52080415270933" y="614" type="curve" smooth="yes"/>
      <point x="354.0567025375716" y="616"/>
      <point x="387.71695657541596" y="611"/>
      <point x="424.03746465110476" y="601" type="curve" smooth="yes"/>
      <point x="519.3387348403267" y="576"/>
      <point x="541.7258849095971" y="514"/>
      <point x="519.9502035529516" y="429" type="curve" smooth="yes"/>
      <point x="496.8347762341506" y="339"/>
      <point x="441.4898754958521" y="278"/>
      <point x="369.5231964926429" y="252" type="curve" smooth="yes"/>
      <point x="332.23600941374497" y="236"/>
      <point x="282.2167715272781" y="221"/>
      <point x="186.89626345158933" y="231" type="curve" smooth="yes"/>
      <point x="160.4321618364516" y="233"/>
      <point x="140.7719077986072" y="238"/>
      <point x="152.23600941374497" y="236" type="curve"/>
      <point x="185.29887784928835" y="337" type="line"/>
      <point x="190.0309286568572" y="336"/>
      <point x="192.7629794644261" y="335"/>
      <point x="197.7629794644261" y="335" type="curve" smooth="yes"/>
      <point x="292.81553834768374" y="324"/>
      <point x="343.2988778492884" y="337"/>
      <point x="371.3899125054797" y="356" type="curve" smooth="yes"/>
      <point x="403.01684554653326" y="377"/>
      <point x="413.5194229346047" y="405"/>
      <point x="419.14635597565825" y="426" type="curve" smooth="yes"/>
      <point x="433" y="481"/>
      <point x="414" y="502"/>
      <point x="379" y="513" type="curve" smooth="yes"/>
      <point x="365" y="516"/>
      <point x="339" y="518"/>
      <point x="297.2617832944593" y="516" type="curve" smooth="yes"/>
      <point x="279.9938341020282" y="515"/>
      <point x="256.1899865247348" y="512"/>
      <point x="232.51049460042358" y="502" type="curve"/>
      <point x="220.04123820914296" y="448"/>
      <point x="162.76675302246434" y="182"/>
      <point x="101.52181527453828" y="43" type="curve" smooth="yes"/>
      <point x="89.28718707889797" y="16"/>
      <point x="73.85640646055103" y="-8"/>
      <point x="38.85640646055102" y="-8" type="curve" smooth="yes"/>
      <point x="1.588457268119896" y="-9"/>
      <point x="-2.373066958946424" y="21"/>
      <point x="16.005154776142874" y="56" type="curve" smooth="yes"/>
      <point x="37.742360359854615" y="111"/>
      <point x="91.67194480823477" y="316"/>
      <point x="121.89764466969399" y="440" type="curve" smooth="yes"/>
      <point x="131.66768033968356" y="479.1165407385739"/>
      <point x="134.86947844904606" y="522"/>
    </contour>
  </outline>
</glyph>
<glyph name="Q" format="2">
  <advance width="500"/>
  <unicode hex="0051"/>
  <anchor x="360.7695154586736" y="600" name="top"/>
  <anchor x="176.73205080756887" y="-1" name="cedilla"/>
  <anchor x="325.88972745734185" y="-34" name="ogonek"/>
  <anchor x="220.0" y="0" name="bottom"/>
  <outline>
    <contour>
      <point x="217.67056359013014" y="107" type="curve" smooth="yes"/>
      <point x="302" y="107"/>
      <point x="365.7526699121404" y="223"/>
      <point x="387.18860530663017" y="303" type="curve" smooth="yes"/>
      <point x="406.480947161671" y="375"/>
      <point x="459" y="520"/>
      <point x="337.3335800641838" y="520" type="curve" smooth="yes"/>
      <point x="254" y="520"/>
      <point x="197.50018504813784" y="390"/>
      <point x="175.5283512687858" y="308" type="curve" smooth="yes"/>
      <point x="155.16421264402047" y="232"/>
      <point x="140" y="107"/>
    </contour>
    <contour>
      <point x="389.8859538993036" y="119" type="curve" smooth="yes"/>
      <point x="343.80900235343626" y="59"/>
      <point x="287.7320508075689" y="-1"/>
      <point x="176.73205080756887" y="-1" type="curve" smooth="yes"/>
      <point x="56.732050807568875" y="-1"/>
      <point x="39.316734517650545" y="143"/>
      <point x="84.52835126878578" y="308" type="curve" smooth="yes"/>
      <point x="120.70149224698736" y="443"/>
      <point x="196.9849057678471" y="612"/>
      <point x="361.98490576784707" y="612" type="curve" smooth="yes"/>
      <point x="439.98490576784707" y="612"/>
      <point x="465.48232837977565" y="584"/>
      <point x="486.56820825982413" y="547" type="curve" smooth="yes"/>
      <point x="512.7066470231302" y="499"/>
      <point x="507.5386608210715" y="420"/>
      <point x="475.65270692176796" y="301" type="curve" smooth="yes"/>
      <point x="457.7001110288827" y="234"/>
      <point x="423.4795659435664" y="166"/>
    </contour>
    <contour>
      <point x="256.8488593444746" y="298" type="curve" smooth="yes"/>
      <point x="296.0116907703904" y="321"/>
      <point x="312.7963004612169" y="309"/>
      <point x="326.2937230731455" y="281" type="curve" smooth="yes"/>
      <point x="334.4706376093853" y="263"/>
      <point x="354.9821433316378" y="194"/>
      <point x="368.87187078897966" y="160" type="curve" smooth="yes"/>
      <point x="381.8333950160459" y="130"/>
      <point x="405.416697508023" y="65"/>
      <point x="418.69872981077805" y="25" type="curve" smooth="yes"/>
      <point x="425.9282032302755" y="-4"/>
      <point x="418.30127018922195" y="-25"/>
      <point x="388.47818472546174" y="-43" type="curve" smooth="yes"/>
      <point x="359.92304845413264" y="-60"/>
      <point x="334.5307436087194" y="-54"/>
      <point x="325.88972745734185" y="-34" type="curve" smooth="yes"/>
      <point x="308.2153903091735" y="12"/>
      <point x="287.48849427774746" y="69"/>
      <point x="271.8141571295791" y="115" type="curve" smooth="yes"/>
      <point x="264.6372425933393" y="133"/>
      <point x="243.76675302246434" y="182"/>
      <point x="226.82446668186486" y="227" type="curve" smooth="yes"/>
      <point x="217.98729810778067" y="250"/>
      <point x="231.82962145800772" y="283"/>
    </contour>
  </outline>
</glyph>
<glyph name="R" format="2">
  <advance width="500"/>
  <unicode hex="0052"/>
  <anchor x="330.7695154586736" y="600" name="top"/>
  <anchor x="43.588457268119896" y="-9" name="cedilla"/>
  <anchor x="334.856406460551" y="-8" name="ogonek"/>
  <anchor x="190.0" y="0" name="bottom"/>
  <outline>
    <contour>
      <point x="162.3912937235843" y="565" type="curve" smooth="yes"/>
      <point x="179.30541384353586" y="602"/>
      <point x="214.64515980569146" y="607"/>
      <point x="323.6451598056915" y="607" type="curve" smooth="yes"/>
      <point x="504.6451598056915" y="607"/>
      <point x="523.1374276414772" y="523"/>
      <point x="498.4861019378139" y="431" type="curve" smooth="yes"/>
      <point x="477.05016654332405" y="351"/>
      <point x="423.24116418988785" y="292"/>
      <point x="357.3462819564031" y="270" type="curve" smooth="yes"/>
      <point x="313.3270440699363" y="255"/>
      <point x="246.96806022131383" y="235"/>
      <point x="206.96806022131383" y="235" type="curve" smooth="yes"/>
      <point x="188.96806022131383" y="235"/>
      <point x="159.96806022131383" y="235"/>
      <point x="155.96806022131383" y="235" type="curve"/>
      <point x="192.0309286568572" y="336" type="line"/>
      <point x="196.0309286568572" y="336"/>
      <point x="196.7629794644261" y="335"/>
      <point x="199.7629794644261" y="335" type="curve" smooth="yes"/>
      <point x="346" y="335"/>
      <point x="390" y="387"/>
      <point x="402" y="432" type="curve" smooth="yes"/>
      <point x="416" y="483"/>
      <point x="392" y="511"/>
      <point x="311" y="511" type="curve" smooth="yes"/>
      <point x="277" y="511"/>
      <point x="252.04639298528585" y="504"/>
      <point x="238.51049460042358" y="502" type="curve"/>
      <point x="228.34250839836488" y="423"/>
      <point x="129.8647295538183" y="110.54417723153314"/>
      <point x="104.25386608210715" y="42" type="curve" smooth="yes"/>
      <point x="94.01923788646684" y="15"/>
      <point x="79.5884572681199" y="-9"/>
      <point x="43.588457268119896" y="-9" type="curve" smooth="yes"/>
      <point x="4.588457268119896" y="-9"/>
      <point x="-1.3730669589464242" y="21"/>
      <point x="14.005154776142874" y="56" type="curve" smooth="yes"/>
      <point x="35.742360359854615" y="111"/>
      <point x="96.67194480823477" y="316"/>
      <point x="129.897644669694" y="440" type="curve" smooth="yes"/>
      <point x="140.34577539971713" y="478.99295472856807"/>
      <point x="144.2404126213839" y="526.8905164050111"/>
    </contour>
    <contour>
      <point x="319.68602791855875" y="275" type="line"/>
      <point x="377.00653599424754" y="265"/>
      <point x="377.0206191045715" y="224"/>
      <point x="381.0539401013623" y="198" type="curve" smooth="yes"/>
      <point x="387.1205820949439" y="146"/>
      <point x="381.9910716658189" y="97"/>
      <point x="408.0577136594005" y="45" type="curve" smooth="yes"/>
      <point x="420.3589838486225" y="20"/>
      <point x="396.19615242270663" y="-3"/>
      <point x="375.856406460551" y="-8" type="curve" smooth="yes"/>
      <point x="328.9089653438087" y="-19"/>
      <point x="299.87564434701784" y="7"/>
      <point x="295.43078061834694" y="24" type="curve" smooth="yes"/>
      <point x="285.48849427774746" y="69"/>
      <point x="301" y="162"/>
      <point x="277" y="202" type="curve" smooth="yes"/>
      <point x="260" y="230"/>
      <point x="204.3603650667271" y="229"/>
      <point x="155.96806022131383" y="235" type="curve"/>
    </contour>
  </outline>
</glyph>
<glyph name="S" format="2">
  <advance width="500"/>
  <unicode hex="0053"/>
  <anchor x="367.7695154586736" y="600" name="top"/>
  <anchor x="182.5884572681199" y="-9" name="cedilla"/>
  <anchor x="182.5884572681199" y="-9" name="ogonek"/>
  <anchor x="200.0" y="0" name="bottom"/>
  <outline>
    <contour>
      <point x="357.98490576784707" y="612" type="curve" smooth="yes"/>
      <point x="435.98490576784707" y="612"/>
      <point x="475.429769496518" y="595"/>
      <point x="506.443852606842" y="554" type="curve" smooth="yes"/>
      <point x="523.2810211809261" y="531"/>
      <point x="515.7066470231302" y="499"/>
      <point x="484.07971398207667" y="478" type="curve" smooth="yes"/>
      <point x="451.18483174859193" y="456"/>
      <point x="422.88356155937004" y="481"/>
      <point x="415.29510429125014" y="490" type="curve" smooth="yes"/>
      <point x="403.7784437928547" y="503"/>
      <point x="391.06563087175266" y="519"/>
      <point x="342.06563087175266" y="519" type="curve" smooth="yes"/>
      <point x="298.06563087175266" y="519"/>
      <point x="257.4386978306991" y="498"/>
      <point x="241.62969547726286" y="439" type="curve" smooth="yes"/>
      <point x="229.57198181786234" y="394"/>
      <point x="234.1412011995154" y="370"/>
      <point x="301.8014552373598" y="365" type="curve" smooth="yes"/>
      <point x="395.92581089034195" y="358"/>
      <point x="418.51426815846185" y="349"/>
      <point x="444.207843193097" y="318" type="curve" smooth="yes"/>
      <point x="465.50911338231896" y="293"/>
      <point x="464.5757553759006" y="241"/>
      <point x="450.6423973694822" y="189" type="curve" smooth="yes"/>
      <point x="434.5654458236148" y="129"/>
      <point x="407.5077321642143" y="84"/>
      <point x="368.66540881398726" y="51" type="curve" smooth="yes"/>
      <point x="324.4833395016046" y="13"/>
      <point x="259.5884572681199" y="-9"/>
      <point x="182.5884572681199" y="-9" type="curve" smooth="yes"/>
      <point x="115.5884572681199" y="-9"/>
      <point x="62.4833395016046" y="13"/>
      <point x="33.325662851831645" y="46" type="curve" smooth="yes"/>
      <point x="16.416697508022978" y="65"/>
      <point x="14.794919243112268" y="100"/>
      <point x="52.76159824632146" y="126" type="curve" smooth="yes"/>
      <point x="92.99622644196177" y="153"/>
      <point x="129.49364905389035" y="125"/>
      <point x="139.35005551444135" y="117" type="curve" smooth="yes"/>
      <point x="167.6513257036633" y="92"/>
      <point x="195.6513257036633" y="92"/>
      <point x="216.6513257036633" y="92" type="curve" smooth="yes"/>
      <point x="258.6513257036633" y="92"/>
      <point x="290.79491924311225" y="100"/>
      <point x="311.35005551444135" y="117" type="curve" smooth="yes"/>
      <point x="330.6372425933393" y="133"/>
      <point x="341.26417563439287" y="154"/>
      <point x="347.1590578678776" y="176" type="curve" smooth="yes"/>
      <point x="351.7141941392067" y="193"/>
      <point x="357.89626345158933" y="231"/>
      <point x="348.1116537607628" y="243" type="curve" smooth="yes"/>
      <point x="337.59499326236744" y="256"/>
      <point x="294.4706376093853" y="263"/>
      <point x="260.27448518667865" y="266" type="curve" smooth="yes"/>
      <point x="149.68602791855875" y="275"/>
      <point x="109.81553834768376" y="324"/>
      <point x="141.62969547726286" y="439" type="curve" smooth="yes"/>
      <point x="176.92719210844658" y="567"/>
      <point x="270.98490576784707" y="612"/>
    </contour>
  </outline>
</glyph>
<glyph name="T" format="2">
  <advance width="500"/>
  <unicode hex="0054"/>
  <anchor x="360.7695154586736" y="600" name="top"/>
  <anchor x="197.85640646055103" y="-8" name="cedilla"/>
  <anchor x="197.85640646055103" y="-8" name="ogonek"/>
  <anchor x="200.0" y="0" name="bottom"/>
  <outline>
    <contour>
      <point x="387.2617832944593" y="516" type="line"/>
      <point x="380.027155098819" y="489"/>
      <point x="388.6015292566149" y="521"/>
      <point x="340.9065730038751" y="343" type="curve" smooth="yes"/>
      <point x="306.0731779878291" y="213"/>
      <point x="273.5795289339388" y="88"/>
      <point x="269.29234185504083" y="72" type="curve" smooth="yes"/>
      <point x="254.55513627132908" y="17"/>
      <point x="247.85640646055103" y="-8"/>
      <point x="197.85640646055103" y="-8" type="curve" smooth="yes"/>
      <point x="149.85640646055103" y="-8"/>
      <point x="153.2346281956403" y="27"/>
      <point x="167.56029104747196" y="73" type="curve" smooth="yes"/>
      <point x="169.1679862020587" y="79"/>
      <point x="218.20268841695415" y="262"/>
      <point x="229.65270692176793" y="301" type="curve" smooth="yes"/>
      <point x="223.48987549585212" y="278"/>
      <point x="276.8117647896455" y="477"/>
      <point x="285.9220373323037" y="511" type="curve"/>
    </contour>
    <contour>
      <point x="120.7118017992731" y="555" type="curve" smooth="yes"/>
      <point x="126.07078564789555" y="575"/>
      <point x="145.76951545867362" y="600"/>
      <point x="172.76951545867362" y="600" type="curve" smooth="yes"/>
      <point x="246.76951545867362" y="600"/>
      <point x="252.429769496518" y="595"/>
      <point x="286.2336170738114" y="598" type="curve" smooth="yes"/>
      <point x="338.7695154586736" y="600"/>
      <point x="419.57336303596696" y="603"/>
      <point x="456.7695154586736" y="600" type="curve" smooth="yes"/>
      <point x="501.429769496518" y="595"/>
      <point x="529.7695154586736" y="600"/>
      <point x="545.7695154586736" y="600" type="curve" smooth="yes"/>
      <point x="575.7695154586736" y="600"/>
      <point x="584.4823283797757" y="584"/>
      <point x="576.443852606842" y="554" type="curve" smooth="yes"/>
      <point x="568.6733260263394" y="525"/>
      <point x="547.5104946004236" y="502"/>
      <point x="520.2425454079925" y="501" type="curve" smooth="yes"/>
      <point x="528.5104946004236" y="502"/>
      <point x="473.6348502534057" y="495"/>
      <point x="393.5104946004236" y="502" type="curve" smooth="yes"/>
      <point x="391.5104946004236" y="502"/>
      <point x="354.314342177717" y="505"/>
      <point x="317.5104946004236" y="502" type="curve" smooth="yes"/>
      <point x="228.90279944583685" y="496"/>
      <point x="171.24254540799248" y="501"/>
      <point x="147.31434217771695" y="505" type="curve" smooth="yes"/>
      <point x="118.11818975501032" y="508"/>
      <point x="114.47717360363279" y="528"/>
    </contour>
  </outline>
</glyph>
<glyph name="U" format="2">
  <advance width="500"/>
  <unicode hex="0055"/>
  <anchor x="360.7695154586736" y="600" name="top"/>
  <anchor x="195.71281292110203" y="-16" name="cedilla"/>
  <anchor x="195.71281292110203" y="-16" name="ogonek"/>
  <anchor x="200.0" y="0" name="bottom"/>
  <anchor x="490" y="533" name="horn"/>
  <outline>
    <contour>
      <point x="246.156665527944" y="538" type="curve" smooth="yes"/>
      <point x="232.09895186854348" y="493"/>
      <point x="200.60530281465316" y="368"/>
      <point x="183.65270692176793" y="301" type="curve" smooth="yes"/>
      <point x="160.80522879539802" y="212"/>
      <point x="152.13981998141077" y="161"/>
      <point x="160.63724259333932" y="133" type="curve" smooth="yes"/>
      <point x="167.67056359013014" y="107"/>
      <point x="178.04363054907657" y="86"/>
      <point x="223.04363054907657" y="86" type="curve" smooth="yes"/>
      <point x="272.04363054907657" y="86"/>
      <point x="294.67056359013014" y="107"/>
      <point x="323.1205820949439" y="146" type="curve" smooth="yes"/>
      <point x="347.69495625273987" y="178"/>
      <point x="361.2167715272781" y="221"/>
      <point x="379.92065611419906" y="302" type="curve" smooth="yes"/>
      <point x="396.67709958437763" y="372"/>
      <point x="435.5822913701481" y="506"/>
      <point x="444.56820825982413" y="547" type="curve" smooth="yes"/>
      <point x="449.39129372358434" y="565"/>
      <point x="466.1092614208292" y="605"/>
      <point x="506.6451598056915" y="607" type="curve" smooth="yes"/>
      <point x="539.9131089981227" y="608"/>
      <point x="550.7502775722068" y="585"/>
      <point x="547.0515477614288" y="560" type="curve" smooth="yes"/>
      <point x="538.9220373323037" y="511"/>
      <point x="503.1796769724491" y="400"/>
      <point x="480.65270692176796" y="301" type="curve" smooth="yes"/>
      <point x="457.85778767865565" y="201"/>
      <point x="435.58468371008166" y="144"/>
      <point x="399.7231224733878" y="96" type="curve" smooth="yes"/>
      <point x="342.6269330410536" y="21"/>
      <point x="287.71281292110206" y="-16"/>
      <point x="195.71281292110203" y="-16" type="curve" smooth="yes"/>
      <point x="118.71281292110203" y="-16"/>
      <point x="92.75128869403571" y="14"/>
      <point x="65.88079912316073" y="63" type="curve" smooth="yes"/>
      <point x="39.01030955228574" y="112"/>
      <point x="48.910346561913315" y="190"/>
      <point x="80.65270692176793" y="301" type="curve" smooth="yes"/>
      <point x="114.80661001350265" y="421"/>
      <point x="138.13742764147716" y="523"/>
      <point x="151.92719210844658" y="567" type="curve" smooth="yes"/>
      <point x="158.55412514950015" y="588"/>
      <point x="178.18105819055373" y="609"/>
      <point x="216.9131089981226" y="608" type="curve" smooth="yes"/>
      <point x="258.37721061326033" y="606"/>
      <point x="254.1233445311532" y="564"/>
    </contour>
  </outline>
</glyph>
<glyph name="V" format="2">
  <advance width="500"/>
  <unicode hex="0056"/>
  <anchor x="360.7695154586736" y="600" name="top"/>
  <anchor x="200.0" y="0" name="cedilla"/>
  <anchor x="200.0" y="0" name="ogonek"/>
  <anchor x="200.0" y="0" name="bottom"/>
  <outline>
    <contour>
      <point x="193.71695657541596" y="611" type="curve" smooth="yes"/>
      <point x="224.78875334514046" y="615"/>
      <point x="232.64515980569146" y="607"/>
      <point x="234.33873484032668" y="576" type="curve" smooth="yes"/>
      <point x="240.15151075180114" y="482"/>
      <point x="242.5771365940052" y="450"/>
      <point x="242.49503027199498" y="334" type="curve" smooth="yes"/>
      <point x="241.88218034126538" y="272"/>
      <point x="241.221926303421" y="277"/>
      <point x="239.96806022131383" y="235" type="curve" smooth="yes"/>
      <point x="239.1257368710868" y="202"/>
      <point x="241.55136271329087" y="170"/>
      <point x="233.63724259333932" y="133" type="curve"/>
      <point x="259.3936860635179" y="203"/>
      <point x="289.934739224523" y="261"/>
      <point x="324.69118269470164" y="331" type="curve" smooth="yes"/>
      <point x="364.1271180891914" y="411"/>
      <point x="398.3476631745078" y="479"/>
      <point x="468.33873484032665" y="576" type="curve" smooth="yes"/>
      <point x="490.6451598056915" y="607"/>
      <point x="519.5208041527094" y="614"/>
      <point x="539.6451598056915" y="607" type="curve" smooth="yes"/>
      <point x="570.6977186889492" y="596"/>
      <point x="573.5348872630333" y="573"/>
      <point x="555.5682082598241" y="547" type="curve" smooth="yes"/>
      <point x="530.9220373323037" y="511"/>
      <point x="519.9027994458369" y="496"/>
      <point x="505.73996801992104" y="473" type="curve" smooth="yes"/>
      <point x="470.46686405134705" y="416"/>
      <point x="412.13604642337253" y="314"/>
      <point x="407.99245288392353" y="306" type="curve" smooth="yes"/>
      <point x="352.4654828332424" y="207"/>
      <point x="307.8141571295791" y="115"/>
      <point x="268.52181527453826" y="43" type="curve" smooth="yes"/>
      <point x="252.7512886940357" y="14"/>
      <point x="217.5884572681199" y="-9"/>
      <point x="197.5884572681199" y="-9" type="curve" smooth="yes"/>
      <point x="178.5884572681199" y="-9"/>
      <point x="158.94744111674234" y="11"/>
      <point x="155.52181527453828" y="43" type="curve" smooth="yes"/>
      <point x="155.12951042912502" y="49"/>
      <point x="143.1834505304873" y="247"/>
      <point x="142.3847577293368" y="300" type="curve" smooth="yes"/>
      <point x="141.99760766006642" y="362"/>
      <point x="140.3040326254312" y="393"/>
      <point x="138.2758664047833" y="475" type="curve" smooth="yes"/>
      <point x="137.18998652473482" y="512"/>
      <point x="136.49641149009963" y="543"/>
      <point x="136.17590341441084" y="553" type="curve" smooth="yes"/>
      <point x="134.5348872630333" y="573"/>
      <point x="153.10926142082923" y="605"/>
    </contour>
  </outline>
</glyph>
<glyph name="W" format="2">
  <advance width="500"/>
  <unicode hex="0057"/>
  <anchor x="360.7695154586736" y="600" name="top"/>
  <anchor x="103.5884572681199" y="-9" name="cedilla"/>
  <anchor x="292.5884572681199" y="-9" name="ogonek"/>
  <anchor x="200.0" y="0" name="bottom"/>
  <outline>
    <contour>
      <point x="205.9131089981226" y="608" type="curve" smooth="yes"/>
      <point x="232.9131089981226" y="608"/>
      <point x="237.5348872630333" y="573"/>
      <point x="232.17590341441084" y="553" type="curve" smooth="yes"/>
      <point x="216.75920590638788" y="488"/>
      <point x="201.55789870753836" y="435"/>
      <point x="172.74374157795927" y="320" type="curve" smooth="yes"/>
      <point x="163.6334690353011" y="286"/>
      <point x="144.1975336408113" y="206"/>
      <point x="156.8526329025128" y="145" type="curve"/>
      <point x="163.51804171650005" y="196"/>
      <point x="212.1501295336965" y="273"/>
      <point x="244.88733511740824" y="328" type="curve" smooth="yes"/>
      <point x="257.2463189660307" y="348"/>
      <point x="261.33735362222205" y="367"/>
      <point x="298.33735362222205" y="367" type="curve" smooth="yes"/>
      <point x="339.33735362222205" y="367"/>
      <point x="333.7104205811685" y="346"/>
      <point x="334.88733511740827" y="328" type="curve" smooth="yes"/>
      <point x="338.8821803412654" y="272"/>
      <point x="344.2500925240689" y="195"/>
      <point x="320.85263290251277" y="145" type="curve"/>
      <point x="366.9295844483802" y="205"/>
      <point x="391.09757065043885" y="284"/>
      <point x="401.27963996282153" y="322" type="curve" smooth="yes"/>
      <point x="422.98352454974247" y="403"/>
      <point x="445.70664702313024" y="499"/>
      <point x="463.51564937656644" y="558" type="curve" smooth="yes"/>
      <point x="471.8746332251889" y="578"/>
      <point x="489.71695657541596" y="611"/>
      <point x="522.1810581905537" y="609" type="curve" smooth="yes"/>
      <point x="550.9131089981227" y="608"/>
      <point x="565.6259219192247" y="592"/>
      <point x="550.3720558371175" y="550" type="curve" smooth="yes"/>
      <point x="541.3335800641838" y="520"/>
      <point x="492.51426815846185" y="349"/>
      <point x="479.58091015204343" y="297" type="curve" smooth="yes"/>
      <point x="447.819311905722" y="171"/>
      <point x="378.63208781719646" y="77"/>
      <point x="354.7179676972449" y="40" type="curve" smooth="yes"/>
      <point x="334.6794919243112" y="10"/>
      <point x="311.856406460551" y="-8"/>
      <point x="292.5884572681199" y="-9" type="curve" smooth="yes"/>
      <point x="249.05255888325766" y="-11"/>
      <point x="256.8230854637602" y="18"/>
      <point x="255.20130719884952" y="53" type="curve" smooth="yes"/>
      <point x="252.20646197499238" y="109"/>
      <point x="253.80007401925513" y="156"/>
      <point x="254.66163525594902" y="204" type="curve"/>
      <point x="229.80007401925513" y="156"/>
      <point x="206.20646197499238" y="109"/>
      <point x="173.20130719884952" y="53" type="curve" smooth="yes"/>
      <point x="153.09103465619134" y="19"/>
      <point x="144.05255888325766" y="-11"/>
      <point x="103.5884572681199" y="-9" type="curve" smooth="yes"/>
      <point x="84.85640646055103" y="-8"/>
      <point x="69.94744111674234" y="11"/>
      <point x="68.25386608210715" y="42" type="curve" smooth="yes"/>
      <point x="60.80007401925514" y="156"/>
      <point x="62.48472071970924" y="222"/>
      <point x="79.50911338231894" y="293" type="curve" smooth="yes"/>
      <point x="84.67194480823477" y="316"/>
      <point x="133.3335800641838" y="520"/>
      <point x="142.17590341441084" y="553" type="curve" smooth="yes"/>
      <point x="152.89387111165576" y="593"/>
      <point x="176.18105819055373" y="609"/>
    </contour>
  </outline>
</glyph>
<glyph name="X" format="2">
  <advance width="500"/>
  <unicode hex="0058"/>
  <anchor x="360.7695154586736" y="600" name="top"/>
  <anchor x="28.588457268119896" y="-9" name="cedilla"/>
  <anchor x="374.39230484541326" y="-6" name="ogonek"/>
  <anchor x="200.0" y="0" name="bottom"/>
  <outline>
    <contour>
      <point x="559.1092614208292" y="605" type="curve" smooth="yes"/>
      <point x="579.1618203040869" y="594"/>
      <point x="578.587446146291" y="562"/>
      <point x="560.0323098749618" y="545" type="curve" smooth="yes"/>
      <point x="534.0656308717527" y="519"/>
      <point x="313.3462819564031" y="270"/>
      <point x="329.4373166125945" y="289" type="curve" smooth="yes"/>
      <point x="300.86294245479854" y="257"/>
      <point x="177.81415712957912" y="115"/>
      <point x="110.52181527453828" y="43" type="curve" smooth="yes"/>
      <point x="77.14359353944897" y="8"/>
      <point x="32.569219381653056" y="-24"/>
      <point x="9.464101615137757" y="-2" type="curve" smooth="yes"/>
      <point x="-7.98076211353316" y="15"/>
      <point x="-7.282032302755091" y="40"/>
      <point x="29.167986202058692" y="79" type="curve" smooth="yes"/>
      <point x="46.9910716658189" y="97"/>
      <point x="196.88218034126538" y="272"/>
      <point x="276.92581089034195" y="358" type="curve" smooth="yes"/>
      <point x="410.7784437928547" y="503"/>
      <point x="458.8553953387221" y="563"/>
      <point x="487.0182267646379" y="586" type="curve" smooth="yes"/>
      <point x="515.4490073829849" y="610"/>
      <point x="539.0567025375716" y="616"/>
    </contour>
    <contour>
      <point x="165.5015662662425" y="599" type="curve" smooth="yes"/>
      <point x="194.9849057678471" y="612"/>
      <point x="196" y="605"/>
      <point x="214" y="584" type="curve" smooth="yes"/>
      <point x="233" y="562"/>
      <point x="246" y="502"/>
      <point x="304" y="358" type="curve" smooth="yes"/>
      <point x="339" y="273"/>
      <point x="402" y="99"/>
      <point x="408" y="80" type="curve" smooth="yes"/>
      <point x="423" y="41"/>
      <point x="427.6794919243112" y="10"/>
      <point x="398.7320508075689" y="-1" type="curve" smooth="yes"/>
      <point x="355.1769145362398" y="-18"/>
      <point x="336.6794919243112" y="10"/>
      <point x="323.3256628518316" y="46" type="curve" smooth="yes"/>
      <point x="296.8859538993036" y="119"/>
      <point x="252.86294245479854" y="257"/>
      <point x="241.43731661259446" y="289" type="curve" smooth="yes"/>
      <point x="247.34628195640312" y="270"/>
      <point x="152.72588490959706" y="514"/>
      <point x="137.42461472037513" y="539" type="curve" smooth="yes"/>
      <point x="126.7118017992731" y="555"/>
      <point x="140.55412514950015" y="588"/>
    </contour>
  </outline>
</glyph>
<glyph name="Y" format="2">
  <advance width="500"/>
  <unicode hex="0059"/>
  <anchor x="360.7695154586736" y="600" name="top"/>
  <anchor x="197.85640646055103" y="-8" name="cedilla"/>
  <anchor x="197.85640646055103" y="-8" name="ogonek"/>
  <anchor x="200.0" y="0" name="bottom"/>
  <outline>
    <contour>
      <point x="242" y="329" type="curve"/>
      <point x="235" y="345"/>
      <point x="212" y="400"/>
      <point x="196" y="431" type="curve" smooth="yes"/>
      <point x="185" y="452"/>
      <point x="148" y="523"/>
      <point x="137" y="545" type="curve" smooth="yes"/>
      <point x="129" y="561"/>
      <point x="131" y="590"/>
      <point x="153" y="602" type="curve" smooth="yes"/>
      <point x="181" y="616"/>
      <point x="198" y="589"/>
      <point x="213" y="562" type="curve" smooth="yes"/>
      <point x="224" y="542"/>
      <point x="236" y="523"/>
      <point x="259" y="472" type="curve" smooth="yes"/>
      <point x="280" y="428"/>
      <point x="297" y="399"/>
      <point x="302" y="388" type="curve"/>
      <point x="331" y="417"/>
      <point x="360" y="446"/>
      <point x="389" y="475" type="curve" smooth="yes"/>
      <point x="425" y="510"/>
      <point x="478.2669380706022" y="572"/>
      <point x="487.6784808024823" y="581" type="curve" smooth="yes"/>
      <point x="499.62592191922465" y="592"/>
      <point x="536.3246517300026" y="617"/>
      <point x="560.1092614208292" y="605" type="curve" smooth="yes"/>
      <point x="580.429769496518" y="595"/>
      <point x="580.855395338722" y="563"/>
      <point x="563.5682082598241" y="547" type="curve" smooth="yes"/>
      <point x="583.3912937235843" y="565"/>
      <point x="503" y="482"/>
      <point x="434" y="413" type="curve" smooth="yes"/>
      <point x="408" y="386"/>
      <point x="331" y="316"/>
      <point x="329" y="314" type="curve"/>
      <point x="306.7526699121404" y="223" type="line" smooth="yes"/>
      <point x="275" y="92"/>
      <point x="271.5795289339388" y="88"/>
      <point x="267.29234185504083" y="72" type="curve" smooth="yes"/>
      <point x="252.55513627132908" y="17"/>
      <point x="238.12435565298213" y="-7"/>
      <point x="198.85640646055103" y="-8" type="curve" smooth="yes"/>
      <point x="151.5884572681199" y="-9"/>
      <point x="155.2346281956403" y="27"/>
      <point x="169.56029104747196" y="73" type="curve" smooth="yes"/>
      <point x="170.36413862476533" y="76"/>
      <point x="188" y="141"/>
      <point x="199.4988038300332" y="181" type="curve" smooth="yes"/>
      <point x="212" y="224"/>
      <point x="231" y="286"/>
    </contour>
  </outline>
</glyph>
<glyph name="Z" format="2">
  <advance width="500"/>
  <unicode hex="005A"/>
  <anchor x="360.7695154586736" y="600" name="top"/>
  <anchor x="200.80384757729337" y="3" name="cedilla"/>
  <anchor x="299.80384757729337" y="3" name="ogonek"/>
  <anchor x="208.0" y="0" name="bottom"/>
  <outline>
    <contour>
      <point x="545.3054138435359" y="602" type="curve" smooth="yes"/>
      <point x="584.8413122283981" y="604"/>
      <point x="583.1233445311532" y="564"/>
      <point x="562.3528179506507" y="535" type="curve" smooth="yes"/>
      <point x="547.9938341020281" y="515"/>
      <point x="497.4527809410231" y="457"/>
      <point x="437.0360834330001" y="392" type="curve" smooth="yes"/>
      <point x="392.1745221963062" y="344"/>
      <point x="337.6334690353011" y="286"/>
      <point x="329.221926303421" y="277" type="curve" smooth="yes"/>
      <point x="206.38853128737503" y="147"/>
      <point x="160.86671601283678" y="104"/>
      <point x="130.5795289339388" y="88" type="curve"/>
      <point x="143.72312247338778" y="96"/>
      <point x="210.9910716658189" y="97"/>
      <point x="239.9910716658189" y="97" type="curve" smooth="yes"/>
      <point x="334.25902085825004" y="98"/>
      <point x="381.7231224733878" y="96"/>
      <point x="404.9192748960944" y="93" type="curve" smooth="yes"/>
      <point x="434.11542731880104" y="90"/>
      <point x="441.93335800641836" y="52"/>
      <point x="438.1820693123827" y="38" type="curve" smooth="yes"/>
      <point x="431.2153903091735" y="12"/>
      <point x="418.7320508075689" y="-1"/>
      <point x="391.2679491924311" y="1" type="curve" smooth="yes"/>
      <point x="356.80384757729337" y="3"/>
      <point x="320.53589838486226" y="2"/>
      <point x="299.80384757729337" y="3" type="curve" smooth="yes"/>
      <point x="237.3397459621556" y="5"/>
      <point x="202.53589838486224" y="2"/>
      <point x="108.0" y="0" type="curve" smooth="yes"/>
      <point x="59.732050807568875" y="-1"/>
      <point x="34.46410161513776" y="-2"/>
      <point x="18.464101615137757" y="-2" type="curve" smooth="yes"/>
      <point x="1.464101615137757" y="-2"/>
      <point x="-16.12435565298214" y="7"/>
      <point x="-10.301270189221931" y="25" type="curve" smooth="yes"/>
      <point x="-4.746133917892848" y="42"/>
      <point x="-6.798692801150494" y="53"/>
      <point x="32.65132570366329" y="92" type="curve" smooth="yes"/>
      <point x="50.4744111674235" y="110"/>
      <point x="204.078332763972" y="269"/>
      <point x="285.1219633130486" y="355" type="curve" smooth="yes"/>
      <point x="359.28994951510725" y="434"/>
      <point x="407.8117647896455" y="477"/>
      <point x="450.7258849095971" y="514" type="curve"/>
      <point x="430.7784437928547" y="503"/>
      <point x="401.5822913701481" y="506"/>
      <point x="378.5822913701481" y="506" type="curve" smooth="yes"/>
      <point x="322.5822913701481" y="506" type="line" smooth="yes"/>
      <point x="306.5822913701481" y="506"/>
      <point x="291.5822913701481" y="506"/>
      <point x="277.5822913701481" y="506" type="curve" smooth="yes"/>
      <point x="226.58229137014808" y="506"/>
      <point x="189.58229137014808" y="506"/>
      <point x="172.11818975501032" y="508" type="curve" smooth="yes"/>
      <point x="142.65408813987258" y="510"/>
      <point x="137.28102118092616" y="531"/>
      <point x="144.6400050295486" y="551" type="curve" smooth="yes"/>
      <point x="152.80283645546442" y="574"/>
      <point x="169.76951545867362" y="600"/>
      <point x="196.76951545867362" y="600" type="curve" smooth="yes"/>
      <point x="270.7695154586736" y="600"/>
      <point x="264.5015662662425" y="599"/>
      <point x="290.5015662662425" y="599" type="curve" smooth="yes"/>
      <point x="311.5015662662425" y="599"/>
      <point x="336.5015662662425" y="599"/>
      <point x="361.7695154586736" y="600" type="curve" smooth="yes"/>
      <point x="399.7695154586736" y="600"/>
      <point x="438.03746465110476" y="601"/>
      <point x="467.7695154586736" y="600" type="curve" smooth="yes"/>
      <point x="502.5015662662425" y="599"/>
      <point x="529.0374646511048" y="601"/>
    </contour>
  </outline>
</glyph>
<glyph name="bracketleft" format="2">
  <advance width="500"/>
  <unicode hex="005B"/>
  <outline>
    <contour>
      <point x="231.87978800133178" y="634" type="curve"/>
      <point x="328.75543234834964" y="641" type="line"/>
      <point x="298.1374276414772" y="523"/>
      <point x="299.6015292566149" y="521"/>
      <point x="240.33219884607917" y="311" type="curve" smooth="yes"/>
      <point x="183.402614397699" y="106"/>
      <point x="195.8526329025128" y="145"/>
      <point x="153.98076211353316" y="-15" type="curve"/>
      <point x="46.19099764656376" y="-59" type="line"/>
      <point x="47.530743608719376" y="-54"/>
      <point x="48.87048957087499" y="-49"/>
      <point x="50.2102355330306" y="-44" type="curve" smooth="yes"/>
      <point x="51.817930687617334" y="-38"/>
      <point x="81.43593539448982" y="80"/>
      <point x="140.9732149974567" y="291" type="curve" smooth="yes"/>
      <point x="208.01307198849503" y="530"/>
      <point x="212.1233445311532" y="564"/>
    </contour>
    <contour>
      <point x="46.19099764656376" y="-59" type="curve" smooth="yes"/>
      <point x="48.94228634059948" y="-45"/>
      <point x="67.5884572681199" y="-9"/>
      <point x="100.12435565298213" y="-7" type="curve" smooth="yes"/>
      <point x="152.9282032302755" y="-4"/>
      <point x="176.6602540378444" y="-5"/>
      <point x="199.6602540378444" y="-5" type="curve" smooth="yes"/>
      <point x="253.6602540378444" y="-5"/>
      <point x="246.73205080756887" y="-1"/>
      <point x="300.46410161513774" y="-2" type="curve" smooth="yes"/>
      <point x="327.46410161513774" y="-2"/>
      <point x="336.5166604983954" y="-13"/>
      <point x="326.06664199358164" y="-52" type="curve" smooth="yes"/>
      <point x="316.68842025849233" y="-87"/>
      <point x="298.81277591147443" y="-94"/>
      <point x="266.2768775266122" y="-96" type="curve" smooth="yes"/>
      <point x="216.74097914174996" y="-98"/>
      <point x="178.20508075688772" y="-100"/>
      <point x="178.20508075688772" y="-100" type="curve" smooth="yes"/>
      <point x="138.74097914174996" y="-98"/>
      <point x="103.66918237202549" y="-102"/>
      <point x="82.20508075688772" y="-100" type="curve" smooth="yes"/>
      <point x="54.740979141749975" y="-98"/>
      <point x="40.224318643354565" y="-85"/>
    </contour>
    <contour>
      <point x="231.87978800133178" y="634" type="curve" smooth="yes"/>
      <point x="239.84646700454098" y="660"/>
      <point x="261.3298065061456" y="673"/>
      <point x="289.8657048910078" y="675" type="curve" smooth="yes"/>
      <point x="312.40160327587006" y="677"/>
      <point x="345.0618573137144" y="672"/>
      <point x="385.5977556985767" y="674" type="curve" smooth="yes"/>
      <point x="385.5977556985767" y="674"/>
      <point x="424.5977556985767" y="674"/>
      <point x="471.7939081212833" y="671" type="curve" smooth="yes"/>
      <point x="503.25800973642106" y="669"/>
      <point x="518.3823653894033" y="662"/>
      <point x="508.0041436543139" y="627" type="curve" smooth="yes"/>
      <point x="496.5541251495001" y="588"/>
      <point x="482.6066840327578" y="577"/>
      <point x="455.6066840327578" y="577" type="curve" smooth="yes"/>
      <point x="401.33873484032665" y="576"/>
      <point x="410.4105316100512" y="580"/>
      <point x="356.4105316100512" y="580" type="curve" smooth="yes"/>
      <point x="333.4105316100512" y="580"/>
      <point x="309.14258241762" y="579"/>
      <point x="257.9464299949134" y="582" type="curve" smooth="yes"/>
      <point x="226.48232837977565" y="584"/>
      <point x="227.12849930729607" y="620"/>
    </contour>
  </outline>
</glyph>
<glyph name="asciicircum" format="2">
  <advance width="500"/>
  <unicode hex="005E"/>
  <outline>
    <contour>
      <point x="109.44247138873733" y="345" type="curve" smooth="yes"/>
      <point x="99.12196331304855" y="355"/>
      <point x="102.48094716167101" y="375"/>
      <point x="127.64377858758684" y="398" type="curve" smooth="yes"/>
      <point x="171.09379709240062" y="437"/>
      <point x="201.06047609560983" y="463"/>
      <point x="209.73996801992104" y="473" type="curve" smooth="yes"/>
      <point x="236.97459621556135" y="500"/>
      <point x="308.2669380706022" y="572"/>
      <point x="337.89387111165576" y="593" type="curve" smooth="yes"/>
      <point x="351.8413122283981" y="604"/>
      <point x="364.9131089981226" y="608"/>
      <point x="374.1092614208292" y="605" type="curve" smooth="yes"/>
      <point x="380.8413122283981" y="604"/>
      <point x="385.7695154586736" y="600"/>
      <point x="391.16182030408686" y="594" type="curve" smooth="yes"/>
      <point x="409.5348872630333" y="573"/>
      <point x="431.4386978306991" y="498"/>
      <point x="446.66817125019656" y="469" type="curve" smooth="yes"/>
      <point x="453.6489333637297" y="454"/>
      <point x="459.0937970924006" y="437"/>
      <point x="487.37582939515573" y="397" type="curve" smooth="yes"/>
      <point x="502.480947161671" y="375"/>
      <point x="488.8540141206174" y="354"/>
      <point x="472.9065730038751" y="343" type="curve" smooth="yes"/>
      <point x="458.495030271995" y="334"/>
      <point x="434.5283512687858" y="308"/>
      <point x="419.88733511740827" y="328" type="curve" smooth="yes"/>
      <point x="410.10272542658174" y="340"/>
      <point x="396.2129979692399" y="374"/>
      <point x="383.37582939515573" y="397" type="curve" smooth="yes"/>
      <point x="367.4143051680894" y="427"/>
      <point x="341.9553583290945" y="485"/>
      <point x="338.7784437928547" y="503" type="curve"/>
      <point x="324.2233075215256" y="486"/>
      <point x="264.2181527453828" y="430"/>
      <point x="236.4476261648802" y="401" type="curve" smooth="yes"/>
      <point x="212.74889635410213" y="376"/>
      <point x="170.83477623415058" y="339"/>
      <point x="153.6193859249771" y="327" type="curve" smooth="yes"/>
      <point x="127.79630046121692" y="309"/>
      <point x="117.76297946442611" y="335"/>
    </contour>
  </outline>
</glyph>
<glyph name="underscore" format="2">
  <advance width="500"/>
  <unicode hex="005F"/>
  <outline>
    <contour>
      <point x="-7.129510429125013" y="-49" type="curve" smooth="yes"/>
      <point x="3.320508075688771" y="-10"/>
      <point x="13.464101615137757" y="-2"/>
      <point x="45.732050807568875" y="-1" type="curve" smooth="yes"/>
      <point x="98.26794919243113" y="1"/>
      <point x="161.73205080756887" y="-1"/>
      <point x="184.73205080756887" y="-1" type="curve" smooth="yes"/>
      <point x="238.46410161513776" y="-2"/>
      <point x="301.2679491924311" y="1"/>
      <point x="354.7320508075689" y="-1" type="curve" smooth="yes"/>
      <point x="381.46410161513774" y="-2"/>
      <point x="390.5166604983954" y="-13"/>
      <point x="380.06664199358164" y="-52" type="curve" smooth="yes"/>
      <point x="370.68842025849233" y="-87"/>
      <point x="350.47302994931886" y="-99"/>
      <point x="318.2050807568877" y="-100" type="curve" smooth="yes"/>
      <point x="269.9371315644566" y="-101"/>
      <point x="197.40123317959436" y="-103"/>
      <point x="160.9371315644566" y="-101" type="curve" smooth="yes"/>
      <point x="121.47302994931886" y="-99"/>
      <point x="46.93713156445661" y="-101"/>
      <point x="25.473029949318857" y="-99" type="curve" smooth="yes"/>
      <point x="-1.7231224733877752" y="-96"/>
      <point x="-17.84747812636992" y="-89"/>
    </contour>
  </outline>
</glyph>
<glyph name="grave" format="2">
  <advance width="500"/>
  <unicode hex="0060"/>
  <anchor x="360.7695154586736" y="600" name="top"/>
  <outline>
    <contour>
      <point x="415.02200032267615" y="433" type="curve" smooth="yes"/>
      <point x="389.1271180891914" y="411"/>
      <point x="371.5386608210715" y="420"/>
      <point x="352.3617462848317" y="438" type="curve" smooth="yes"/>
      <point x="328.9886793258853" y="459"/>
      <point x="295.027155098819" y="489"/>
      <point x="260.62076714308176" y="536" type="curve" smooth="yes"/>
      <point x="254.300259067393" y="546"/>
      <point x="253.65924291601544" y="566"/>
      <point x="283.3579727267935" y="591" type="curve" smooth="yes"/>
      <point x="318.12849930729607" y="620"/>
      <point x="337.44900738298486" y="610"/>
      <point x="350.62592191922465" y="592" type="curve" smooth="yes"/>
      <point x="379.9079542219797" y="552"/>
      <point x="416.5822913701481" y="506"/>
      <point x="429.88356155937004" y="481" type="curve" smooth="yes"/>
      <point x="440.79252690317867" y="462"/>
      <point x="443.4527809410231" y="457"/>
    </contour>
  </outline>
</glyph>
<glyph name="a" format="2">
  <advance width="500"/>
  <unicode hex="0061"/>
  <anchor x="290.1796769724491" y="400" name="top"/>
  <anchor x="136.85640646055103" y="-8" name="cedilla"/>
  <anchor x="348.39230484541326" y="-6" name="ogonek"/>
  <anchor x="201.0" y="0" name="bottom"/>
  <outline>
    <contour>
      <point x="293.37960295319397" y="244" type="curve" smooth="yes"/>
      <point x="331.50395860617607" y="237"/>
      <point x="349.55651748943376" y="226"/>
      <point x="352.82446668186486" y="227" type="curve"/>
      <point x="333.26417563439287" y="154" type="line"/>
      <point x="330.99622644196177" y="153"/>
      <point x="311.80007401925513" y="156"/>
      <point x="286.87187078897966" y="160" type="curve" smooth="yes"/>
      <point x="169.69495625273984" y="178"/>
      <point x="119" y="143"/>
      <point x="111" y="110" type="curve" smooth="yes"/>
      <point x="93" y="46"/>
      <point x="171.7564434701786" y="70"/>
      <point x="193.36413862476533" y="76" type="curve" smooth="yes"/>
      <point x="255.9192748960944" y="93"/>
      <point x="294.546207937148" y="114"/>
      <point x="326.9244296722373" y="149" type="curve"/>
      <point x="322.80900235343626" y="59" type="line"/>
      <point x="275.5025773880714" y="28"/>
      <point x="243.4833395016046" y="13"/>
      <point x="206.53589838486224" y="2" type="curve" smooth="yes"/>
      <point x="148.71281292110203" y="-16"/>
      <point x="-5.430780618346944" y="-24"/>
      <point x="28.062868435543393" y="101" type="curve" smooth="yes"/>
      <point x="62.3603650667271" y="229"/>
      <point x="211.6667900320919" y="260"/>
    </contour>
    <contour>
      <point x="428.77190779860723" y="238" type="curve" smooth="yes"/>
      <point x="415.91034656191334" y="190"/>
      <point x="393.8859538993036" y="119"/>
      <point x="408.416697508023" y="65" type="curve" smooth="yes"/>
      <point x="416.3782217350893" y="35"/>
      <point x="419.2153903091735" y="12"/>
      <point x="385.9282032302755" y="-4" type="curve" smooth="yes"/>
      <point x="364.24871130596426" y="-14"/>
      <point x="333.12435565298216" y="-7"/>
      <point x="320.75128869403574" y="14" type="curve" smooth="yes"/>
      <point x="286.56029104747194" y="73"/>
      <point x="320.4795659435664" y="166"/>
      <point x="336.55651748943376" y="226" type="curve" smooth="yes"/>
      <point x="362.54758915525264" y="323"/>
      <point x="320" y="325"/>
      <point x="268" y="325" type="curve" smooth="yes"/>
      <point x="223" y="325"/>
      <point x="177.3847577293368" y="300"/>
      <point x="140.2937230731455" y="281" type="curve" smooth="yes"/>
      <point x="128.95397711098985" y="276"/>
      <point x="103.41807872612762" y="274"/>
      <point x="93.24116418988783" y="292" type="curve" smooth="yes"/>
      <point x="83.06424965364803" y="310"/>
      <point x="102.58606492818632" y="353"/>
      <point x="146.01684554653326" y="377" type="curve" smooth="yes"/>
      <point x="181.10788020272457" y="396"/>
      <point x="226.8591688967603" y="410"/>
      <point x="275.8591688967603" y="410" type="curve" smooth="yes"/>
      <point x="308.8591688967603" y="410"/>
      <point x="475.9309656664848" y="414"/>
    </contour>
  </outline>
</glyph>
<glyph name="b" format="2">
  <advance width="500"/>
  <unicode hex="0062"/>
  <anchor x="370.7695154586736" y="600" name="top"/>
  <anchor x="129.78460969082653" y="-12" name="cedilla"/>
  <anchor x="129.78460969082653" y="-12" name="ogonek"/>
  <anchor x="200.0" y="0" name="bottom"/>
  <outline>
    <contour>
      <point x="47.94744111674235" y="11" type="curve" smooth="yes"/>
      <point x="45.751288694035715" y="14"/>
      <point x="29.182069312382666" y="38"/>
      <point x="34.56029104747196" y="73" type="curve" smooth="yes"/>
      <point x="37.383376511232164" y="91"/>
      <point x="49.28341352085974" y="169"/>
      <point x="95.65270692176793" y="301" type="curve" smooth="yes"/>
      <point x="142.02200032267612" y="433"/>
      <point x="157.20922441120166" y="527"/>
      <point x="166.31949695385984" y="561" type="curve" smooth="yes"/>
      <point x="170.94642999491342" y="582"/>
      <point x="174.44900738298483" y="610"/>
      <point x="226.44900738298483" y="610" type="curve" smooth="yes"/>
      <point x="261.44900738298486" y="610"/>
      <point x="268.5015662662425" y="599"/>
      <point x="262.65924291601544" y="566" type="curve" smooth="yes"/>
      <point x="257.0848687582195" y="534"/>
      <point x="238.2373906318496" y="445"/>
      <point x="203.90657300387508" y="343" type="curve" smooth="yes"/>
      <point x="157.73343202567352" y="208"/>
      <point x="136.94366755870413" y="164"/>
      <point x="134.08210632201025" y="116" type="curve" smooth="yes"/>
      <point x="132.77568135664544" y="85"/>
      <point x="161" y="77"/>
      <point x="174" y="77" type="curve" smooth="yes"/>
      <point x="244" y="77"/>
      <point x="351.76159824632146" y="126"/>
      <point x="378.0206191045715" y="224" type="curve" smooth="yes"/>
      <point x="403.207843193097" y="318"/>
      <point x="353" y="327"/>
      <point x="283.60014803851027" y="312" type="curve" smooth="yes"/>
      <point x="250" y="305"/>
      <point x="187.5616722655766" y="282"/>
      <point x="158.75266991214036" y="223" type="curve"/>
      <point x="189.46170927520416" y="360" type="line"/>
      <point x="234.10788020272457" y="396"/>
      <point x="304.6630164740537" y="413"/>
      <point x="332.6630164740537" y="413" type="curve" smooth="yes"/>
      <point x="402.9309656664848" y="414"/>
      <point x="520.3758293951557" y="397"/>
      <point x="476.1642126440205" y="232" type="curve" smooth="yes"/>
      <point x="430.07695154586736" y="60"/>
      <point x="295.7846096908265" y="-12"/>
      <point x="129.78460969082653" y="-12" type="curve" smooth="yes"/>
      <point x="103.78460969082653" y="-12"/>
      <point x="61.85640646055102" y="-8"/>
    </contour>
  </outline>
</glyph>
<glyph name="c" format="2">
  <advance width="500"/>
  <unicode hex="0063"/>
  <anchor x="307.1796769724491" y="400" name="top"/>
  <anchor x="208.32050807568876" y="-10" name="cedilla"/>
  <anchor x="208.32050807568876" y="-10" name="ogonek"/>
  <anchor x="200.0" y="0" name="bottom"/>
  <outline>
    <contour>
      <point x="363.1923788646684" y="150" type="curve" smooth="yes"/>
      <point x="376.67571836627303" y="163"/>
      <point x="398.87187078897966" y="160"/>
      <point x="410.1923788646684" y="150" type="curve" smooth="yes"/>
      <point x="422.24493774792603" y="139"/>
      <point x="427.8859538993036" y="119"/>
      <point x="407.45517328095667" y="95" type="curve" smooth="yes"/>
      <point x="348.69872981077805" y="25"/>
      <point x="268.3205080756888" y="-10"/>
      <point x="208.32050807568876" y="-10" type="curve" smooth="yes"/>
      <point x="98.32050807568876" y="-10"/>
      <point x="25.201307198849506" y="53"/>
      <point x="64.58983848622454" y="200" type="curve" smooth="yes"/>
      <point x="108.26555685249754" y="363"/>
      <point x="210.8591688967603" y="410"/>
      <point x="320.8591688967603" y="410" type="curve" smooth="yes"/>
      <point x="392.8591688967603" y="410"/>
      <point x="430.23223585570673" y="389"/>
      <point x="462.81553834768374" y="324" type="curve" smooth="yes"/>
      <point x="469.7963004612169" y="309"/>
      <point x="457.6334690353011" y="286"/>
      <point x="441.95397711098985" y="276" type="curve" smooth="yes"/>
      <point x="417.6667900320919" y="260"/>
      <point x="391.27448518667865" y="266"/>
      <point x="378.09757065043885" y="284" type="curve" smooth="yes"/>
      <point x="357.60014803851027" y="312"/>
      <point x="332.9398940006659" y="317"/>
      <point x="296.9398940006659" y="317" type="curve" smooth="yes"/>
      <point x="225.9398940006659" y="317"/>
      <point x="182.90141822773222" y="287"/>
      <point x="159.58983848622455" y="200" type="curve" smooth="yes"/>
      <point x="139.76159824632146" y="126"/>
      <point x="158.5077321642143" y="84"/>
      <point x="234.5077321642143" y="84" type="curve" smooth="yes"/>
      <point x="265.5077321642143" y="84"/>
      <point x="315.93851278256125" y="108"/>
    </contour>
  </outline>
</glyph>
<glyph name="d" format="2">
  <advance width="500"/>
  <unicode hex="0064"/>
  <anchor x="350.7695154586736" y="600" name="top"/>
  <anchor x="175.32050807568876" y="-10" name="cedilla"/>
  <anchor x="330.19615242270663" y="-3" name="ogonek"/>
  <anchor x="183.0" y="0" name="bottom"/>
  <outline>
    <contour>
      <point x="468.37721061326033" y="606" type="curve" smooth="yes"/>
      <point x="489.37721061326033" y="606"/>
      <point x="512.2336170738114" y="598"/>
      <point x="506.65924291601544" y="566" type="curve" smooth="yes"/>
      <point x="501.0848687582195" y="534"/>
      <point x="481.93612044262767" y="470"/>
      <point x="447.9065730038751" y="343" type="curve" smooth="yes"/>
      <point x="417.3603650667271" y="229"/>
      <point x="408.5706005997577" y="185"/>
      <point x="394.44109017063266" y="136" type="curve" smooth="yes"/>
      <point x="384.3308176279745" y="102"/>
      <point x="383.04363054907657" y="86"/>
      <point x="397.7756813566454" y="85" type="curve" smooth="yes"/>
      <point x="423.2397829717832" y="83"/>
      <point x="424.9525958928852" y="67"/>
      <point x="418.0577136594005" y="45" type="curve" smooth="yes"/>
      <point x="400.5166604983954" y="-13"/>
      <point x="346.19615242270663" y="-3"/>
      <point x="330.19615242270663" y="-3" type="curve" smooth="yes"/>
      <point x="280.46410161513774" y="-2"/>
      <point x="273.1820693123827" y="38"/>
      <point x="290.1872240885255" y="94" type="curve" smooth="yes"/>
      <point x="306.9244296722373" y="149"/>
      <point x="320.948822334847" y="220"/>
      <point x="335.2937230731455" y="281" type="curve" smooth="yes"/>
      <point x="366.3950672816226" y="412"/>
      <point x="401.20922441120166" y="527"/>
      <point x="410.3194969538598" y="561" type="curve" smooth="yes"/>
      <point x="414.9464299949134" y="582"/>
      <point x="436.37721061326033" y="606"/>
    </contour>
    <contour>
      <point x="309.9244296722373" y="149" type="curve"/>
      <point x="298.273103968574" y="57" type="line"/>
      <point x="281.4500185048138" y="39"/>
      <point x="245.32050807568876" y="-10"/>
      <point x="175.32050807568876" y="-10" type="curve" smooth="yes"/>
      <point x="76.32050807568876" y="-10"/>
      <point x="12.201307198849506" y="53"/>
      <point x="51.58983848622454" y="200" type="curve" smooth="yes"/>
      <point x="95.26555685249754" y="363"/>
      <point x="197.8591688967603" y="410"/>
      <point x="307.8591688967603" y="410" type="curve" smooth="yes"/>
      <point x="349.8591688967603" y="410"/>
      <point x="369.64377858758684" y="398"/>
      <point x="368.9450487768088" y="373" type="curve"/>
      <point x="335.1116537607628" y="243" type="line"/>
      <point x="328.68602791855875" y="275"/>
      <point x="346.13604642337253" y="314"/>
      <point x="265.13604642337253" y="314" type="curve" smooth="yes"/>
      <point x="204.13604642337253" y="314"/>
      <point x="167.88218034126538" y="272"/>
      <point x="148.58983848622455" y="200" type="curve" smooth="yes"/>
      <point x="131.17314097820156" y="135"/>
      <point x="158.84747812636994" y="89"/>
      <point x="202.84747812636994" y="89" type="curve" smooth="yes"/>
      <point x="238.84747812636994" y="89"/>
      <point x="262.93851278256125" y="108"/>
    </contour>
  </outline>
</glyph>
<glyph name="e" format="2">
  <advance width="500"/>
  <unicode hex="0065"/>
  <anchor x="317.1796769724491" y="400" name="top"/>
  <anchor x="168.5884572681199" y="-9" name="cedilla"/>
  <anchor x="305.0" y="0" name="ogonek"/>
  <anchor x="200.0" y="0" name="bottom"/>
  <outline>
    <contour>
      <point x="378.80007401925513" y="156" type="curve" smooth="yes"/>
      <point x="329.4603280570995" y="151"/>
      <point x="257.1205820949439" y="146"/>
      <point x="220.12058209494393" y="146" type="curve" smooth="yes"/>
      <point x="178.12058209494393" y="146"/>
      <point x="133.65648047980616" y="148"/>
      <point x="123.46032805709953" y="151" type="curve"/>
      <point x="147.30780618346944" y="240" type="line"/>
      <point x="194.7719077986072" y="238"/>
      <point x="241.50395860617607" y="237"/>
      <point x="263.50395860617607" y="237" type="curve" smooth="yes"/>
      <point x="297.50395860617607" y="237"/>
      <point x="328.96806022131386" y="235"/>
      <point x="365.30780618346944" y="240" type="curve"/>
      <point x="370.3988408396608" y="259"/>
      <point x="388" y="331"/>
      <point x="319" y="331" type="curve" smooth="yes"/>
      <point x="264" y="331"/>
      <point x="180.31296095961233" y="296"/>
      <point x="153.51804171650005" y="196" type="curve" smooth="yes"/>
      <point x="133.42185228416585" y="121"/>
      <point x="135" y="83"/>
      <point x="184" y="80" type="curve" smooth="yes"/>
      <point x="276" y="75"/>
      <point x="330.1872240885255" y="94"/>
      <point x="344.25902085825004" y="98" type="curve" smooth="yes"/>
      <point x="365.8667160128368" y="104"/>
      <point x="404.546207937148" y="114"/>
      <point x="407.43593539448983" y="80" type="curve" smooth="yes"/>
      <point x="409.4692563912806" y="54"/>
      <point x="389.7705265805026" y="29"/>
      <point x="372.8230854637602" y="18" type="curve" smooth="yes"/>
      <point x="331.39230484541326" y="-6"/>
      <point x="286.5884572681199" y="-9"/>
      <point x="168.5884572681199" y="-9" type="curve" smooth="yes"/>
      <point x="80.5884572681199" y="-9"/>
      <point x="19.842323350227048" y="33"/>
      <point x="63.51804171650005" y="196" type="curve" smooth="yes"/>
      <point x="105.58606492818632" y="353"/>
      <point x="233.8591688967603" y="410"/>
      <point x="320.8591688967603" y="410" type="curve" smooth="yes"/>
      <point x="417.8591688967603" y="410"/>
      <point x="482.4424713887373" y="345"/>
      <point x="446.2167715272781" y="221" type="curve" smooth="yes"/>
      <point x="438.9821433316378" y="194"/>
      <point x="430.13981998141077" y="161"/>
    </contour>
  </outline>
</glyph>
<glyph name="f" format="2">
  <advance width="500"/>
  <unicode hex="0066"/>
  <anchor x="390.7695154586736" y="600" name="top"/>
  <anchor x="145.32050807568876" y="-10" name="cedilla"/>
  <anchor x="145.32050807568876" y="-10" name="ogonek"/>
  <anchor x="200.0" y="0" name="bottom"/>
  <outline>
    <contour>
      <point x="525.2758664047833" y="475" type="curve" smooth="yes"/>
      <point x="501.4527809410231" y="457"/>
      <point x="476.3091874015741" y="449"/>
      <point x="461.66817125019656" y="469" type="curve" smooth="yes"/>
      <point x="425.6015292566149" y="521"/>
      <point x="411.52973248689045" y="517"/>
      <point x="383.9938341020282" y="515" type="curve" smooth="yes"/>
      <point x="338.1899865247348" y="512"/>
      <point x="334.00791721235214" y="474"/>
      <point x="297.6578616979108" y="357" type="curve" smooth="yes"/>
      <point x="250.73343202567352" y="208"/>
      <point x="235.8526329025128" y="145"/>
      <point x="218.0051547761429" y="56" type="curve" smooth="yes"/>
      <point x="208.4115427318801" y="9"/>
      <point x="187.32050807568876" y="-10"/>
      <point x="145.32050807568876" y="-10" type="curve" smooth="yes"/>
      <point x="96.32050807568876" y="-10"/>
      <point x="103.55513627132908" y="17"/>
      <point x="114.27310396857399" y="57" type="curve" smooth="yes"/>
      <point x="152.85778767865565" y="201"/>
      <point x="198.8014552373598" y="365"/>
      <point x="212.05532131946694" y="407" type="curve" smooth="yes"/>
      <point x="224.2373906318496" y="445"/>
      <point x="264.71695657541596" y="611"/>
      <point x="400.9131089981226" y="608" type="curve" smooth="yes"/>
      <point x="445.6451598056915" y="607"/>
      <point x="490.6451598056915" y="607"/>
      <point x="530.9605131052374" y="541" type="curve" smooth="yes"/>
      <point x="539.4771736036328" y="528"/>
      <point x="550.3669010609747" y="494"/>
    </contour>
    <contour>
      <point x="445.4565544990613" y="304" type="curve" smooth="yes"/>
      <point x="440.9732149974567" y="291"/>
      <point x="424.00653599424754" y="265"/>
      <point x="394.00653599424754" y="265" type="curve" smooth="yes"/>
      <point x="342.54243437910975" y="267"/>
      <point x="307.8103835715409" y="268"/>
      <point x="295.8103835715409" y="268" type="curve" smooth="yes"/>
      <point x="261.8103835715409" y="268"/>
      <point x="153.20268841695415" y="262"/>
      <point x="123.86294245479853" y="257" type="curve" smooth="yes"/>
      <point x="99.79114568507404" y="253"/>
      <point x="91.29372307314547" y="281"/>
      <point x="95.38475772933681" y="300" type="curve" smooth="yes"/>
      <point x="99.67194480823477" y="316"/>
      <point x="124.97836977359958" y="347"/>
      <point x="157.24631896603069" y="348" type="curve" smooth="yes"/>
      <point x="205.24631896603069" y="348"/>
      <point x="301.92581089034195" y="358"/>
      <point x="338.92581089034195" y="358" type="curve" smooth="yes"/>
      <point x="370.92581089034195" y="358"/>
      <point x="406.3899125054797" y="356"/>
      <point x="420.5860649281863" y="353" type="curve" smooth="yes"/>
      <point x="452.51426815846185" y="349"/>
      <point x="451.27963996282153" y="322"/>
    </contour>
  </outline>
</glyph>
<glyph name="g" format="2">
  <advance width="500"/>
  <unicode hex="0067"/>
  <anchor x="307.1796769724491" y="400" name="top"/>
  <anchor x="165.32943640986986" y="-107" name="cedilla"/>
  <anchor x="165.32943640986986" y="-107" name="ogonek"/>
  <anchor x="200.0" y="0" name="bottom"/>
  <outline>
    <contour>
      <point x="8.0" y="0" type="curve" smooth="yes"/>
      <point x="39.23462819564031" y="27"/>
      <point x="55.8948822334847" y="22"/>
      <point x="73.0717967697245" y="4" type="curve" smooth="yes"/>
      <point x="93.90896534380866" y="-19"/>
      <point x="154.1051177665153" y="-22"/>
      <point x="201.71281292110203" y="-16" type="curve" smooth="yes"/>
      <point x="253.32050807568876" y="-10"/>
      <point x="280.39230484541326" y="-6"/>
      <point x="317.3256628518316" y="46" type="curve" smooth="yes"/>
      <point x="347.5795289339388" y="88"/>
      <point x="336.1013442084771" y="131"/>
      <point x="350.2500925240689" y="195" type="curve" smooth="yes"/>
      <point x="369.2937230731455" y="281"/>
      <point x="388.8347762341506" y="339"/>
      <point x="409.33735362222205" y="367" type="curve" smooth="yes"/>
      <point x="437.78737212703584" y="406"/>
      <point x="467.61045759079605" y="424"/>
      <point x="494.7155753573113" y="402" type="curve" smooth="yes"/>
      <point x="517.1604390859823" y="385"/>
      <point x="496.46170927520416" y="360"/>
      <point x="474.13604642337253" y="314" type="curve" smooth="yes"/>
      <point x="453.3462819564031" y="270"/>
      <point x="447.62831425915823" y="230"/>
      <point x="442.3936860635179" y="203" type="curve" smooth="yes"/>
      <point x="431.53212482682403" y="155"/>
      <point x="429.67056359013014" y="107"/>
      <point x="423.5077321642143" y="84" type="curve" smooth="yes"/>
      <point x="405.8948822334847" y="22"/>
      <point x="359.54482671904333" y="-95"/>
      <point x="165.32943640986986" y="-107" type="curve" smooth="yes"/>
      <point x="98.5255888325765" y="-110"/>
      <point x="36.59738560230099" y="-106"/>
      <point x="10.564064605510183" y="-80" type="curve" smooth="yes"/>
      <point x="-27.25386608210715" y="-42"/>
      <point x="-14.358983848622458" y="-20"/>
    </contour>
    <contour>
      <point x="423.6578616979108" y="357" type="curve"/>
      <point x="380.09757065043885" y="284" type="line"/>
      <point x="351.207843193097" y="318"/>
      <point x="327.22708107956385" y="333"/>
      <point x="280.7629794644261" y="335" type="curve" smooth="yes"/>
      <point x="210.56682704171948" y="338"/>
      <point x="154" y="279"/>
      <point x="138" y="217" type="curve" smooth="yes"/>
      <point x="120" y="152"/>
      <point x="167" y="137"/>
      <point x="201" y="139" type="curve" smooth="yes"/>
      <point x="244" y="141"/>
      <point x="284.72827724953066" y="152"/>
      <point x="382.00653599424754" y="265" type="curve"/>
      <point x="357.9244296722373" y="149" type="line"/>
      <point x="288.416697508023" y="65"/>
      <point x="229.80900235343626" y="59"/>
      <point x="196.80900235343626" y="59" type="curve" smooth="yes"/>
      <point x="162.80900235343626" y="59"/>
      <point x="14.541053161005117" y="58"/>
      <point x="57.144974757553626" y="217" type="curve" smooth="yes"/>
      <point x="84.74374157795927" y="320"/>
      <point x="166.46686405134705" y="416"/>
      <point x="306.73481324377815" y="417" type="curve" smooth="yes"/>
      <point x="389.73481324377815" y="417"/>
      <point x="401.42838827841337" y="386"/>
    </contour>
  </outline>
</glyph>
<glyph name="h" format="2">
  <advance width="500"/>
  <unicode hex="0068"/>
  <anchor x="380.7695154586736" y="600" name="top"/>
  <anchor x="57.85640646055102" y="-8" name="cedilla"/>
  <anchor x="351.5884572681199" y="-9" name="ogonek"/>
  <anchor x="200.0" y="0" name="bottom"/>
  <outline>
    <contour>
      <point x="239.9131089981226" y="608" type="curve" smooth="yes"/>
      <point x="287.71695657541596" y="611"/>
      <point x="283.8746332251889" y="578"/>
      <point x="275.24770018413534" y="557" type="curve" smooth="yes"/>
      <point x="247.22330752152564" y="486"/>
      <point x="225.42838827841337" y="386"/>
      <point x="195.68602791855875" y="275" type="curve" smooth="yes"/>
      <point x="181.21677152727813" y="221"/>
      <point x="137.70388458692094" y="81"/>
      <point x="136.0961894323342" y="75" type="curve" smooth="yes"/>
      <point x="121.94744111674234" y="11"/>
      <point x="109.78460969082653" y="-12"/>
      <point x="57.85640646055102" y="-8" type="curve" smooth="yes"/>
      <point x="28.392304845413264" y="-6"/>
      <point x="18.411542731880104" y="9"/>
      <point x="40.75644347017859" y="70" type="curve" smooth="yes"/>
      <point x="55.742360359854615" y="111"/>
      <point x="92.3603650667271" y="229"/>
      <point x="120.71042058116845" y="346" type="curve" smooth="yes"/>
      <point x="161.45793571716595" y="513"/>
      <point x="172.54897037335726" y="532"/>
      <point x="183.85539533872208" y="563" type="curve" smooth="yes"/>
      <point x="197.69771868894912" y="596"/>
      <point x="205.37721061326036" y="606"/>
    </contour>
    <contour>
      <point x="416.34490073829846" y="61" type="curve" smooth="yes"/>
      <point x="406.80384757729337" y="3"/>
      <point x="388.39230484541326" y="-6"/>
      <point x="351.5884572681199" y="-9" type="curve" smooth="yes"/>
      <point x="319.7846096908265" y="-12"/>
      <point x="308.143593539449" y="8"/>
      <point x="316.8615612366939" y="48" type="curve" smooth="yes"/>
      <point x="331.0103095522857" y="112"/>
      <point x="334.9244296722373" y="149"/>
      <point x="361.2885682970026" y="225" type="curve" smooth="yes"/>
      <point x="385.8488593444746" y="298"/>
      <point x="355" y="324"/>
      <point x="321" y="323" type="curve" smooth="yes"/>
      <point x="286" y="322"/>
      <point x="204.37960295319394" y="244"/>
      <point x="166.69495625273984" y="178" type="curve"/>
      <point x="196.74374157795927" y="320" type="line"/>
      <point x="254.57198181786234" y="394"/>
      <point x="301.8591688967603" y="410"/>
      <point x="329.8591688967603" y="410" type="curve" smooth="yes"/>
      <point x="377.8591688967603" y="410"/>
      <point x="509.3040326254312" y="393"/>
      <point x="458.7001110288827" y="234" type="curve" smooth="yes"/>
      <point x="424.02954743875256" y="127"/>
      <point x="429.5128869403572" y="140"/>
    </contour>
  </outline>
</glyph>
<glyph name="i" format="2">
  <advance width="500"/>
  <unicode hex="0069"/>
  <anchor x="360.7695154586736" y="600" name="top"/>
  <anchor x="200.0" y="0" name="cedilla"/>
  <anchor x="200.0" y="0" name="ogonek"/>
  <anchor x="200.0" y="0" name="bottom"/>
  <outline>
    <contour>
      <point x="414.94127521877056" y="526" type="curve" smooth="yes"/>
      <point x="403.8117647896455" y="477"/>
      <point x="369.7207301334542" y="458"/>
      <point x="325.4527809410231" y="457" type="curve" smooth="yes"/>
      <point x="280.18483174859193" y="456"/>
      <point x="261.07971398207667" y="478"/>
      <point x="273.94127521877056" y="526" type="curve" smooth="yes"/>
      <point x="287.6066840327578" y="577"/>
      <point x="318.6977186889491" y="596"/>
      <point x="362.6977186889491" y="596" type="curve" smooth="yes"/>
      <point x="407.6977186889491" y="596"/>
      <point x="426.33873484032665" y="576"/>
    </contour>
    <component base="idotless"/>
  </outline>
</glyph>
